<svg width="92" height="41" viewBox="0 0 92 41" fill="none" xmlns="http://www.w3.org/2000/svg">
<g clip-path="url(#clip0_806_14342)">
<path fill-rule="evenodd" clip-rule="evenodd" d="M4.28468 15.9766H10.7784L12.8075 20.5106H15.0386L8.20112 5.11084H6.65746L0.146484 20.5118H2.38621L4.28345 15.9778L4.28468 15.9766ZM7.42375 8.47606L9.88892 14.0266H5.13474L7.42375 8.47606Z" fill="#EAEAEA"/>
<path fill-rule="evenodd" clip-rule="evenodd" d="M18.8246 8.72506L28.9995 20.512H30.882V5.20508H28.8036V17.0923L18.5413 5.20508H16.7759V20.512H18.8246V8.72506Z" fill="#EAEAEA"/>
<path fill-rule="evenodd" clip-rule="evenodd" d="M73.5403 13.7952H79.7617V11.829H73.5403V7.15512H79.9921V5.20508H71.3535V20.4959H80.1929V18.5458H73.5403V13.7952Z" fill="#EAEAEA"/>
<path fill-rule="evenodd" clip-rule="evenodd" d="M90.7015 6.3592C89.8367 5.56928 88.6761 5.17432 87.2224 5.17432H82.3906V20.5122H84.5774V13.8734H86.1925C87.6339 13.8734 88.739 13.7186 89.5114 13.4078C90.2826 13.0971 90.89 12.5981 91.3347 11.9109C91.7783 11.2238 92 10.4339 92 9.54117C92 8.21019 91.5676 7.15036 90.7015 6.36044V6.3592ZM89.0162 11.2919C88.5369 11.7128 87.8532 11.9233 86.9662 11.9233H84.5774V7.1256H86.8356C88.7698 7.1256 89.7369 7.91304 89.7369 9.48546C89.7369 10.2692 89.4966 10.8709 89.0174 11.2919H89.0162Z" fill="#EAEAEA"/>
<path fill-rule="evenodd" clip-rule="evenodd" d="M1.03486 27.9779H2.6586L3.16617 29.112H3.72425L2.01427 25.2627H1.62867L0 29.112H0.560547L1.03486 27.9779ZM1.81962 26.1021L2.43561 27.4901H1.24676L1.81962 26.1021Z" fill="#EAEAEA"/>
<path fill-rule="evenodd" clip-rule="evenodd" d="M5.82581 25.7183C6.27179 25.7183 6.72146 25.8508 7.17482 26.117V25.5598C6.88038 25.4348 6.63768 25.3481 6.4455 25.301C6.25331 25.254 6.05003 25.2305 5.83567 25.2305C5.24802 25.2305 4.75893 25.4211 4.36839 25.8012C3.97785 26.1813 3.7832 26.658 3.7832 27.23C3.7832 27.802 3.97169 28.2292 4.34868 28.5994C4.72566 28.9696 5.22831 29.1541 5.85784 29.1541C6.3186 29.1541 6.78306 29.0526 7.25244 28.8483V27.2238H5.97365V27.7117H6.70544V28.5115L6.6537 28.5276C6.35063 28.6279 6.09069 28.6786 5.87386 28.6786C5.42665 28.6786 5.06076 28.54 4.77617 28.2639C4.49159 27.9878 4.34991 27.6324 4.34991 27.1966C4.34991 26.7608 4.49282 26.4314 4.7774 26.1467C5.06199 25.8619 5.41187 25.7183 5.82705 25.7183H5.82581Z" fill="#EAEAEA"/>
<path fill-rule="evenodd" clip-rule="evenodd" d="M8.0498 29.1072H10.2587V28.6207H8.59557V27.4321H10.1516V26.9405H8.59557V25.773H10.2095V25.2852H8.0498V29.1072Z" fill="#EAEAEA"/>
<path fill-rule="evenodd" clip-rule="evenodd" d="M9.60422 25.0024H9.90852L9.38 24.1543H8.86258L8.35254 25.0024H8.64575L9.1139 24.5158L9.60422 25.0024Z" fill="#EAEAEA"/>
<path fill-rule="evenodd" clip-rule="evenodd" d="M14.3809 25.2852H13.8622V28.2566L11.296 25.2852H10.855V29.1122H11.3675V26.1655L13.9103 29.1122H14.3809V25.2852Z" fill="#EAEAEA"/>
<path fill-rule="evenodd" clip-rule="evenodd" d="M16.0132 28.8965C16.3101 29.0686 16.6698 29.1541 17.0961 29.1541C17.6197 29.1541 18.0817 29.0451 18.4808 28.8297V28.2255C18.041 28.509 17.5901 28.6514 17.1294 28.6514C16.6686 28.6514 16.3249 28.5164 16.0415 28.2453C15.7582 27.9754 15.6165 27.63 15.6165 27.209C15.6165 26.788 15.7607 26.4451 16.0477 26.169C16.336 25.8916 16.697 25.753 17.1331 25.753C17.5692 25.753 17.993 25.8805 18.4377 26.1355V25.5474C17.9486 25.3357 17.5051 25.2305 17.1047 25.2305C16.5245 25.2305 16.0378 25.4211 15.6424 25.8012C15.2469 26.1813 15.0498 26.6506 15.0498 27.2077C15.0498 27.5594 15.136 27.885 15.3085 28.1871C15.481 28.4892 15.7163 28.7257 16.012 28.8965H16.0132Z" fill="#EAEAEA"/>
<path d="M19.7018 25.2852H19.1548V29.1122H19.7018V25.2852Z" fill="#EAEAEA"/>
<path fill-rule="evenodd" clip-rule="evenodd" d="M21.7505 25.2612L20.123 29.1106H20.6836L21.1579 27.9764H22.7816L23.2892 29.1106H23.8473L22.1373 25.2612H21.7517H21.7505ZM21.3698 27.4898L21.9427 26.1019L22.5587 27.4898H21.3698Z" fill="#EAEAEA"/>
<path fill-rule="evenodd" clip-rule="evenodd" d="M28.8366 28.2566L26.2716 25.2852H25.8306V29.1122H26.3418V26.1655L28.8859 29.1122H29.3565V25.2852H28.8366V28.2566Z" fill="#EAEAEA"/>
<path fill-rule="evenodd" clip-rule="evenodd" d="M30.3127 29.112L30.787 27.9779H32.4108L32.9184 29.112H33.4764L31.7665 25.2627H31.3809L29.7534 29.112H30.314H30.3127ZM31.5718 26.1021L32.1878 27.4901H30.9989L31.5718 26.1021Z" fill="#EAEAEA"/>
<path fill-rule="evenodd" clip-rule="evenodd" d="M34.4868 28.8965C34.7837 29.0686 35.1435 29.1541 35.5697 29.1541C36.0933 29.1541 36.5553 29.0451 36.9545 28.8297V28.2255C36.5147 28.509 36.0638 28.6514 35.603 28.6514C35.1422 28.6514 34.7985 28.5164 34.5152 28.2453C34.2318 27.9754 34.0901 27.63 34.0901 27.209C34.0901 26.788 34.2343 26.4451 34.5213 26.169C34.8096 25.8916 35.1706 25.753 35.6067 25.753C36.0428 25.753 36.4666 25.8805 36.9114 26.1355V25.5474C36.4223 25.3357 35.9788 25.2305 35.5784 25.2305C34.9981 25.2305 34.5115 25.4211 34.116 25.8012C33.7206 26.1813 33.5234 26.6506 33.5234 27.2077C33.5234 27.5594 33.6097 27.885 33.7822 28.1871C33.9546 28.4892 34.1899 28.7257 34.4856 28.8965H34.4868Z" fill="#EAEAEA"/>
<path d="M38.1764 25.2852H37.6294V29.1122H38.1764V25.2852Z" fill="#EAEAEA"/>
<path fill-rule="evenodd" clip-rule="evenodd" d="M40.8558 29.1541C41.457 29.1541 41.9559 28.9696 42.3502 28.5994C42.7456 28.2292 42.9428 27.7637 42.9428 27.1991C42.9428 26.6345 42.7469 26.1665 42.3551 25.7913C41.9633 25.4174 41.473 25.2305 40.8841 25.2305C40.2952 25.2305 39.8086 25.4174 39.423 25.7913C39.0374 26.1653 38.8452 26.6382 38.8452 27.209C38.8452 27.7798 39.0362 28.2292 39.4193 28.5982C39.8012 28.9684 40.2805 29.1528 40.8546 29.1528L40.8558 29.1541ZM39.8345 26.164C40.1154 25.8904 40.4727 25.753 40.9088 25.753C41.3449 25.753 41.6714 25.8916 41.9559 26.1677C42.2405 26.4438 42.3822 26.7843 42.3822 27.1892C42.3822 27.594 42.2405 27.9531 41.9559 28.2317C41.6714 28.5103 41.3178 28.6502 40.8928 28.6502C40.4677 28.6502 40.1178 28.5127 39.8357 28.2391C39.5548 27.9655 39.4132 27.6225 39.4132 27.2102C39.4132 26.7979 39.5536 26.4364 39.8345 26.1628V26.164Z" fill="#EAEAEA"/>
<path fill-rule="evenodd" clip-rule="evenodd" d="M46.6818 29.1122H47.1524V25.2852H46.6325V28.2566L44.0675 25.2852H43.6265V29.1122H44.1377V26.1655L46.6818 29.1122Z" fill="#EAEAEA"/>
<path fill-rule="evenodd" clip-rule="evenodd" d="M48.5829 27.9779H50.2067L50.7143 29.112H51.2723L49.5624 25.2627H49.1768L47.5493 29.112H48.1099L48.5842 27.9779H48.5829ZM49.3677 26.1021L49.9837 27.4901H48.7948L49.3677 26.1021Z" fill="#EAEAEA"/>
<path fill-rule="evenodd" clip-rule="evenodd" d="M51.6899 25.2852V29.1122H53.9506V28.612H52.2369V25.2852H51.6899Z" fill="#EAEAEA"/>
<path fill-rule="evenodd" clip-rule="evenodd" d="M0.934924 33.0601H1.33901C1.69875 33.0601 1.97594 33.0217 2.16813 32.9437C2.36155 32.8657 2.51308 32.7419 2.62396 32.5698C2.73484 32.3977 2.79027 32.2009 2.79027 31.978C2.79027 31.6449 2.68186 31.38 2.46627 31.1831C2.24944 30.985 1.95992 30.8872 1.59649 30.8872H0.38916V34.7217H0.936156V33.0614L0.934924 33.0601ZM0.934924 31.3726H1.49917C1.9821 31.3726 2.2248 31.5694 2.2248 31.9631C2.2248 32.1588 2.16443 32.3098 2.04493 32.4151C1.92543 32.5203 1.75419 32.5723 1.53243 32.5723H0.934924V31.3726Z" fill="#EAEAEA"/>
<path fill-rule="evenodd" clip-rule="evenodd" d="M5.5624 34.7194H6.12048L4.4105 30.8701H4.0249L2.39746 34.7194H2.95801L3.43232 33.5853H5.05606L5.56363 34.7194H5.5624ZM3.64422 33.0987L4.21708 31.7108L4.83307 33.0987H3.64422Z" fill="#EAEAEA"/>
<path fill-rule="evenodd" clip-rule="evenodd" d="M8.64114 34.421C8.65715 34.4433 8.66824 34.4581 8.6744 34.468L8.84072 34.7194H9.48997L9.28792 34.4458C9.20784 34.3368 9.1019 34.1734 8.96884 33.9555C8.75818 33.61 8.59432 33.3686 8.47852 33.2299C8.36271 33.0913 8.24321 32.9823 8.12125 32.9018C8.32945 32.8213 8.48837 32.7 8.59925 32.5366C8.71013 32.3744 8.76557 32.1812 8.76557 31.9584C8.76557 31.6315 8.65223 31.3715 8.42677 31.1796C8.20009 30.9877 7.89456 30.8911 7.51019 30.8911H6.55664V34.7181H7.10364V33.0541H7.24531C7.42272 33.0541 7.54961 33.0752 7.62476 33.116C7.69991 33.1569 7.78368 33.2237 7.87731 33.3166C7.97094 33.4095 8.0732 33.5345 8.18654 33.6917L8.36887 33.9901L8.53765 34.2687L8.6436 34.4198L8.64114 34.421ZM7.87485 32.497C7.7726 32.544 7.58411 32.5688 7.30814 32.5688H7.10117V31.3579H7.26379C7.5299 31.3579 7.72085 31.3777 7.83543 31.4186C7.95 31.4594 8.03993 31.5275 8.10277 31.6253C8.1656 31.7231 8.19763 31.8333 8.19763 31.9534C8.19763 32.0735 8.16929 32.1862 8.11262 32.2815C8.05595 32.3781 7.97587 32.4499 7.87362 32.497H7.87485Z" fill="#EAEAEA"/>
<path fill-rule="evenodd" clip-rule="evenodd" d="M11.1186 30.8701L9.49121 34.7194H10.0518L10.5261 33.5853H12.1498L12.6574 34.7194H13.2155L11.5055 30.8701H11.1199H11.1186ZM10.738 33.0987L11.3108 31.7108L11.9268 33.0987H10.738Z" fill="#EAEAEA"/>
<path fill-rule="evenodd" clip-rule="evenodd" d="M15.832 30.8701L14.2046 34.7194H14.7651L15.2394 33.5853H16.8632L17.3708 34.7194H17.9288L16.2189 30.8701H15.8333H15.832ZM15.4513 33.0987L16.0242 31.7108L16.6402 33.0987H15.4513Z" fill="#EAEAEA"/>
<path fill-rule="evenodd" clip-rule="evenodd" d="M23.3816 34.0436C23.6761 33.6858 23.8227 33.2698 23.8227 32.7968C23.8227 32.2347 23.628 31.7679 23.2387 31.3965C22.8494 31.0251 22.3603 30.8394 21.7714 30.8394C21.1825 30.8394 20.6898 31.0263 20.3029 31.4015C19.9161 31.7754 19.7227 32.2483 19.7227 32.8204C19.7227 33.2884 19.873 33.7007 20.1736 34.0585C20.4742 34.4163 20.8561 34.6379 21.3181 34.7209C21.6371 34.9413 21.8934 35.0973 22.0843 35.1889C22.2753 35.2805 22.465 35.3511 22.6511 35.4031C22.8371 35.4551 23.0157 35.486 23.1857 35.4947L23.7327 34.9573C23.5874 35.0094 23.4605 35.0341 23.352 35.0341C23.1537 35.0341 22.8309 34.9474 22.3825 34.7753L22.2383 34.7209C22.7053 34.628 23.0859 34.4027 23.3804 34.0449L23.3816 34.0436ZM22.8309 33.8406C22.5439 34.1191 22.1903 34.259 21.7714 34.259C21.3526 34.259 20.9928 34.1229 20.7119 33.8505C20.4298 33.5781 20.2894 33.2364 20.2894 32.8253C20.2894 32.4142 20.4286 32.0552 20.7095 31.7779C20.9891 31.5005 21.3427 31.3618 21.7714 31.3618C22.2002 31.3618 22.5574 31.4993 22.8395 31.7729C23.1217 32.0465 23.2621 32.392 23.2621 32.8104C23.2621 33.2289 23.118 33.5632 22.8322 33.8418L22.8309 33.8406Z" fill="#EAEAEA"/>
<path fill-rule="evenodd" clip-rule="evenodd" d="M27.2375 34.3705C27.3287 34.2925 27.4051 34.2033 27.4679 34.103C27.5307 34.004 27.5837 33.8789 27.6256 33.7291C27.6687 33.5793 27.6896 33.3577 27.6896 33.0642V30.8926H27.1426V33.063C27.1426 33.3639 27.1192 33.5768 27.0712 33.7006C27.0231 33.8245 26.9468 33.9322 26.8396 34.0238C26.6363 34.1934 26.3714 34.2788 26.0487 34.2788C25.8207 34.2788 25.6236 34.2367 25.4561 34.1513C25.2885 34.0659 25.1641 33.9532 25.0828 33.8133C25.0015 33.6734 24.9596 33.4233 24.9596 33.063V30.8926H24.4126V33.0581C24.4126 33.3663 24.4335 33.5929 24.4742 33.7365C24.5149 33.8814 24.5666 34.0027 24.6294 34.1018C24.6923 34.2008 24.7686 34.2912 24.8598 34.3717C25.1592 34.6305 25.5571 34.7605 26.0536 34.7605C26.5501 34.7605 26.9344 34.6305 27.2363 34.3692L27.2375 34.3705Z" fill="#EAEAEA"/>
<path fill-rule="evenodd" clip-rule="evenodd" d="M30.5407 33.5863L31.0482 34.7204H31.6063L29.8963 30.8711H29.5107L27.8833 34.7204H28.4438L28.9182 33.5863H30.5419H30.5407ZM29.7029 31.7105L30.3189 33.0985H29.1301L29.7029 31.7105Z" fill="#EAEAEA"/>
<path fill-rule="evenodd" clip-rule="evenodd" d="M32.0249 30.8936V34.7194H34.2843V34.2204H32.5719V30.8936H32.0249Z" fill="#EAEAEA"/>
<path d="M35.3156 30.8936H34.7686V34.7206H35.3156V30.8936Z" fill="#EAEAEA"/>
<path fill-rule="evenodd" clip-rule="evenodd" d="M38.1887 32.4486H36.7067V31.3801H38.1887V30.8936H36.1597V34.7194H36.7067V32.9365H38.1887V32.4486Z" fill="#EAEAEA"/>
<path d="M39.3297 30.8936H38.7827V34.7206H39.3297V30.8936Z" fill="#EAEAEA"/>
<path fill-rule="evenodd" clip-rule="evenodd" d="M43.453 33.8344C43.0132 34.1179 42.5623 34.2603 42.1015 34.2603C41.6408 34.2603 41.2971 34.1253 41.0137 33.8542C40.7304 33.5843 40.5887 33.2388 40.5887 32.8179C40.5887 32.3969 40.7328 32.054 41.0199 31.7779C41.3082 31.5005 41.6691 31.3618 42.1052 31.3618C42.5414 31.3618 42.9652 31.4894 43.4099 31.7444V31.1563C42.9208 30.9446 42.4773 30.8394 42.0769 30.8394C41.4966 30.8394 41.01 31.03 40.6146 31.4101C40.2191 31.7902 40.022 32.2595 40.022 32.8166C40.022 33.1683 40.1082 33.4939 40.2807 33.796C40.4532 34.0981 40.6885 34.3346 40.9841 34.5054C41.2811 34.6775 41.6408 34.763 42.067 34.763C42.5906 34.763 43.0526 34.654 43.4518 34.4386V33.8344H43.453Z" fill="#EAEAEA"/>
<path fill-rule="evenodd" clip-rule="evenodd" d="M44.8744 33.5863H46.4982L47.0058 34.7204H47.5638L45.8539 30.8711H45.4683L43.8408 34.7204H44.4014L44.8757 33.5863H44.8744ZM45.6592 31.7105L46.2752 33.0985H45.0863L45.6592 31.7105Z" fill="#EAEAEA"/>
<path fill-rule="evenodd" clip-rule="evenodd" d="M49.4365 35.0671C49.4587 35.0609 49.4784 35.0584 49.4994 35.0584C49.5991 35.0584 49.6669 35.0733 49.7051 35.1018C49.7421 35.1302 49.7605 35.1674 49.7605 35.2107C49.7605 35.2491 49.7433 35.28 49.7088 35.3036C49.6509 35.3432 49.5696 35.3642 49.4661 35.3642C49.4427 35.3642 49.3848 35.3605 49.2912 35.3531V35.6639C49.3417 35.6725 49.4008 35.6775 49.4686 35.6775C49.7125 35.6775 49.8911 35.628 50.002 35.5301C50.1129 35.4323 50.1683 35.3135 50.1683 35.1748C50.1683 35.0881 50.14 35.0114 50.0858 34.9445C50.0303 34.8764 49.954 34.8306 49.8554 34.8071L49.8689 34.76H49.88C50.4036 34.76 50.8656 34.6511 51.266 34.4356V33.8314C50.8262 34.115 50.3753 34.2574 49.9145 34.2574C49.4538 34.2574 49.1101 34.1224 48.8267 33.8513C48.5433 33.5813 48.4017 33.2359 48.4017 32.8149C48.4017 32.394 48.5458 32.051 48.8329 31.7749C49.1211 31.4976 49.4821 31.3589 49.9182 31.3589C50.3543 31.3589 50.7781 31.4864 51.2229 31.7415V31.1534C50.7338 30.9417 50.2903 30.8364 49.8899 30.8364C49.3096 30.8364 48.823 31.0271 48.4275 31.4072C48.0321 31.7873 47.835 32.2566 47.835 32.8137C47.835 33.1641 47.9212 33.491 48.0924 33.7906C48.2637 34.0914 48.499 34.3279 48.7971 34.5025C49.0115 34.6288 49.2628 34.708 49.5523 34.7415L49.4365 35.0659V35.0671Z" fill="#EAEAEA"/>
<path fill-rule="evenodd" clip-rule="evenodd" d="M53.8618 30.0343C53.826 30.0702 53.7829 30.0876 53.7324 30.0876C53.6819 30.0876 53.592 30.0628 53.47 30.0133C53.231 29.9155 53.0598 29.8672 52.9538 29.8672C52.8368 29.8672 52.7407 29.9105 52.6643 29.9972C52.5879 30.0838 52.5349 30.2559 52.5054 30.5135H52.7321C52.7394 30.4404 52.7604 30.3847 52.7949 30.3476C52.8294 30.3104 52.87 30.2918 52.9181 30.2918C53.0043 30.2918 53.1312 30.329 53.3012 30.402C53.4712 30.4751 53.6055 30.5122 53.7053 30.5122C53.8199 30.5122 53.916 30.4639 53.9924 30.3674C54.0922 30.2436 54.1439 30.0715 54.1451 29.8511H53.9332C53.9209 29.9377 53.8963 29.9984 53.8605 30.0331L53.8618 30.0343Z" fill="#EAEAEA"/>
<path fill-rule="evenodd" clip-rule="evenodd" d="M52.073 34.7194L52.5473 33.5853H54.171L54.6786 34.7194H55.2367L53.5267 30.8701H53.1411L51.5137 34.7194H52.0742H52.073ZM53.3321 31.7108L53.948 33.0987H52.7592L53.3321 31.7108Z" fill="#EAEAEA"/>
<path fill-rule="evenodd" clip-rule="evenodd" d="M57.4937 34.763C58.0949 34.763 58.5939 34.5785 58.9881 34.2083C59.3836 33.8381 59.5807 33.3726 59.5807 32.808C59.5807 32.2434 59.3848 31.7754 58.993 31.4002C58.6013 31.0263 58.1109 30.8394 57.5233 30.8394C56.9356 30.8394 56.4478 31.0263 56.0622 31.4002C55.6766 31.7741 55.4844 32.2471 55.4844 32.8179C55.4844 33.3886 55.6753 33.8381 56.0585 34.207C56.4404 34.5772 56.9196 34.7617 57.4937 34.7617V34.763ZM56.4724 31.7717C56.7533 31.498 57.1106 31.3606 57.5467 31.3606C57.9828 31.3606 58.3093 31.4993 58.5939 31.7754C58.8785 32.0515 59.0201 32.392 59.0201 32.7968C59.0201 33.2017 58.8785 33.5607 58.5939 33.8393C58.3093 34.1179 57.9557 34.2578 57.5307 34.2578C57.1057 34.2578 56.7558 34.1204 56.4736 33.8468C56.1928 33.5731 56.0511 33.2302 56.0511 32.8179C56.0511 32.4056 56.1915 32.044 56.4724 31.7704V31.7717Z" fill="#EAEAEA"/>
<path fill-rule="evenodd" clip-rule="evenodd" d="M63.959 31.3801V30.8936H61.7993V34.7156H64.0095V34.2278H62.3463V33.0405H63.9011V32.5489H62.3463V31.3801H63.959Z" fill="#EAEAEA"/>
<path fill-rule="evenodd" clip-rule="evenodd" d="M68.0086 30.8391C67.4198 30.8391 66.9331 31.0261 66.5475 31.4C66.1619 31.7739 65.9697 32.2469 65.9697 32.8176C65.9697 33.3884 66.1607 33.8379 66.5438 34.2068C66.9257 34.577 67.405 34.7615 67.9791 34.7615C68.5532 34.7615 69.0792 34.577 69.4735 34.2068C69.8689 33.8366 70.066 33.3711 70.066 32.8065C70.066 32.2419 69.8702 31.7739 69.4784 31.3988C69.0866 31.0248 68.5963 30.8379 68.0074 30.8379L68.0086 30.8391ZM69.0792 33.8403C68.7946 34.1189 68.4411 34.2588 68.016 34.2588C67.591 34.2588 67.2411 34.1214 66.959 33.8478C66.6781 33.5741 66.5364 33.2312 66.5364 32.8189C66.5364 32.4066 66.6769 32.0451 66.9565 31.7714C67.2374 31.4978 67.5947 31.3604 68.0308 31.3604C68.4669 31.3604 68.7934 31.499 69.078 31.7751C69.3626 32.0512 69.5043 32.3917 69.5043 32.7966C69.5043 33.2015 69.3626 33.5605 69.078 33.8391L69.0792 33.8403Z" fill="#EAEAEA"/>
<path fill-rule="evenodd" clip-rule="evenodd" d="M1.38245 38.7073H3.11829V38.0065H1.38245V37.2018H3.2033V36.501H0.435059V40.328H3.24149V39.6272H1.38245V38.7073Z" fill="#EAEAEA"/>
<path fill-rule="evenodd" clip-rule="evenodd" d="M6.8769 38.841L4.84168 36.501H3.97314V40.328H4.92053V37.8765L7.0272 40.328H7.82306V36.501H6.8769V38.841Z" fill="#EAEAEA"/>
<path fill-rule="evenodd" clip-rule="evenodd" d="M10.812 38.2207C10.6432 38.1316 10.4177 38.0338 10.1356 37.9298C9.8535 37.8258 9.6761 37.7404 9.60341 37.6735C9.52949 37.6079 9.49377 37.5373 9.49377 37.4643C9.49377 37.3689 9.54428 37.2921 9.6453 37.234C9.74632 37.1758 9.88184 37.1473 10.0531 37.1473C10.3525 37.1473 10.7553 37.2612 11.2616 37.4878V36.7424C10.8095 36.5456 10.3796 36.4478 9.973 36.4478C9.53196 36.4478 9.17961 36.5493 8.91597 36.7511C8.65233 36.9529 8.52051 37.2191 8.52051 37.5484C8.52051 37.8023 8.58087 38.0115 8.70161 38.1737C8.82234 38.3371 8.96648 38.4622 9.1328 38.5501C9.29911 38.638 9.52457 38.7333 9.80915 38.8361C10.0937 38.9389 10.2736 39.0255 10.3488 39.0973C10.4239 39.1691 10.4609 39.2459 10.4609 39.3264C10.4609 39.5641 10.2748 39.683 9.90155 39.683C9.68103 39.683 9.47405 39.6433 9.27694 39.5653C9.08106 39.4873 8.8556 39.3623 8.60059 39.1914V40.0148C9.0441 40.2612 9.50116 40.3837 9.97423 40.3837C10.4116 40.3837 10.7652 40.2785 11.0325 40.068C11.2998 39.8575 11.4341 39.574 11.4341 39.2199C11.4341 38.971 11.3725 38.7655 11.2506 38.6021C11.1274 38.4387 10.982 38.3124 10.8132 38.2232L10.812 38.2207Z" fill="#EAEAEA"/>
<path d="M13.0294 36.501H12.082V40.328H13.0294V36.501Z" fill="#EAEAEA"/>
<path fill-rule="evenodd" clip-rule="evenodd" d="M16.8166 38.841L14.7814 36.501H13.9141V40.328H14.8614V37.8765L16.9681 40.328H17.764V36.501H16.8166V38.841Z" fill="#EAEAEA"/>
<path fill-rule="evenodd" clip-rule="evenodd" d="M20.6391 36.4478C19.9886 36.4478 19.4613 36.6446 19.0597 37.0383C18.6569 37.4321 18.4561 37.8914 18.4561 38.4164C18.4561 38.9413 18.6581 39.4118 19.0634 39.8006C19.4687 40.1881 19.9936 40.3825 20.6391 40.3825C21.2847 40.3825 21.7996 40.1881 22.2062 39.7981C22.6127 39.4081 22.8172 38.9475 22.8172 38.4164C22.8172 37.8852 22.6164 37.4333 22.2148 37.0396C21.8132 36.6446 21.2884 36.4478 20.6391 36.4478ZM21.5089 39.2657C21.2884 39.4811 20.9988 39.5889 20.6391 39.5889C20.2794 39.5889 19.9862 39.4811 19.7644 39.2657C19.5439 39.0503 19.433 38.7668 19.433 38.4164C19.433 38.066 19.5439 37.7812 19.7644 37.5658C19.9849 37.3516 20.2769 37.2439 20.6391 37.2439C21.0013 37.2439 21.2896 37.3516 21.5089 37.5658C21.7294 37.78 21.8391 38.0635 21.8391 38.4164C21.8391 38.7692 21.7294 39.0503 21.5089 39.2657Z" fill="#EAEAEA"/>
<path fill-rule="evenodd" clip-rule="evenodd" d="M26.7895 36.501H25.0894V40.328H26.0367V38.7915H26.7932C27.1812 38.7915 27.488 38.6776 27.7122 38.4523C27.9377 38.2257 28.0498 37.9533 28.0498 37.6363C28.0498 37.3194 27.9364 37.0643 27.7085 36.839C27.4806 36.6149 27.1751 36.5022 26.7895 36.5022V36.501ZM26.4803 38.092H26.0355V37.2018H26.3731C26.6293 37.2018 26.8104 37.2339 26.9164 37.2996C27.0223 37.3652 27.0753 37.4803 27.0753 37.6475C27.0753 37.9446 26.8769 38.092 26.4803 38.092Z" fill="#EAEAEA"/>
<path fill-rule="evenodd" clip-rule="evenodd" d="M31.0064 38.5392C31.4412 38.3361 31.6593 38.0241 31.6593 37.6031C31.6593 37.2986 31.5435 37.0385 31.3131 36.8244C31.0827 36.6102 30.7821 36.5024 30.4125 36.5024H28.71V40.3295H29.6573V38.7744H29.9308C30.0565 38.7744 30.1748 38.8252 30.2857 38.9267C30.3965 39.0282 30.5284 39.256 30.6836 39.6101C30.8388 39.9642 30.9472 40.2044 31.0101 40.3307H32.0486C31.8885 39.9915 31.7221 39.6299 31.5497 39.2461C31.3772 38.8623 31.1961 38.6283 31.0064 38.5404V38.5392ZM30.5444 37.9585C30.4507 38.034 30.3226 38.0724 30.1625 38.0724H29.6586V37.202H30.1415C30.5049 37.202 30.6873 37.3468 30.6873 37.6341C30.6873 37.7752 30.6405 37.8829 30.5456 37.9585H30.5444Z" fill="#EAEAEA"/>
<path fill-rule="evenodd" clip-rule="evenodd" d="M34.4238 36.4478C33.7733 36.4478 33.246 36.6446 32.8444 37.0383C32.4415 37.4321 32.2407 37.8914 32.2407 38.4164C32.2407 38.9413 32.4428 39.4118 32.8481 39.8006C33.2534 40.1881 33.7782 40.3825 34.4238 40.3825C35.0693 40.3825 35.5843 40.1881 35.9908 39.7981C36.3974 39.4081 36.6019 38.9475 36.6019 38.4164C36.6019 37.8852 36.4011 37.4333 35.9995 37.0396C35.5978 36.6446 35.073 36.4478 34.4238 36.4478ZM35.2948 39.2657C35.0743 39.4811 34.7847 39.5889 34.425 39.5889C34.0653 39.5889 33.7721 39.4811 33.5503 39.2657C33.3298 39.0503 33.2189 38.7668 33.2189 38.4164C33.2189 38.066 33.3298 37.7812 33.5503 37.5658C33.7708 37.3516 34.0628 37.2439 34.425 37.2439C34.7872 37.2439 35.0755 37.3516 35.2948 37.5658C35.5153 37.78 35.625 38.0635 35.625 38.4164C35.625 38.7692 35.5153 39.0503 35.2948 39.2657Z" fill="#EAEAEA"/>
<path fill-rule="evenodd" clip-rule="evenodd" d="M37.2856 40.328H38.2318V38.7568H39.9073V38.0573H38.2318V37.2018H39.9073V36.501H37.2856V40.328Z" fill="#EAEAEA"/>
<path d="M41.6383 36.501H40.6909V40.328H41.6383V36.501Z" fill="#EAEAEA"/>
<path fill-rule="evenodd" clip-rule="evenodd" d="M44.6494 38.2207C44.4806 38.1316 44.2551 38.0338 43.973 37.9298C43.6909 37.8258 43.5135 37.7404 43.4408 37.6735C43.3669 37.6079 43.3312 37.5373 43.3312 37.4643C43.3312 37.3689 43.3817 37.2921 43.4827 37.234C43.5837 37.1758 43.7192 37.1473 43.8905 37.1473C44.1899 37.1473 44.5927 37.2612 45.099 37.4878V36.7424C44.6469 36.5456 44.217 36.4478 43.8104 36.4478C43.3694 36.4478 43.017 36.5493 42.7534 36.7511C42.4897 36.9529 42.3579 37.2191 42.3579 37.5484C42.3579 37.8023 42.4183 38.0115 42.539 38.1737C42.6597 38.3371 42.8039 38.4622 42.9702 38.5501C43.1365 38.638 43.362 38.7333 43.6466 38.8361C43.9311 38.9389 44.111 39.0255 44.1862 39.0973C44.2613 39.1691 44.2983 39.2459 44.2983 39.3264C44.2983 39.5641 44.1122 39.683 43.739 39.683C43.5184 39.683 43.3115 39.6433 43.1143 39.5653C42.9185 39.4873 42.693 39.3623 42.438 39.1914V40.0148C42.8815 40.2612 43.3386 40.3837 43.8116 40.3837C44.249 40.3837 44.6026 40.2785 44.8699 40.068C45.1372 39.8575 45.2715 39.574 45.2715 39.2199C45.2715 38.971 45.2099 38.7655 45.088 38.6021C44.966 38.4387 44.8194 38.3124 44.6506 38.2232L44.6494 38.2207Z" fill="#EAEAEA"/>
<path fill-rule="evenodd" clip-rule="evenodd" d="M48.02 38.2207C47.8512 38.1316 47.6258 38.0338 47.3436 37.9298C47.0615 37.8258 46.8841 37.7404 46.8114 37.6735C46.7375 37.6079 46.7018 37.5373 46.7018 37.4643C46.7018 37.3689 46.7523 37.2921 46.8533 37.234C46.9543 37.1758 47.0898 37.1473 47.2611 37.1473C47.5605 37.1473 47.9633 37.2612 48.4697 37.4878V36.7424C48.0175 36.5456 47.5876 36.4478 47.181 36.4478C46.74 36.4478 46.3876 36.5493 46.124 36.7511C45.8603 36.9529 45.7285 37.2191 45.7285 37.5484C45.7285 37.8023 45.7889 38.0115 45.9096 38.1737C46.0303 38.3371 46.1745 38.4622 46.3408 38.5501C46.5071 38.638 46.7326 38.7333 47.0172 38.8361C47.3017 38.9389 47.4816 39.0255 47.5568 39.0973C47.6319 39.1691 47.6689 39.2459 47.6689 39.3264C47.6689 39.5641 47.4828 39.683 47.1096 39.683C46.889 39.683 46.6821 39.6433 46.4849 39.5653C46.2891 39.4873 46.0636 39.3623 45.8086 39.1914V40.0148C46.2521 40.2612 46.7092 40.3837 47.1822 40.3837C47.6196 40.3837 47.9732 40.2785 48.2405 40.068C48.5078 39.8575 48.6421 39.574 48.6421 39.2199C48.6421 38.971 48.5805 38.7655 48.4586 38.6021C48.3354 38.4387 48.19 38.3124 48.0212 38.2232L48.02 38.2207Z" fill="#EAEAEA"/>
<path d="M50.2374 36.501H49.29V40.328H50.2374V36.501Z" fill="#EAEAEA"/>
<path fill-rule="evenodd" clip-rule="evenodd" d="M53.1362 36.4478C52.4857 36.4478 51.9584 36.6446 51.5568 37.0383C51.1539 37.4321 50.9531 37.8914 50.9531 38.4164C50.9531 38.9413 51.1552 39.4118 51.5605 39.8006C51.9658 40.1881 52.4906 40.3825 53.1362 40.3825C53.7817 40.3825 54.2967 40.1881 54.7032 39.7981C55.1098 39.4081 55.3143 38.9475 55.3143 38.4164C55.3143 37.8852 55.1135 37.4333 54.7119 37.0396C54.3103 36.6446 53.7854 36.4478 53.1362 36.4478ZM54.006 39.2657C53.7854 39.4811 53.4959 39.5889 53.1362 39.5889C52.7764 39.5889 52.4832 39.4811 52.2615 39.2657C52.041 39.0503 51.9301 38.7668 51.9301 38.4164C51.9301 38.066 52.041 37.7812 52.2615 37.5658C52.482 37.3516 52.774 37.2439 53.1362 37.2439C53.4984 37.2439 53.7867 37.3516 54.006 37.5658C54.2265 37.78 54.3361 38.0635 54.3361 38.4164C54.3361 38.7692 54.2265 39.0503 54.006 39.2657Z" fill="#EAEAEA"/>
<path fill-rule="evenodd" clip-rule="evenodd" d="M58.9069 38.841L56.8729 36.501H56.0044V40.328H56.9518V37.8765L59.0585 40.328H59.8543V36.501H58.9069V38.841Z" fill="#EAEAEA"/>
<path fill-rule="evenodd" clip-rule="evenodd" d="M61.8378 36.501L60.3003 40.328H61.3056L61.5889 39.574H63.294L63.6069 40.328H64.627L62.9404 36.501H61.8378ZM61.8403 38.9042L62.3996 37.4159L63.0168 38.9042H61.8403Z" fill="#EAEAEA"/>
<path fill-rule="evenodd" clip-rule="evenodd" d="M66.0116 36.501H65.0654V40.328H67.968V39.6272H66.0116V36.501Z" fill="#EAEAEA"/>
<path fill-rule="evenodd" clip-rule="evenodd" d="M68.7748 39.605C68.6836 39.605 68.6048 39.6409 68.5383 39.7127C68.4717 39.7845 68.4385 39.8699 68.4385 39.969C68.4385 40.1522 68.5346 40.2711 68.7268 40.328C68.7218 40.4642 68.7021 40.5732 68.6701 40.6524C68.6381 40.7317 68.5814 40.8109 68.5001 40.8889V40.9904C68.7034 40.9261 68.8635 40.8183 68.9805 40.6648C69.0963 40.5113 69.1555 40.333 69.1555 40.1312C69.1555 39.9777 69.1198 39.8514 69.0483 39.7536C68.9768 39.6545 68.8857 39.6062 68.7748 39.6062V39.605Z" fill="#EAEAEA"/>
<path d="M71.4161 36.501H70.8691V40.328H71.4161V36.501Z" fill="#EAEAEA"/>
<path fill-rule="evenodd" clip-rule="evenodd" d="M72.4447 39.7163C72.3523 39.7163 72.2734 39.7485 72.2094 39.8116C72.1453 39.876 72.1133 39.954 72.1133 40.0469C72.1133 40.1397 72.1453 40.2153 72.2094 40.2772C72.2734 40.3391 72.3511 40.37 72.4447 40.37C72.5383 40.37 72.6184 40.3391 72.6837 40.2772C72.7477 40.2153 72.781 40.1385 72.781 40.0469C72.781 39.9553 72.7477 39.876 72.6825 39.8116C72.6172 39.7473 72.5383 39.7163 72.4447 39.7163Z" fill="#EAEAEA"/>
<path fill-rule="evenodd" clip-rule="evenodd" d="M75.6848 38.1777C75.7956 38.0056 75.8511 37.8088 75.8511 37.5859C75.8511 37.2528 75.7427 36.9879 75.5271 36.791C75.3102 36.5942 75.0207 36.4951 74.6573 36.4951H73.4487V40.3296H73.9957V38.6693H74.3998C74.7595 38.6693 75.0367 38.6309 75.2289 38.5529C75.4224 38.4749 75.5739 38.3498 75.6848 38.179V38.1777ZM75.1057 38.023C74.9862 38.1282 74.815 38.1802 74.5932 38.1802H73.9957V36.9805H74.56C75.0429 36.9805 75.2856 37.1773 75.2856 37.571C75.2856 37.7667 75.2252 37.9177 75.1057 38.023Z" fill="#EAEAEA"/>
<path fill-rule="evenodd" clip-rule="evenodd" d="M75.6761 39.7163C75.5837 39.7163 75.5049 39.7485 75.4408 39.8116C75.3768 39.876 75.3447 39.954 75.3447 40.0469C75.3447 40.1397 75.3768 40.2153 75.4408 40.2772C75.5049 40.3391 75.5825 40.37 75.6761 40.37C75.7698 40.37 75.8498 40.3391 75.9151 40.2772C75.9792 40.2153 76.0125 40.1385 76.0125 40.0469C76.0125 39.9553 75.9792 39.876 75.9139 39.8116C75.8486 39.7473 75.7698 39.7163 75.6761 39.7163Z" fill="#EAEAEA"/>
<path fill-rule="evenodd" clip-rule="evenodd" d="M51.0529 22.7418C52.8134 22.7418 54.2658 22.8272 55.8686 22.5264L54.0749 18.6857C52.6729 19.1352 51.2475 19.2615 49.6188 19.2615C43.2828 19.2615 38.1467 15.479 38.1467 10.8138C38.1467 6.14851 43.2828 2.36729 49.6188 2.36729C55.9549 2.36729 61.091 6.14975 61.091 10.815C61.091 12.8195 60.6351 14.2904 59.0508 15.739L63.8358 19.1005C67.034 17.1294 68.5222 14.8897 68.5222 11.8662C68.5222 5.85879 60.7017 0.989258 51.0529 0.989258C41.4041 0.989258 33.5835 5.85879 33.5835 11.8662C33.5835 17.8735 41.4041 22.7431 51.0529 22.7431V22.7418Z" fill="#EAEAEA"/>
<path fill-rule="evenodd" clip-rule="evenodd" d="M51.9893 11.814L60.3543 28.7478L67.6279 23.6294L51.9893 11.814Z" fill="#EAEAEA"/>
</g>
<defs>
<clipPath id="clip0_806_14342">
<rect width="92" height="40" fill="white" transform="translate(0 0.989258)"/>
</clipPath>
</defs>
</svg>
