<svg width="448" height="40" viewBox="0 0 448 40" fill="none" xmlns="http://www.w3.org/2000/svg">
<g clip-path="url(#clip0_806_14499)">
<path d="M24.968 6.76514H22.4515L22.8854 6.31909C23.5599 5.61871 23.9346 4.70312 23.9346 3.73668C23.9346 1.96811 22.6684 0.430405 20.925 0.0743454C20.4281 -0.027386 19.9035 -0.027386 19.4065 0.0743454C17.6631 0.426493 16.4009 1.96811 16.4009 3.73668C16.4009 4.70312 16.7716 5.61871 17.4501 6.31909L17.8839 6.76514H15.3674C13.2888 6.76514 11.6006 8.4398 11.6006 10.5018V15.2323C11.6006 17.2943 13.2888 18.969 15.3674 18.969C17.4461 18.969 19.1343 17.2943 19.1343 15.2323C19.1343 13.1703 17.4461 11.4956 15.3674 11.4956H14.831V13.4403H15.3674C16.3654 13.4403 17.174 14.2463 17.174 15.2323C17.174 16.2183 16.3614 17.0244 15.3674 17.0244C14.3735 17.0244 13.5609 16.2183 13.5609 15.2323V10.5018C13.5609 9.65275 14.1684 8.91715 15.0046 8.74499C15.1229 8.72151 15.2452 8.70977 15.3674 8.70977H24.9759C25.0982 8.70977 25.2204 8.72151 25.3388 8.74499C26.175 8.91715 26.7824 9.65666 26.7824 10.5018V15.2323C26.7824 16.2222 25.9699 17.0244 24.9759 17.0244C23.9819 17.0244 23.1694 16.2183 23.1694 15.2323C23.1694 14.2463 23.9819 13.4403 24.9759 13.4403H25.5123V11.4956H24.9759C22.8972 11.4956 21.209 13.1703 21.209 15.2323C21.209 17.2943 22.8972 18.969 24.9759 18.969C27.0546 18.969 28.7428 17.2943 28.7428 15.2323V10.5018C28.7428 8.4398 27.0546 6.76514 24.9759 6.76514M20.5306 5.50915C20.29 5.56001 20.0336 5.5561 19.797 5.50915C18.9529 5.33699 18.3415 4.59357 18.3415 3.73668C18.3415 2.87978 18.9529 2.13636 19.797 1.9642C19.9153 1.94073 20.0415 1.92899 20.1638 1.92899C20.2861 1.92899 20.4123 1.94073 20.5306 1.9642C21.3747 2.13636 21.9861 2.87978 21.9861 3.73668C21.9861 4.59357 21.3747 5.33699 20.5306 5.50915Z" fill="#EAEAEA"/>
<path d="M15.3592 21.0309C13.2806 21.0309 11.5924 22.7056 11.5924 24.7676V25.2998H13.5527V24.7676C13.5527 23.7777 14.3653 22.9756 15.3592 22.9756C16.3532 22.9756 17.1658 23.7816 17.1658 24.7676C17.1658 25.7536 16.3532 26.5597 15.3592 26.5597H10.5905C9.5926 26.5597 8.78401 25.7536 8.78401 24.7676V15.2362C8.78401 14.391 9.38749 13.6515 10.2237 13.4793L10.3262 13.4598V11.5073L10.1843 11.523C8.27124 11.7304 6.8276 13.3268 6.8276 15.2362V17.7325L6.37795 17.3021C5.67191 16.633 4.74893 16.2613 3.77467 16.2613C1.696 16.2613 0.0078125 17.936 0.0078125 19.998C0.0078125 22.06 1.696 23.7347 3.77467 23.7347C4.74893 23.7347 5.67191 23.3669 6.37795 22.6939L6.8276 22.2635V24.7598C6.8276 26.8218 8.51579 28.4965 10.5945 28.4965H15.3632C17.4419 28.4965 19.1301 26.8218 19.1301 24.7598C19.1301 22.6978 17.4419 21.0231 15.3632 21.0231M3.76678 21.8096C2.76097 21.8096 1.94055 20.9957 1.94055 19.998C1.94055 19.0002 2.76097 18.1864 3.76678 18.1864C4.77259 18.1864 5.59302 19.0002 5.59302 19.998C5.59302 20.9957 4.77259 21.8096 3.76678 21.8096Z" fill="#EAEAEA"/>
<path d="M24.968 21.0308C22.8893 21.0308 21.2011 22.7054 21.2011 24.7674C21.2011 26.8295 22.8893 28.5041 24.968 28.5041H25.5044V26.5595H24.968C23.9701 26.5595 23.1615 25.7535 23.1615 24.7674C23.1615 23.7814 23.974 22.9754 24.968 22.9754C25.962 22.9754 26.7745 23.7814 26.7745 24.7674V29.4979C26.7745 30.4879 25.962 31.29 24.968 31.29H15.3596C14.5076 31.29 13.7621 30.6913 13.5885 29.8618L13.5688 29.7601H11.6006L11.6164 29.901C11.8254 31.7986 13.4347 33.2307 15.3596 33.2307H17.8761L17.4422 33.6768C16.7677 34.3771 16.393 35.2927 16.393 36.2592C16.393 38.3212 18.0812 39.9958 20.1598 39.9958C22.2385 39.9958 23.9267 38.3212 23.9267 36.2592C23.9267 35.2927 23.5559 34.3771 22.8775 33.6768L22.4436 33.2307H24.9601C27.0388 33.2307 28.727 31.5561 28.727 29.494V24.7635C28.727 22.7015 27.0388 21.0269 24.9601 21.0269M21.9861 36.2631C21.9861 37.2608 21.1657 38.0747 20.1598 38.0747C19.154 38.0747 18.3336 37.2608 18.3336 36.2631C18.3336 35.2653 19.1501 34.4515 20.1598 34.4515C21.1696 34.4515 21.9861 35.2614 21.9861 36.2631Z" fill="#EAEAEA"/>
<path d="M15.3591 11.4996H14.8227V13.4442H15.3591C16.3571 13.4442 17.1657 14.2502 17.1657 15.2362C17.1657 16.2222 16.3531 17.0283 15.3591 17.0283C14.3652 17.0283 13.5526 16.2222 13.5526 15.2362V10.5057C13.5526 9.65665 14.1601 8.92106 14.9963 8.7489C15.1146 8.72542 15.2369 8.71368 15.3591 8.71368H20.258V5.54436C20.1042 5.55218 19.9464 5.54436 19.7926 5.51305C18.9485 5.34089 18.3371 4.59747 18.3371 3.74058C18.3371 2.88369 18.9485 2.14027 19.7926 1.96811C19.9109 1.94463 20.0372 1.93289 20.1594 1.93289C20.191 1.93289 20.2225 1.93289 20.2541 1.93681V0.00390869C19.9662 -0.00391681 19.6782 0.0195597 19.3982 0.0743381C17.6548 0.426485 16.3926 1.96811 16.3926 3.73667C16.3926 4.70312 16.7633 5.6187 17.4418 6.31908L17.8756 6.76513H15.3591C13.2805 6.76513 11.5923 8.43979 11.5923 10.5018V15.2323C11.5923 17.2943 13.2805 18.969 15.3591 18.969C17.4378 18.969 19.126 17.2943 19.126 15.2323C19.126 13.1703 17.4378 11.4956 15.3591 11.4956" fill="#EAEAEA"/>
<path d="M20.1086 38.0709C19.1264 38.0435 18.3375 37.2453 18.3375 36.2632C18.3375 35.2811 19.1264 34.4829 20.1086 34.4555V31.2901H15.3596C14.5076 31.2901 13.7621 30.6915 13.5885 29.862L13.5688 29.7603H11.6006L11.6164 29.9011C11.8254 31.7988 13.4347 33.2309 15.3596 33.2309H17.8761L17.4422 33.6769C16.7677 34.3773 16.393 35.2929 16.393 36.2593C16.393 38.3018 18.0536 39.9647 20.1046 39.9921V38.067L20.1086 38.0709Z" fill="#EAEAEA"/>
<path d="M15.3593 21.031C13.2806 21.031 11.5925 22.7057 11.5925 24.7677V25.2998H13.5528V24.7677C13.5528 23.7778 14.3653 22.9757 15.3593 22.9757C16.3533 22.9757 17.1658 23.7817 17.1658 24.7677C17.1658 25.7537 16.3533 26.5597 15.3593 26.5597H10.5906C9.59268 26.5597 8.78408 25.7537 8.78408 24.7677V19.9941H5.59704C5.59704 19.9941 5.59704 19.9981 5.59704 20.002C5.59704 20.9997 4.77662 21.8136 3.7708 21.8136C2.76499 21.8136 1.94457 21.0036 1.94457 20.002C1.94457 20.002 1.94457 19.9981 1.94457 19.9941H0C0 19.9941 0 19.9981 0 20.002C0 22.064 1.68818 23.7386 3.76686 23.7386C4.74112 23.7386 5.6641 23.3708 6.37014 22.6978L6.81979 22.2674V24.7638C6.81979 26.8258 8.50798 28.5005 10.5867 28.5005H15.3554C17.4341 28.5005 19.1222 26.8258 19.1222 24.7638C19.1222 22.7018 17.4341 21.0271 15.3554 21.0271" fill="#EAEAEA"/>
<path d="M24.968 6.76514H22.4515L22.8854 6.31909C23.5599 5.61871 23.9346 4.70312 23.9346 3.73668C23.9346 1.96811 22.6684 0.430405 20.925 0.0743454C20.4281 -0.027386 19.9035 -0.027386 19.4065 0.0743454C17.6631 0.426493 16.4009 1.96811 16.4009 3.73668C16.4009 4.70312 16.7716 5.61871 17.4501 6.31909L17.8839 6.76514H15.3674C13.2888 6.76514 11.6006 8.4398 11.6006 10.5018V15.2323C11.6006 17.2943 13.2888 18.969 15.3674 18.969C17.4461 18.969 19.1343 17.2943 19.1343 15.2323C19.1343 13.1703 17.4461 11.4956 15.3674 11.4956H14.831V13.4403H15.3674C16.3654 13.4403 17.174 14.2463 17.174 15.2323C17.174 16.2183 16.3614 17.0244 15.3674 17.0244C14.3735 17.0244 13.5609 16.2183 13.5609 15.2323V10.5018C13.5609 9.65275 14.1684 8.91715 15.0046 8.74499C15.1229 8.72151 15.2452 8.70977 15.3674 8.70977H24.9759C25.0982 8.70977 25.2204 8.72151 25.3388 8.74499C26.175 8.91715 26.7824 9.65666 26.7824 10.5018V15.2323C26.7824 16.2222 25.9699 17.0244 24.9759 17.0244C23.9819 17.0244 23.1694 16.2183 23.1694 15.2323C23.1694 14.2463 23.9819 13.4403 24.9759 13.4403H25.5123V11.4956H24.9759C22.8972 11.4956 21.209 13.1703 21.209 15.2323C21.209 17.2943 22.8972 18.969 24.9759 18.969C27.0546 18.969 28.7428 17.2943 28.7428 15.2323V10.5018C28.7428 8.4398 27.0546 6.76514 24.9759 6.76514M20.5306 5.50915C20.29 5.56001 20.0336 5.5561 19.797 5.50915C18.9529 5.33699 18.3415 4.59357 18.3415 3.73668C18.3415 2.87978 18.9529 2.13636 19.797 1.9642C19.9153 1.94073 20.0415 1.92899 20.1638 1.92899C20.2861 1.92899 20.4123 1.94073 20.5306 1.9642C21.3747 2.13636 21.9861 2.87978 21.9861 3.73668C21.9861 4.59357 21.3747 5.33699 20.5306 5.50915Z" fill="#EAEAEA"/>
<path d="M15.3592 21.0309C13.2806 21.0309 11.5924 22.7056 11.5924 24.7676V25.2998H13.5527V24.7676C13.5527 23.7777 14.3653 22.9756 15.3592 22.9756C16.3532 22.9756 17.1658 23.7816 17.1658 24.7676C17.1658 25.7536 16.3532 26.5597 15.3592 26.5597H10.5905C9.5926 26.5597 8.78401 25.7536 8.78401 24.7676V15.2362C8.78401 14.391 9.38749 13.6515 10.2237 13.4793L10.3262 13.4598V11.5073L10.1843 11.523C8.27124 11.7304 6.8276 13.3268 6.8276 15.2362V17.7325L6.37795 17.3021C5.67191 16.633 4.74893 16.2613 3.77467 16.2613C1.696 16.2613 0.0078125 17.936 0.0078125 19.998C0.0078125 22.06 1.696 23.7347 3.77467 23.7347C4.74893 23.7347 5.67191 23.3669 6.37795 22.6939L6.8276 22.2635V24.7598C6.8276 26.8218 8.51579 28.4965 10.5945 28.4965H15.3632C17.4419 28.4965 19.1301 26.8218 19.1301 24.7598C19.1301 22.6978 17.4419 21.0231 15.3632 21.0231M3.76678 21.8096C2.76097 21.8096 1.94055 20.9957 1.94055 19.998C1.94055 19.0002 2.76097 18.1864 3.76678 18.1864C4.77259 18.1864 5.59302 19.0002 5.59302 19.998C5.59302 20.9957 4.77259 21.8096 3.76678 21.8096Z" fill="#EAEAEA"/>
<path d="M24.968 21.0308C22.8893 21.0308 21.2011 22.7054 21.2011 24.7674C21.2011 26.8295 22.8893 28.5041 24.968 28.5041H25.5044V26.5595H24.968C23.9701 26.5595 23.1615 25.7535 23.1615 24.7674C23.1615 23.7814 23.974 22.9754 24.968 22.9754C25.962 22.9754 26.7745 23.7814 26.7745 24.7674V29.4979C26.7745 30.4879 25.962 31.29 24.968 31.29H15.3596C14.5076 31.29 13.7621 30.6913 13.5885 29.8618L13.5688 29.7601H11.6006L11.6164 29.901C11.8254 31.7986 13.4347 33.2307 15.3596 33.2307H17.8761L17.4422 33.6768C16.7677 34.3771 16.393 35.2927 16.393 36.2592C16.393 38.3212 18.0812 39.9958 20.1598 39.9958C22.2385 39.9958 23.9267 38.3212 23.9267 36.2592C23.9267 35.2927 23.5559 34.3771 22.8775 33.6768L22.4436 33.2307H24.9601C27.0388 33.2307 28.727 31.5561 28.727 29.494V24.7635C28.727 22.7015 27.0388 21.0269 24.9601 21.0269M21.9861 36.2631C21.9861 37.2608 21.1657 38.0747 20.1598 38.0747C19.154 38.0747 18.3336 37.2608 18.3336 36.2631C18.3336 35.2653 19.1501 34.4515 20.1598 34.4515C21.1696 34.4515 21.9861 35.2614 21.9861 36.2631Z" fill="#EAEAEA"/>
<path d="M15.3591 11.4996H14.8227V13.4442H15.3591C16.3571 13.4442 17.1657 14.2502 17.1657 15.2362C17.1657 16.2222 16.3531 17.0283 15.3591 17.0283C14.3652 17.0283 13.5526 16.2222 13.5526 15.2362V10.5057C13.5526 9.65665 14.1601 8.92106 14.9963 8.7489C15.1146 8.72542 15.2369 8.71368 15.3591 8.71368H20.258V5.54436C20.1042 5.55218 19.9464 5.54436 19.7926 5.51305C18.9485 5.34089 18.3371 4.59747 18.3371 3.74058C18.3371 2.88369 18.9485 2.14027 19.7926 1.96811C19.9109 1.94463 20.0372 1.93289 20.1594 1.93289C20.191 1.93289 20.2225 1.93289 20.2541 1.93681V0.00390869C19.9662 -0.00391681 19.6782 0.0195597 19.3982 0.0743381C17.6548 0.426485 16.3926 1.96811 16.3926 3.73667C16.3926 4.70312 16.7633 5.6187 17.4418 6.31908L17.8756 6.76513H15.3591C13.2805 6.76513 11.5923 8.43979 11.5923 10.5018V15.2323C11.5923 17.2943 13.2805 18.969 15.3591 18.969C17.4378 18.969 19.126 17.2943 19.126 15.2323C19.126 13.1703 17.4378 11.4956 15.3591 11.4956" fill="#EAEAEA"/>
<path d="M20.1086 38.0709C19.1264 38.0435 18.3375 37.2453 18.3375 36.2632C18.3375 35.2811 19.1264 34.4829 20.1086 34.4555V31.2901H15.3596C14.5076 31.2901 13.7621 30.6915 13.5885 29.862L13.5688 29.7603H11.6006L11.6164 29.9011C11.8254 31.7988 13.4347 33.2309 15.3596 33.2309H17.8761L17.4422 33.6769C16.7677 34.3773 16.393 35.2929 16.393 36.2593C16.393 38.3018 18.0536 39.9647 20.1046 39.9921V38.067L20.1086 38.0709Z" fill="#EAEAEA"/>
<path d="M15.3593 21.031C13.2806 21.031 11.5925 22.7057 11.5925 24.7677V25.2998H13.5528V24.7677C13.5528 23.7778 14.3653 22.9757 15.3593 22.9757C16.3533 22.9757 17.1658 23.7817 17.1658 24.7677C17.1658 25.7537 16.3533 26.5597 15.3593 26.5597H10.5906C9.59268 26.5597 8.78408 25.7537 8.78408 24.7677V19.9941H5.59704C5.59704 19.9941 5.59704 19.9981 5.59704 20.002C5.59704 20.9997 4.77662 21.8136 3.7708 21.8136C2.76499 21.8136 1.94457 21.0036 1.94457 20.002C1.94457 20.002 1.94457 19.9981 1.94457 19.9941H0C0 19.9941 0 19.9981 0 20.002C0 22.064 1.68818 23.7386 3.76686 23.7386C4.74112 23.7386 5.6641 23.3708 6.37014 22.6978L6.81979 22.2674V24.7638C6.81979 26.8258 8.50798 28.5005 10.5867 28.5005H15.3554C17.4341 28.5005 19.1222 26.8258 19.1222 24.7638C19.1222 22.7018 17.4341 21.0271 15.3554 21.0271" fill="#EAEAEA"/>
<path d="M38.9624 18.4408C39.0058 18.3977 39.0294 18.343 39.0294 18.2764V13.362C39.0294 13.2994 39.061 13.2642 39.1281 13.2642H41.8852C42.7529 13.2642 43.5181 13.096 44.1847 12.7556C44.8513 12.4151 45.368 11.9378 45.7388 11.3196C46.1096 10.7014 46.291 9.98924 46.291 9.18321C46.291 8.37719 46.1135 7.63377 45.7585 6.99599C45.4035 6.36212 44.8987 5.86912 44.2518 5.52088C43.6049 5.17265 42.8555 5.00049 41.9995 5.00049H36.5248C36.4617 5.00049 36.4065 5.02396 36.3591 5.067C36.3118 5.11396 36.2921 5.16482 36.2921 5.23134V11.0809H34.4146V13.2525H36.2921V18.2725C36.2921 18.3351 36.3157 18.3899 36.3591 18.4369C36.4025 18.4799 36.4577 18.5034 36.5248 18.5034H38.7967C38.8598 18.5034 38.9151 18.4799 38.9624 18.4369M39.0334 10.9948V7.44987C39.0334 7.38726 39.0649 7.35205 39.132 7.35205H41.5972C42.1928 7.35205 42.6701 7.52421 43.033 7.87244C43.3958 8.22068 43.5773 8.67456 43.5773 9.24191C43.5773 9.80925 43.3958 10.2397 43.033 10.5801C42.6701 10.9205 42.1928 11.0926 41.5972 11.0926H40.4573L39.1123 11.0887C39.061 11.0809 39.0334 11.0535 39.0334 10.9987" fill="#EAEAEA"/>
<path d="M57.3547 18.4407C57.3981 18.3977 57.4218 18.3429 57.4218 18.2764V16.4061C57.4218 16.3435 57.3981 16.2887 57.3547 16.2418C57.3074 16.1987 57.2561 16.1753 57.189 16.1753H50.8189C50.7558 16.1753 50.7203 16.144 50.7203 16.0775V12.9551C50.7203 12.8925 50.7518 12.8573 50.8189 12.8573H54.996C55.0591 12.8573 55.1143 12.8338 55.1616 12.7907C55.205 12.7477 55.2287 12.6929 55.2287 12.6264V10.7561C55.2287 10.6935 55.205 10.6387 55.1616 10.5918C55.1143 10.5487 55.0591 10.5253 54.996 10.5253H50.8189C50.7558 10.5253 50.7203 10.494 50.7203 10.4274V7.44202C50.7203 7.37942 50.7518 7.3442 50.8189 7.3442H57.189C57.2521 7.3442 57.3074 7.32073 57.3547 7.27769C57.3981 7.23465 57.4218 7.17987 57.4218 7.11335V5.24306C57.4218 5.18045 57.3981 5.12568 57.3547 5.07872C57.3074 5.03568 57.2561 5.01221 57.189 5.01221H48.2156C48.1525 5.01221 48.0973 5.03568 48.05 5.07872C48.0066 5.12568 47.9829 5.17654 47.9829 5.24306V18.2647C47.9829 18.3273 48.0066 18.3821 48.05 18.429C48.0934 18.4721 48.1486 18.4955 48.2156 18.4955H57.189C57.2521 18.4955 57.3074 18.4721 57.3547 18.429" fill="#EAEAEA"/>
<path d="M68.959 14.7513C68.959 13.9413 68.7499 13.284 68.3279 12.7753C67.9059 12.2667 67.4365 11.8872 66.9119 11.6289C66.3873 11.3707 65.6655 11.0772 64.7464 10.7407C63.9181 10.4473 63.3067 10.2125 62.9123 10.0364C62.5179 9.86426 62.2181 9.66863 62.0169 9.44951C61.8158 9.2304 61.7172 8.96042 61.7172 8.63958C61.7172 8.18961 61.8868 7.83746 62.2339 7.57922C62.577 7.32098 63.0543 7.19577 63.6617 7.19577C64.4388 7.19577 65.0501 7.38358 65.4959 7.76312C65.9416 8.14266 66.1664 8.60045 66.1664 9.14041V9.293C66.1664 9.35561 66.1901 9.41039 66.2334 9.45734C66.2768 9.50429 66.3321 9.52386 66.3991 9.52386H68.6316C68.6947 9.52386 68.7499 9.50038 68.7973 9.45734C68.8407 9.4143 68.8643 9.35952 68.8643 9.293V9.00346C68.8643 8.18178 68.6474 7.45793 68.2135 6.8358C67.7796 6.21367 67.1761 5.72849 66.407 5.38026C65.6378 5.03202 64.7583 4.85986 63.7761 4.85986C62.8452 4.85986 62.0209 5.01246 61.3109 5.32157C60.597 5.63067 60.0408 6.07281 59.6424 6.6519C59.2401 7.23099 59.0389 7.90398 59.0389 8.67479C59.0389 9.4456 59.244 10.1147 59.6503 10.6507C60.0566 11.1829 60.5615 11.6054 61.165 11.9145C61.7684 12.2237 62.5021 12.5249 63.3698 12.8184C64.1469 13.1001 64.7109 13.3231 65.0699 13.4836C65.4249 13.644 65.7088 13.8318 65.914 14.0431C66.1191 14.2544 66.2256 14.5165 66.2256 14.8217C66.2256 15.2443 66.0559 15.6003 65.7207 15.8899C65.3854 16.1794 64.8726 16.3242 64.1863 16.3242C63.3698 16.3242 62.723 16.1481 62.2457 15.796C61.7684 15.4438 61.5278 15.0095 61.5278 14.497V14.2074C61.5278 14.1448 61.5042 14.09 61.4608 14.0431C61.4134 14 61.3622 13.9766 61.2951 13.9766H59.0823C59.0192 13.9766 58.964 14 58.9167 14.0431C58.8733 14.09 58.8496 14.1409 58.8496 14.2074V14.63C58.8496 15.4399 59.0587 16.1481 59.4807 16.7585C59.9028 17.3689 60.5023 17.8384 61.2754 18.1632C62.0524 18.4919 62.9596 18.6562 63.9931 18.6562C65.5195 18.6562 66.7304 18.308 67.6258 17.6076C68.5172 16.9072 68.9669 15.9525 68.9669 14.7474" fill="#EAEAEA"/>
<path d="M72.8246 18.171C73.6017 18.4997 74.5089 18.664 75.5423 18.664C77.0688 18.664 78.2797 18.3158 79.175 17.6154C80.0704 16.915 80.5161 15.9603 80.5161 14.7552C80.5161 13.9453 80.3071 13.2879 79.885 12.7793C79.463 12.2706 78.9936 11.8911 78.469 11.6328C77.9444 11.3746 77.2226 11.0811 76.3035 10.7446C75.4752 10.4512 74.8639 10.2164 74.4694 10.0403C74.075 9.86817 73.7752 9.67253 73.578 9.45342C73.3768 9.23431 73.2782 8.96433 73.2782 8.64348C73.2782 8.19352 73.4478 7.84137 73.791 7.58313C74.1342 7.32489 74.6114 7.19968 75.2188 7.19968C75.9959 7.19968 76.6073 7.38749 77.053 7.76703C77.4987 8.14656 77.7235 8.60435 77.7235 9.14431V9.29691C77.7235 9.35951 77.7472 9.41429 77.7906 9.46125C77.834 9.5082 77.8892 9.52776 77.9562 9.52776H80.1887C80.2518 9.52776 80.3071 9.50429 80.3544 9.46125C80.3978 9.41821 80.4215 9.36343 80.4215 9.29691V9.00737C80.4215 8.18569 80.2045 7.46183 79.7706 6.83971C79.3368 6.21758 78.7333 5.7324 77.9641 5.38416C77.195 5.03593 76.3154 4.86377 75.3332 4.86377C74.4024 4.86377 73.578 5.01637 72.868 5.32547C72.1541 5.63458 71.5979 6.07672 71.1996 6.65581C70.7972 7.23489 70.5961 7.90789 70.5961 8.6787C70.5961 9.44951 70.8012 10.1186 71.2074 10.6546C71.6137 11.1868 72.1186 11.6093 72.7221 11.9184C73.3256 12.2276 74.0592 12.5288 74.927 12.8223C75.704 13.104 76.272 13.327 76.627 13.4875C76.982 13.6479 77.266 13.8357 77.4711 14.047C77.6762 14.2583 77.7827 14.5204 77.7827 14.8256C77.7827 15.2482 77.6131 15.6043 77.2778 15.8938C76.9425 16.1833 76.4298 16.3281 75.7434 16.3281C74.927 16.3281 74.2801 16.152 73.8028 15.7999C73.3256 15.4477 73.085 15.0134 73.085 14.5009V14.2113C73.085 14.1487 73.0613 14.0939 73.0179 14.047C72.9706 14.0039 72.9153 13.9805 72.8522 13.9805H70.6395C70.5763 13.9805 70.5211 14.0039 70.4738 14.047C70.4265 14.09 70.4067 14.1448 70.4067 14.2113V14.6339C70.4067 15.4438 70.6158 16.152 71.0378 16.7624C71.4599 17.3728 72.0555 17.8423 72.8325 18.1671" fill="#EAEAEA"/>
<path d="M89.963 5.47415C89.1938 5.07114 88.2945 4.86768 87.2729 4.86768C86.2514 4.86768 85.3718 5.07114 84.6026 5.47415C83.8335 5.87716 83.2339 6.44843 82.8079 7.18011C82.3819 7.91179 82.1689 8.75303 82.1689 9.70383V13.8279C82.1689 14.7904 82.3819 15.6434 82.8079 16.379C83.2339 17.1185 83.8335 17.6937 84.6026 18.1045C85.3718 18.5153 86.2632 18.7227 87.2729 18.7227C88.2827 18.7227 89.1938 18.5192 89.963 18.1162C90.7321 17.7132 91.3317 17.138 91.7577 16.3907C92.1837 15.6473 92.4006 14.7904 92.4006 13.8279V9.70383C92.4006 8.75303 92.1876 7.91179 91.7577 7.18011C91.3317 6.44843 90.7321 5.88108 89.963 5.47415ZM89.6593 13.9218C89.6593 14.6652 89.4384 15.2638 89.0006 15.7138C88.5588 16.1638 87.9829 16.3868 87.2729 16.3868C86.563 16.3868 85.9871 16.1638 85.5532 15.7138C85.1193 15.2638 84.9024 14.6691 84.9024 13.9218V9.68427C84.9024 8.94084 85.1193 8.33828 85.5532 7.8844C85.9871 7.42661 86.559 7.19967 87.2729 7.19967C87.9869 7.19967 88.5785 7.42661 89.0124 7.8844C89.4463 8.34219 89.6632 8.94084 89.6632 9.68427V13.9218H89.6593Z" fill="#EAEAEA"/>
<path d="M101.295 5.21565C101.255 5.08653 101.173 5.02393 101.042 5.02393H97.9934C97.8632 5.02393 97.7804 5.08653 97.741 5.21565L93.5442 18.2373C93.5166 18.3273 93.5245 18.3938 93.5639 18.4407C93.6033 18.4838 93.6625 18.5072 93.7374 18.5072H96.2027C96.3328 18.5072 96.4157 18.4446 96.4551 18.3155L97.0192 16.4257C97.0428 16.3748 97.0783 16.3474 97.1178 16.3474H101.894C101.934 16.3474 101.965 16.3748 101.993 16.4257L102.577 18.3155C102.616 18.4446 102.699 18.5072 102.829 18.5072H105.294C105.436 18.5072 105.507 18.4486 105.507 18.3351C105.507 18.296 105.5 18.2647 105.488 18.2373L101.295 5.21565ZM101.216 14.2502H97.7962C97.7331 14.2502 97.7055 14.2111 97.7173 14.1328L99.4252 8.41236C99.437 8.37324 99.4568 8.34976 99.4844 8.34585C99.512 8.33802 99.5278 8.3615 99.5435 8.41236L101.291 14.1328C101.315 14.2111 101.291 14.2502 101.212 14.2502" fill="#EAEAEA"/>
<path d="M115.365 12.7753C114.942 12.2667 114.473 11.8872 113.948 11.6289C113.424 11.3707 112.702 11.0772 111.783 10.7407C110.955 10.4473 110.343 10.2125 109.949 10.0364C109.554 9.86426 109.255 9.66863 109.057 9.44951C108.856 9.2304 108.758 8.96042 108.758 8.63958C108.758 8.18961 108.927 7.83746 109.27 7.57922C109.614 7.32098 110.091 7.19577 110.698 7.19577C111.475 7.19577 112.087 7.38358 112.532 7.76312C112.978 8.14266 113.203 8.60045 113.203 9.14041V9.293C113.203 9.35561 113.227 9.41039 113.27 9.45734C113.313 9.50429 113.369 9.52386 113.436 9.52386H115.668C115.731 9.52386 115.787 9.50038 115.834 9.45734C115.877 9.4143 115.901 9.35952 115.901 9.293V9.00346C115.901 8.18178 115.684 7.45793 115.25 6.8358C114.816 6.21367 114.213 5.72849 113.444 5.38026C112.674 5.03202 111.795 4.85986 110.813 4.85986C109.882 4.85986 109.057 5.01246 108.348 5.32157C107.634 5.63067 107.077 6.07281 106.679 6.6519C106.277 7.23099 106.076 7.90398 106.076 8.67479C106.076 9.4456 106.281 10.1186 106.687 10.6507C107.093 11.1829 107.598 11.6054 108.202 11.9145C108.805 12.2237 109.539 12.5249 110.406 12.8184C111.183 13.1001 111.748 13.3231 112.106 13.4836C112.461 13.644 112.745 13.8318 112.951 14.0431C113.156 14.2544 113.262 14.5165 113.262 14.8217C113.262 15.2443 113.093 15.6003 112.757 15.8899C112.422 16.1794 111.909 16.3242 111.223 16.3242C110.406 16.3242 109.76 16.1481 109.282 15.796C108.805 15.4438 108.564 15.0095 108.564 14.497V14.2074C108.564 14.1448 108.541 14.09 108.497 14.0431C108.45 13.9961 108.399 13.9766 108.332 13.9766H106.119C106.056 13.9766 106.001 14 105.953 14.0431C105.91 14.0861 105.886 14.1409 105.886 14.2074V14.63C105.886 15.4399 106.095 16.1481 106.517 16.7585C106.939 17.3689 107.539 17.8384 108.312 18.1632C109.089 18.4919 109.996 18.6562 111.03 18.6562C112.556 18.6562 113.767 18.308 114.662 17.6076C115.558 16.9072 116.004 15.9525 116.004 14.7474C116.004 13.9374 115.794 13.2801 115.372 12.7714" fill="#EAEAEA"/>
<path d="M44.0034 34.1076H38.1302C38.0711 34.1076 38.0593 34.0763 38.0948 34.0176L38.4576 33.5677C39.992 31.6856 41.1753 30.2066 42.0115 29.1267C43.1711 27.6281 43.751 26.3643 43.751 25.3313C43.751 24.7327 43.605 24.1966 43.3171 23.7232C43.0252 23.2498 42.6189 22.882 42.0943 22.6159C41.5697 22.3537 40.9544 22.2207 40.2563 22.2207C39.2544 22.2207 38.434 22.4985 37.7989 23.058C37.1639 23.6136 36.8404 24.3453 36.8286 25.2413V25.9261C36.8286 26.0474 36.8878 26.1061 37.0101 26.1061H37.6096C37.7319 26.1061 37.791 26.0474 37.791 25.9261V25.3509C37.7792 24.6662 38.0001 24.1184 38.4537 23.6958C38.9073 23.2771 39.5068 23.0659 40.2563 23.0659C41.0057 23.0659 41.6131 23.2771 42.0785 23.6958C42.544 24.1145 42.7767 24.6662 42.7767 25.3509C42.7767 26.2039 42.2087 27.3581 41.0727 28.8215L39.424 30.907C39.0966 31.3139 38.7298 31.7835 38.3196 32.3078C37.9094 32.836 37.4439 33.4151 36.9233 34.0528C36.8759 34.1115 36.8523 34.1859 36.8523 34.268V34.7728C36.8523 34.8941 36.9114 34.9528 37.0337 34.9528H44.0113C44.1336 34.9528 44.1927 34.8941 44.1927 34.7728V34.2876C44.1927 34.1663 44.1336 34.1076 44.0113 34.1076" fill="#EAEAEA"/>
<path d="M50.0224 22.2051C48.9101 22.2051 48.0186 22.522 47.3481 23.1598C46.6776 23.7937 46.3423 24.6466 46.3423 25.7148V31.6113C46.3423 32.6795 46.6776 33.5325 47.3481 34.1742C48.0186 34.8159 48.9101 35.1367 50.0224 35.1367C51.1347 35.1367 52.0498 34.8159 52.7321 34.1742C53.4145 33.5325 53.7577 32.6795 53.7577 31.6113V25.7148C53.7577 24.6584 53.4145 23.8132 52.7321 23.1715C52.0498 22.5298 51.1465 22.209 50.0224 22.209M52.7953 31.6817C52.7953 32.4604 52.5428 33.0864 52.0419 33.5599C51.5409 34.0333 50.8665 34.272 50.0224 34.272C49.1783 34.272 48.5432 34.0372 48.0462 33.5599C47.5493 33.0864 47.3047 32.4604 47.3047 31.6817V25.66C47.3047 24.8814 47.5532 24.2514 48.0462 23.7741C48.5432 23.2928 49.2019 23.0541 50.0224 23.0541C50.8428 23.0541 51.5409 23.2928 52.0419 23.7741C52.5428 24.2554 52.7953 24.8814 52.7953 25.66V31.6817Z" fill="#EAEAEA"/>
<path d="M62.2735 27.7179C61.8515 27.4009 61.3308 27.2131 60.7155 27.1505C60.68 27.1388 60.6563 27.1231 60.6445 27.1075C60.6327 27.0879 60.6366 27.0684 60.6642 27.0449L63.4174 24.0594C63.4766 23.9773 63.5081 23.9029 63.5081 23.8442V22.5491C63.5081 22.4278 63.4489 22.3691 63.3267 22.3691H56.2939C56.1716 22.3691 56.1124 22.4278 56.1124 22.5491V23.6838C56.1124 23.8051 56.1716 23.8638 56.2939 23.8638H61.1139C61.1731 23.8638 61.1849 23.8951 61.1494 23.9538L58.0491 27.2444C58.0136 27.2914 57.9939 27.3344 57.9939 27.3696C57.9939 27.4048 58.0057 27.4479 58.0294 27.4948L58.7197 28.43C58.7552 28.4887 58.8025 28.52 58.8656 28.52C58.8893 28.52 58.9248 28.5082 58.976 28.4848C59.2916 28.3048 59.548 28.2148 59.757 28.2148C60.6287 28.2148 61.2322 28.5865 61.5714 29.3299C61.7647 29.8112 61.8594 30.3551 61.8594 30.9654C61.8594 31.5406 61.7805 32.0101 61.6227 32.3662C61.3072 33.1918 60.6918 33.6065 59.7728 33.6065C59.2758 33.6065 58.8617 33.4735 58.5303 33.2114C58.199 32.9492 57.9702 32.5931 57.8519 32.151C57.7809 31.9475 57.7296 31.6306 57.706 31.1963C57.706 31.075 57.6468 31.0163 57.5245 31.0163H56.1282C56.0059 31.0163 55.9468 31.075 55.9468 31.1963C55.9704 31.8184 56.0493 32.2997 56.1834 32.6362C56.4359 33.3913 56.8816 33.99 57.5166 34.436C58.1517 34.8782 58.905 35.1012 59.7728 35.1012C60.6406 35.1012 61.386 34.9017 62.0014 34.4987C62.6167 34.0956 63.0585 33.5244 63.3227 32.781C63.516 32.241 63.6107 31.6541 63.6107 31.0202C63.6107 30.2533 63.4884 29.5764 63.2478 28.9895C63.019 28.4613 62.6916 28.0387 62.2696 27.7218" fill="#EAEAEA"/>
<path d="M69.7597 22.2051C68.5409 22.2051 67.5706 22.5455 66.8488 23.2302C66.127 23.9149 65.772 24.8384 65.772 26.0004V31.3218C65.772 32.4839 66.1309 33.4112 66.8488 34.0998C67.5667 34.7885 68.537 35.1328 69.7597 35.1328C70.9825 35.1328 71.9567 34.7885 72.6864 34.0998C73.4161 33.4112 73.783 32.4839 73.783 31.3218V26.0004C73.783 24.8384 73.4161 23.9149 72.6864 23.2302C71.9567 22.5455 70.9785 22.2051 69.7597 22.2051ZM72.0435 31.4313C72.0435 32.1043 71.8384 32.6404 71.4282 33.0395C71.018 33.4425 70.4618 33.642 69.7597 33.642C69.0576 33.642 68.5409 33.4425 68.1268 33.0395C67.7165 32.6365 67.5114 32.1004 67.5114 31.4313V25.93C67.5114 25.257 67.7165 24.721 68.1268 24.3219C68.537 23.9189 69.0813 23.7193 69.7597 23.7193C70.4381 23.7193 71.018 23.9189 71.4282 24.3219C71.8384 24.7249 72.0435 25.2609 72.0435 25.93V31.4313Z" fill="#EAEAEA"/>
<path d="M180.131 0.152832C181.152 0.152832 181.708 0.246738 182.28 0.661489C182.793 1.02929 183.152 1.8001 183.152 2.57482C183.152 3.34955 182.793 4.11644 182.28 4.48815C181.712 4.9029 181.132 4.99681 180.131 4.99681H178.482V8.68262H178.135V0.152832H180.131ZM178.482 4.67597H180.142C181.105 4.67597 181.606 4.5625 182.095 4.20252C182.513 3.90124 182.805 3.22434 182.805 2.57873C182.805 1.93313 182.513 1.23275 182.095 0.931468C181.606 0.575409 181.121 0.458026 180.142 0.458026H178.482V4.67205V4.67597Z" fill="#EAEAEA"/>
<path d="M183.476 4.40184C183.476 1.85464 185.471 0 187.933 0C190.394 0 192.39 1.85464 192.39 4.41358C192.39 6.97251 190.394 8.82715 187.933 8.82715C185.471 8.82715 183.476 6.97251 183.476 4.41358V4.40184ZM183.823 4.42532C183.823 6.77688 185.657 8.51413 187.933 8.51413C190.209 8.51413 192.043 6.77296 192.043 4.41358C192.043 2.05419 190.209 0.31302 187.933 0.31302C185.657 0.31302 183.823 2.05419 183.823 4.41358V4.42532Z" fill="#EAEAEA"/>
<path d="M193.368 0.152832H195.332C196.669 0.152832 197.202 0.266302 197.62 0.508892C198.318 0.853213 198.862 1.78836 198.862 2.77828C198.886 3.30651 198.724 3.97558 198.318 4.50772C197.691 5.32548 196.973 5.43113 195.995 5.46243L198.306 8.67479H197.864L195.344 5.14941H195.588C196.216 5.14941 197.237 5.14941 197.781 4.60945C198.326 4.04601 198.511 3.4591 198.511 2.79002C198.511 2.05443 198.152 1.23666 197.49 0.810173C196.969 0.47759 196.342 0.465852 195.328 0.465852H193.715V8.67871H193.368V0.152832Z" fill="#EAEAEA"/>
<path d="M201.067 0.461939H198.732V0.152832H203.75V0.461939H201.415V8.67479H201.067V0.461939Z" fill="#EAEAEA"/>
<path d="M204.759 0.152832V5.68154C204.759 6.51104 204.759 7.03926 205.292 7.73182C205.663 8.217 206.373 8.51437 207.055 8.51437C207.737 8.51437 208.412 8.21309 208.786 7.73182C209.319 7.03926 209.319 6.51104 209.319 5.68154V0.152832H209.666V5.68154C209.678 6.45235 209.642 7.60661 208.633 8.30699C208.191 8.62784 207.623 8.82348 207.031 8.82348C206.44 8.82348 205.883 8.62784 205.442 8.30699C204.432 7.6027 204.396 6.45235 204.408 5.68154V0.152832H204.755H204.759Z" fill="#EAEAEA"/>
<path d="M218.683 2.03854C218.336 1.58857 217.929 1.22078 217.476 0.942972C216.813 0.528221 216.036 0.309107 215.2 0.309107C212.924 0.309107 211.09 2.05028 211.09 4.40966C211.09 6.76905 212.924 8.51022 215.2 8.51022C216.292 8.51022 217.255 8.11895 217.977 7.54377C218.706 6.95686 219.207 6.17431 219.357 5.38003H214.237V5.07092H219.775C219.728 5.50915 219.602 5.93564 219.404 6.32691C218.695 7.77854 217.093 8.82715 215.2 8.82715C212.739 8.82715 210.743 6.97251 210.743 4.41358C210.743 1.85464 212.739 0 215.2 0C216.778 0 218.324 0.770811 219.101 2.03854H218.683Z" fill="#EAEAEA"/>
<path d="M219.985 8.6748H219.614L223.294 0.148926H223.747L227.428 8.6748H227.057L225.767 5.70111H221.274L219.985 8.6748ZM223.515 0.473684L221.424 5.392H225.617L223.515 0.473684Z" fill="#EAEAEA"/>
<path d="M228.114 0.152832H228.461V8.36569H232.094V8.67479H228.11V0.152832H228.114Z" fill="#EAEAEA"/>
<path d="M177.271 36.8581C180.123 34.131 182.939 31.3725 185.759 28.6453C188.126 26.4385 190.627 24.2982 190.769 21.1602C190.769 17.8148 188.473 15.7098 185.483 15.7098C182.493 15.7098 180.336 18.0222 180.233 21.9193H177.484C177.555 19.4347 178.249 17.3296 179.709 15.7763C181.413 13.7416 183.953 13.1899 185.759 13.1899C190.524 13.1899 193.687 16.641 193.62 21.0233C193.518 23.7817 192.228 25.7146 189.692 28.3362C186.876 31.1299 184.059 33.9236 181.204 36.7212H193.691V39.1706H177.275V36.8581H177.271Z" fill="#EAEAEA"/>
<path d="M195.806 22.021C195.806 14.6377 201.998 13.1899 204.499 13.1899C208.637 13.1899 213.228 16.0189 213.228 21.8136V30.989C213.228 37.715 207.453 39.6127 204.602 39.6127C201.332 39.6127 195.802 37.5429 195.802 30.989V22.0171L195.806 22.021ZM198.693 31.0634C198.693 34.6514 201.233 37.1007 204.535 37.1007C207.213 37.1007 210.376 35.0309 210.376 31.0634V21.7471C210.376 19.2273 208.846 15.7098 204.464 15.7098C201.091 15.7098 198.689 18.1943 198.689 21.8841V31.0595L198.693 31.0634Z" fill="#EAEAEA"/>
<path d="M216.533 19.6773C216.707 15.0524 220.462 13.1899 223.491 13.1899C227.179 13.1899 230.169 15.6745 230.169 19.4699C230.169 22.021 228.638 23.817 226.623 24.8538C231.179 26.4072 231.806 30.0969 231.806 31.6855C231.806 36.3417 228.189 39.6205 223.353 39.6205C220.813 39.6205 218.135 38.5524 216.573 36.5138C215.496 35.1013 215.007 33.3406 214.971 31.6855H217.858C217.997 35.1013 220.639 37.1007 223.459 37.1007C226.867 37.1007 228.918 34.6161 228.918 31.6151C228.918 28.8879 226.694 26.1646 222.868 26.1646H221.164V23.9578H222.45C226.138 23.9578 227.317 21.3011 227.317 19.7829C227.317 17.4705 225.787 15.7137 223.456 15.7137C220.777 15.7137 219.491 17.7131 219.353 19.6812H216.537L216.533 19.6773Z" fill="#EAEAEA"/>
<path d="M234.133 22.021C234.133 14.6377 240.325 13.1899 242.826 13.1899C246.964 13.1899 251.555 16.0189 251.555 21.8136V30.989C251.555 37.715 245.781 39.6127 242.929 39.6127C239.659 39.6127 234.129 37.5429 234.129 30.989V22.0171L234.133 22.021ZM237.02 31.0634C237.02 34.6514 239.56 37.1007 242.862 37.1007C245.54 37.1007 248.703 35.0309 248.703 31.0634V21.7471C248.703 19.2273 247.173 15.7098 242.791 15.7098C239.418 15.7098 237.016 18.1943 237.016 21.8841V31.0595L237.02 31.0634Z" fill="#EAEAEA"/>
<path d="M147.953 36.146L159.951 40.0001L164.649 38.5758L164.637 29.9521L147.953 36.146Z" fill="#EAEAEA"/>
<path d="M154.307 0.0507812L142.793 12.5677V37.5936L145.862 30.3902L154.307 24.3489V0.0507812Z" fill="#EAEAEA"/>
<path d="M157.758 2.90717V26.145L147.953 32.9492L164.649 26.7945L172.277 19.3524V0L157.758 2.90717Z" fill="#EAEAEA"/>
<path fill-rule="evenodd" clip-rule="evenodd" d="M277.557 1.95264H332.403V38.2238H277.557V1.95264ZM303.81 9.8565L304.966 9.01918L306.126 9.8565L305.684 8.49878L306.859 7.66145H305.412L304.966 6.29199L304.524 7.66537L303.077 7.66145L304.252 8.49878L303.81 9.8565ZM297.823 11.4527L298.978 10.6115L300.134 11.4527L299.696 10.095L300.872 9.25765H299.42L298.978 7.88428L298.536 9.25765H297.085L298.26 10.095L297.823 11.4527ZM294.155 13.6165L294.596 12.2432L295.038 13.6165H296.49L295.314 14.4539L295.752 15.8077L294.596 14.9703L293.441 15.8077L293.878 14.4539L292.707 13.6165H294.155ZM292.987 20.902L294.147 21.7393L293.705 20.3855L294.88 19.5482H293.433L292.987 18.1748L292.545 19.5521L291.098 19.5482L292.273 20.3855L291.831 21.7393L292.987 20.902ZM294.596 24.126L295.038 25.4993H296.49L295.314 26.3367L295.752 27.6944L294.596 26.8532L293.441 27.6944L293.878 26.3367L292.707 25.4993L294.155 25.5033L294.596 24.126ZM299.432 29.8543L298.987 28.4849L298.545 29.8582L297.097 29.8543L298.269 30.6917L297.831 32.0494L298.987 31.212L300.142 32.0494L299.704 30.6917L300.88 29.8543H299.432ZM304.97 30.062L305.412 31.4354H306.859L305.684 32.2727L306.126 33.6265L304.97 32.7892L303.81 33.6265L304.252 32.2727L303.077 31.4354H304.524L304.97 30.062ZM311.395 29.8543L310.949 28.4849L310.508 29.8582L309.06 29.8543L310.232 30.6917L309.794 32.0494L310.949 31.212L312.109 32.0494L311.667 30.6917L312.843 29.8543H311.395ZM315.34 24.126L315.785 25.4993H317.233L316.057 26.3367L316.499 27.6944L315.34 26.8532L314.184 27.6944L314.626 26.3367L313.45 25.4993L314.898 25.5033L315.34 24.126ZM318.823 19.5326H317.375L316.929 18.1592L316.488 19.5326H315.04L316.215 20.3699L315.774 21.7237L316.929 20.8864L318.089 21.7237L317.647 20.3699L318.823 19.5326ZM315.34 14.9508L314.184 15.7881L314.626 14.4343L313.45 13.597L314.898 13.6009L315.34 12.2275L315.785 13.597H317.233L316.057 14.4343L316.499 15.7881L315.34 14.9508ZM310.969 7.88818L310.524 9.26156L309.076 9.25764L310.248 10.0989L309.81 11.4527L310.969 10.6115L312.125 11.4527L311.687 10.0989L312.859 9.25764H311.411L310.969 7.88818Z" fill="#EAEAEA"/>
<path d="M346.835 12.4505L348.598 13.0061C348.326 13.9804 347.88 14.7043 347.249 15.1777C346.622 15.6512 345.825 15.8859 344.859 15.8859C343.664 15.8859 342.682 15.4829 341.913 14.673C341.143 13.863 340.761 12.7557 340.761 11.3511C340.761 9.86421 341.147 8.71387 341.92 7.88828C342.693 7.0666 343.711 6.65576 344.969 6.65576C346.07 6.65576 346.965 6.98052 347.652 7.62612C348.062 8.00566 348.365 8.55736 348.571 9.26948L346.772 9.69597C346.665 9.23426 346.445 8.87038 346.105 8.6004C345.766 8.33042 345.356 8.19738 344.875 8.19738C344.208 8.19738 343.668 8.43606 343.25 8.9095C342.835 9.38295 342.626 10.1538 342.626 11.218C342.626 12.3449 342.832 13.1509 343.242 13.6283C343.652 14.1095 344.181 14.3482 344.839 14.3482C345.32 14.3482 345.739 14.1956 346.086 13.8904C346.433 13.5852 346.681 13.1079 346.835 12.4545" fill="#EAEAEA"/>
<path d="M349.742 12.4073C349.742 11.84 349.884 11.2883 350.164 10.7561C350.448 10.224 350.847 9.81708 351.363 9.53928C351.88 9.25756 352.46 9.1167 353.099 9.1167C354.085 9.1167 354.894 9.43363 355.525 10.0714C356.156 10.7053 356.471 11.5113 356.471 12.4777C356.471 13.4442 356.152 14.2659 355.517 14.9115C354.882 15.5532 354.081 15.8779 353.115 15.8779C352.519 15.8779 351.947 15.7449 351.407 15.4749C350.866 15.2088 350.452 14.8137 350.168 14.2972C349.884 13.7807 349.746 13.1507 349.746 12.4073M351.509 12.5012C351.509 13.1429 351.663 13.632 351.971 13.9763C352.278 14.3167 352.657 14.4889 353.107 14.4889C353.556 14.4889 353.935 14.3167 354.239 13.9763C354.546 13.6359 354.696 13.139 354.696 12.4895C354.696 11.84 354.546 11.3704 354.239 11.03C353.935 10.6896 353.556 10.5175 353.107 10.5175C352.657 10.5175 352.278 10.6857 351.971 11.03C351.663 11.3704 351.509 11.8634 351.509 12.5051" fill="#EAEAEA"/>
<path d="M357.106 9.26556H358.065V8.78038C358.065 8.23651 358.124 7.82959 358.238 7.56352C358.357 7.29354 358.57 7.07834 358.881 6.91009C359.193 6.74184 359.591 6.65576 360.069 6.65576C360.546 6.65576 361.039 6.7301 361.512 6.87488L361.28 8.06826C361.003 8.00175 360.743 7.97044 360.487 7.97044C360.23 7.97044 360.057 8.02914 359.95 8.1426C359.844 8.25999 359.789 8.4791 359.789 8.81168V9.26948H361.078V10.6155H359.789V15.7372H358.065V10.6155H357.106V9.26948V9.26556ZM361.95 6.80836H363.674V8.39302H361.95V6.80836ZM361.95 9.26556H363.674V15.7333H361.95V9.26556Z" fill="#EAEAEA"/>
<path d="M371.428 15.7331H369.705V12.4347C369.705 11.7343 369.669 11.2844 369.594 11.0809C369.519 10.8774 369.401 10.717 369.235 10.6035C369.07 10.4901 368.873 10.4314 368.636 10.4314C368.336 10.4314 368.068 10.5135 367.831 10.674C367.595 10.8344 367.433 11.0535 367.342 11.3196C367.255 11.5895 367.212 12.0826 367.212 12.8064V15.7331H365.488V9.26538H367.09V10.2162C367.658 9.48449 368.376 9.12061 369.239 9.12061C369.618 9.12061 369.969 9.18712 370.285 9.32407C370.6 9.46101 370.837 9.63318 370.999 9.84446C371.16 10.0558 371.275 10.2944 371.338 10.5644C371.401 10.8305 371.432 11.2139 371.432 11.7148V15.7331H371.428Z" fill="#EAEAEA"/>
<path d="M374.466 11.2374L372.9 10.9557C373.077 10.3297 373.377 9.86795 373.807 9.56667C374.237 9.26538 374.876 9.1167 375.72 9.1167C376.489 9.1167 377.061 9.20669 377.44 9.38668C377.814 9.56667 378.079 9.79752 378.236 10.0753C378.39 10.3531 378.465 10.8618 378.465 11.6052L378.445 13.6007C378.445 14.1681 378.473 14.5867 378.528 14.8567C378.584 15.1267 378.686 15.4162 378.84 15.7253H377.132C377.089 15.6119 377.033 15.4436 376.966 15.2206C376.939 15.1189 376.915 15.0523 376.903 15.021C376.607 15.3028 376.292 15.518 375.957 15.6588C375.621 15.7997 375.262 15.8701 374.884 15.8701C374.213 15.8701 373.685 15.6901 373.298 15.3262C372.912 14.9663 372.718 14.5085 372.718 13.9568C372.718 13.5929 372.805 13.2642 372.983 12.9786C373.16 12.6929 373.405 12.4738 373.72 12.3212C374.036 12.1686 374.493 12.0356 375.093 11.9221C375.897 11.7735 376.458 11.6326 376.769 11.5035V11.3352C376.769 11.0066 376.686 10.7718 376.525 10.6309C376.363 10.4901 376.051 10.4196 375.598 10.4196C375.29 10.4196 375.049 10.4783 374.88 10.5996C374.71 10.7209 374.568 10.9283 374.462 11.2296M376.773 12.6264C376.552 12.7008 376.201 12.7869 375.724 12.8886C375.247 12.9903 374.931 13.0881 374.785 13.186C374.56 13.3425 374.446 13.5459 374.446 13.7885C374.446 14.0311 374.537 14.2346 374.714 14.4106C374.896 14.5867 375.124 14.6728 375.4 14.6728C375.712 14.6728 376.008 14.5711 376.288 14.3676C376.497 14.2111 376.635 14.0233 376.698 13.8003C376.742 13.6555 376.765 13.3777 376.765 12.9668V12.6264H376.773Z" fill="#EAEAEA"/>
<path d="M386.097 15.7331H384.374V12.4347C384.374 11.7343 384.338 11.2844 384.263 11.0809C384.188 10.8774 384.07 10.717 383.904 10.6035C383.739 10.4901 383.542 10.4314 383.305 10.4314C383.005 10.4314 382.737 10.5135 382.5 10.674C382.264 10.8344 382.102 11.0535 382.011 11.3196C381.924 11.5895 381.881 12.0826 381.881 12.8064V15.7331H380.157V9.26538H381.759V10.2162C382.327 9.48449 383.045 9.12061 383.908 9.12061C384.287 9.12061 384.638 9.18712 384.954 9.32407C385.269 9.46101 385.506 9.63318 385.668 9.84446C385.829 10.0558 385.944 10.2944 386.007 10.5644C386.07 10.8305 386.101 11.2139 386.101 11.7148V15.7331H386.097Z" fill="#EAEAEA"/>
<path d="M393.528 11.1787L391.828 11.4839C391.773 11.1474 391.643 10.8931 391.438 10.7209C391.237 10.5527 390.972 10.4666 390.649 10.4666C390.219 10.4666 389.876 10.6153 389.62 10.9087C389.363 11.2022 389.237 11.6952 389.237 12.3838C389.237 13.1507 389.367 13.6946 389.627 14.0115C389.888 14.3285 390.235 14.485 390.673 14.485C391 14.485 391.268 14.3911 391.477 14.2072C391.686 14.0233 391.832 13.7063 391.919 13.2564L393.611 13.542C393.434 14.3128 393.098 14.8958 392.598 15.291C392.097 15.6862 391.43 15.8818 390.59 15.8818C389.635 15.8818 388.878 15.5845 388.31 14.9858C387.742 14.3872 387.458 13.5616 387.458 12.509C387.458 11.4565 387.742 10.6114 388.31 10.0166C388.878 9.42188 389.647 9.12451 390.617 9.12451C391.41 9.12451 392.041 9.29276 392.511 9.63317C392.98 9.97358 393.315 10.4901 393.52 11.1826" fill="#EAEAEA"/>
<path d="M394.838 6.80859H396.562V8.39326H394.838V6.80859ZM394.838 9.2658H396.562V15.7336H394.838V9.2658Z" fill="#EAEAEA"/>
<path d="M399.618 11.2374L398.053 10.9557C398.23 10.3297 398.53 9.86795 398.96 9.56667C399.39 9.26538 400.029 9.1167 400.873 9.1167C401.642 9.1167 402.214 9.20669 402.592 9.38668C402.967 9.56667 403.231 9.79752 403.389 10.0753C403.543 10.3531 403.618 10.8618 403.618 11.6052L403.598 13.6007C403.598 14.1681 403.626 14.5867 403.681 14.8567C403.736 15.1267 403.839 15.4162 403.993 15.7253H402.285C402.241 15.6119 402.186 15.4436 402.119 15.2206C402.092 15.1189 402.068 15.0523 402.056 15.021C401.76 15.3028 401.445 15.518 401.109 15.6588C400.774 15.7997 400.415 15.8701 400.037 15.8701C399.366 15.8701 398.837 15.6901 398.451 15.3262C398.064 14.9663 397.871 14.5085 397.871 13.9568C397.871 13.5929 397.958 13.2642 398.135 12.9786C398.313 12.6929 398.557 12.4738 398.873 12.3212C399.189 12.1686 399.646 12.0356 400.246 11.9221C401.05 11.7735 401.61 11.6326 401.922 11.5035V11.3352C401.922 11.0066 401.839 10.7718 401.677 10.6309C401.516 10.4901 401.204 10.4196 400.75 10.4196C400.443 10.4196 400.202 10.4783 400.033 10.5996C399.863 10.7209 399.721 10.9283 399.614 11.2296M401.926 12.6264C401.705 12.7008 401.354 12.7869 400.877 12.8886C400.399 12.9903 400.084 13.0881 399.938 13.186C399.713 13.3425 399.599 13.5459 399.599 13.7885C399.599 14.0311 399.689 14.2346 399.867 14.4106C400.048 14.5867 400.277 14.6728 400.553 14.6728C400.865 14.6728 401.161 14.5711 401.441 14.3676C401.65 14.2111 401.788 14.0233 401.851 13.8003C401.894 13.6555 401.918 13.3777 401.918 12.9668V12.6264H401.926Z" fill="#EAEAEA"/>
<path d="M411.302 15.7331H409.7V14.7823C409.436 15.1501 409.121 15.4279 408.758 15.6079C408.395 15.7879 408.032 15.8779 407.661 15.8779C406.912 15.8779 406.269 15.5766 405.736 14.9779C405.204 14.3793 404.936 13.5459 404.936 12.4738C404.936 11.4017 405.196 10.5448 405.717 9.97353C406.237 9.40227 406.892 9.11664 407.685 9.11664C408.414 9.11664 409.042 9.41792 409.574 10.0166V6.80029H411.298V15.7253L411.302 15.7331ZM406.695 12.3603C406.695 13.0489 406.789 13.5498 406.983 13.8589C407.259 14.3049 407.649 14.528 408.15 14.528C408.549 14.528 408.884 14.3597 409.164 14.0271C409.44 13.6906 409.582 13.1898 409.582 12.5246C409.582 11.7812 409.448 11.2491 409.176 10.9204C408.908 10.5917 408.56 10.4313 408.138 10.4313C407.716 10.4313 407.385 10.5917 407.109 10.9165C406.833 11.2373 406.695 11.7225 406.695 12.3642" fill="#EAEAEA"/>
<path d="M412.6 12.4073C412.6 11.84 412.742 11.2883 413.022 10.7561C413.306 10.224 413.704 9.81708 414.221 9.53928C414.737 9.25756 415.317 9.1167 415.956 9.1167C416.942 9.1167 417.751 9.43363 418.382 10.0714C419.013 10.7053 419.329 11.5113 419.329 12.4777C419.329 13.4442 419.009 14.2659 418.374 14.9115C417.739 15.5532 416.938 15.8779 415.972 15.8779C415.376 15.8779 414.804 15.7449 414.264 15.4749C413.724 15.2088 413.31 14.8137 413.026 14.2972C412.742 13.7807 412.604 13.1507 412.604 12.4073M414.371 12.5012C414.371 13.1429 414.524 13.632 414.832 13.9763C415.14 14.3167 415.518 14.4889 415.968 14.4889C416.418 14.4889 416.796 14.3167 417.1 13.9763C417.408 13.6359 417.558 13.139 417.558 12.4895C417.558 11.84 417.408 11.3704 417.1 11.03C416.796 10.6896 416.418 10.5175 415.968 10.5175C415.518 10.5175 415.14 10.6857 414.832 11.03C414.524 11.3704 414.371 11.8634 414.371 12.5051" fill="#EAEAEA"/>
<path d="M424.121 9.26538H425.73V10.2162C425.939 9.89142 426.219 9.62926 426.578 9.4258C426.933 9.22234 427.328 9.12061 427.762 9.12061C428.519 9.12061 429.162 9.41406 429.691 10.0049C430.219 10.5918 430.483 11.4135 430.483 12.466C430.483 13.5185 430.215 14.3832 429.687 14.9858C429.154 15.5845 428.511 15.8818 427.754 15.8818C427.395 15.8818 427.068 15.8114 426.776 15.6705C426.484 15.5297 426.176 15.2832 425.853 14.9389V18.1982H424.129V9.2732L424.121 9.26538ZM425.829 12.3917C425.829 13.1194 425.975 13.6555 426.263 14.0037C426.555 14.3519 426.906 14.5241 427.324 14.5241C427.742 14.5241 428.058 14.3637 428.326 14.0468C428.59 13.7298 428.724 13.2055 428.724 12.4777C428.724 11.8008 428.586 11.2961 428.314 10.9674C428.038 10.6388 427.699 10.4744 427.296 10.4744C426.894 10.4744 426.523 10.6348 426.247 10.9596C425.971 11.2804 425.829 11.7617 425.829 12.3917Z" fill="#EAEAEA"/>
<path d="M435.623 13.675L437.343 13.9607C437.122 14.5867 436.775 15.0602 436.297 15.3888C435.82 15.7136 435.225 15.8779 434.507 15.8779C433.375 15.8779 432.534 15.5101 431.99 14.7745C431.56 14.1876 431.343 13.4442 431.343 12.5443C431.343 11.4722 431.627 10.6348 432.191 10.0284C432.755 9.42189 433.469 9.1167 434.333 9.1167C435.303 9.1167 436.069 9.43363 436.629 10.0675C437.189 10.7014 437.457 11.6756 437.433 12.9864H433.114C433.126 13.4951 433.264 13.8902 433.532 14.172C433.797 14.4537 434.128 14.5945 434.526 14.5945C434.799 14.5945 435.023 14.5202 435.209 14.3754C435.394 14.2307 435.532 13.9959 435.627 13.6711M435.722 11.9456C435.71 11.4526 435.58 11.0731 435.335 10.8148C435.09 10.5566 434.791 10.4275 434.44 10.4275C434.061 10.4275 433.753 10.5644 433.505 10.8344C433.26 11.1083 433.138 11.4761 433.142 11.9417H435.722V11.9456Z" fill="#EAEAEA"/>
<path d="M440.565 6.80859H438.841V15.7336H440.565V6.80859Z" fill="#EAEAEA"/>
<path d="M443.622 11.2374L442.056 10.9557C442.233 10.3297 442.533 9.86795 442.963 9.56667C443.393 9.26538 444.032 9.1167 444.876 9.1167C445.645 9.1167 446.217 9.20669 446.596 9.38668C446.971 9.56667 447.235 9.79752 447.393 10.0753C447.547 10.3531 447.621 10.8618 447.621 11.6052L447.602 13.6007C447.602 14.1681 447.629 14.5867 447.685 14.8567C447.74 15.1267 447.842 15.4162 447.996 15.7253H446.288C446.245 15.6119 446.19 15.4436 446.123 15.2206C446.095 15.1189 446.071 15.0523 446.059 15.021C445.764 15.3028 445.448 15.518 445.113 15.6588C444.778 15.7997 444.419 15.8701 444.04 15.8701C443.369 15.8701 442.841 15.6901 442.454 15.3262C442.068 14.9663 441.875 14.5085 441.875 13.9568C441.875 13.5929 441.961 13.2642 442.139 12.9786C442.316 12.6929 442.561 12.4738 442.876 12.3212C443.192 12.1686 443.649 12.0356 444.249 11.9221C445.054 11.7735 445.614 11.6326 445.925 11.5035V11.3352C445.925 11.0066 445.843 10.7718 445.681 10.6309C445.519 10.4901 445.207 10.4196 444.754 10.4196C444.446 10.4196 444.206 10.4783 444.036 10.5996C443.866 10.7209 443.724 10.9283 443.618 11.2296M445.929 12.6264C445.708 12.7008 445.357 12.7869 444.88 12.8886C444.403 12.9903 444.087 13.0881 443.941 13.186C443.717 13.3425 443.602 13.5459 443.602 13.7885C443.602 14.0311 443.693 14.2346 443.87 14.4106C444.052 14.5867 444.281 14.6728 444.557 14.6728C444.868 14.6728 445.164 14.5711 445.444 14.3676C445.653 14.2111 445.791 14.0233 445.854 13.8003C445.898 13.6555 445.921 13.3777 445.921 12.9668V12.6264H445.929Z" fill="#EAEAEA"/>
<path d="M341.065 21.7705H342.883V26.6067C342.883 27.3736 342.907 27.8705 342.95 28.0974C343.029 28.4613 343.215 28.7548 343.507 28.9778C343.798 29.2008 344.201 29.3104 344.706 29.3104C345.21 29.3104 345.609 29.2047 345.873 28.9974C346.133 28.79 346.291 28.5317 346.346 28.2265C346.402 27.9214 346.425 27.4166 346.425 26.7123V21.7744H348.244V26.4619C348.244 27.534 348.192 28.2891 348.094 28.7313C347.995 29.1734 347.814 29.5491 347.549 29.8503C347.285 30.1555 346.934 30.3981 346.492 30.5781C346.051 30.7581 345.475 30.8481 344.761 30.8481C343.901 30.8481 343.25 30.7503 342.804 30.5507C342.359 30.3551 342.008 30.0968 341.751 29.7838C341.495 29.4708 341.325 29.1382 341.242 28.7939C341.124 28.2813 341.065 27.5262 341.065 26.5284V21.7666V21.7705Z" fill="#EAEAEA"/>
<path d="M356.073 30.6955H354.349V27.3971C354.349 26.6967 354.314 26.2468 354.239 26.0433C354.164 25.8398 354.046 25.6794 353.88 25.5659C353.714 25.4525 353.517 25.3938 353.28 25.3938C352.981 25.3938 352.712 25.4759 352.476 25.6364C352.239 25.7968 352.077 26.0159 351.987 26.282C351.9 26.5519 351.856 27.045 351.856 27.7688V30.6955H350.133V24.2278H351.734V25.1786C352.302 24.4469 353.02 24.083 353.884 24.083C354.263 24.083 354.614 24.1495 354.929 24.2865C355.245 24.4234 355.481 24.5956 355.643 24.8069C355.805 25.0182 355.919 25.2568 355.982 25.5268C356.045 25.7929 356.077 26.1763 356.077 26.6772V30.6955H356.073Z" fill="#EAEAEA"/>
<path d="M357.82 21.7705H359.544V23.3552H357.82V21.7705ZM357.82 24.2316H359.544V30.6994H357.82V24.2316Z" fill="#EAEAEA"/>
<path d="M362.601 26.2041L361.035 25.9224C361.213 25.2963 361.512 24.8346 361.942 24.5333C362.372 24.232 363.011 24.0834 363.855 24.0834C364.624 24.0834 365.196 24.1734 365.575 24.3533C365.95 24.5333 366.214 24.7642 366.368 25.042C366.522 25.3198 366.597 25.8324 366.597 26.5719L366.577 28.5674C366.577 29.1347 366.604 29.5534 366.66 29.8234C366.715 30.0933 366.817 30.3829 366.971 30.692H365.263C365.22 30.5785 365.165 30.4103 365.098 30.1872C365.07 30.0855 365.046 30.019 365.035 29.9877C364.739 30.2694 364.423 30.4846 364.088 30.6255C363.753 30.7663 363.394 30.8368 363.015 30.8368C362.345 30.8368 361.816 30.6568 361.429 30.2929C361.043 29.9329 360.85 29.4751 360.85 28.9234C360.85 28.5595 360.936 28.2309 361.114 27.9452C361.291 27.6596 361.536 27.4405 361.851 27.2879C362.167 27.1353 362.625 27.0023 363.224 26.8888C364.029 26.7401 364.589 26.5993 364.9 26.4701V26.3019C364.9 25.9732 364.818 25.7385 364.656 25.5976C364.494 25.4567 364.183 25.3863 363.729 25.3863C363.421 25.3863 363.181 25.445 363.011 25.5663C362.842 25.6876 362.7 25.895 362.593 26.1962M362.589 23.3595H361.804C361.8 23.2656 361.796 23.1913 361.796 23.1404C361.796 22.7139 361.899 22.3852 362.108 22.1583C362.317 21.9274 362.585 21.814 362.913 21.814C363.055 21.814 363.189 21.8296 363.311 21.8609C363.433 21.8922 363.658 21.9783 363.981 22.1231C364.309 22.2678 364.561 22.3383 364.747 22.3383C364.877 22.3383 364.987 22.2992 365.074 22.217C365.161 22.1348 365.22 21.9979 365.244 21.8101H366.04C366.04 22.3578 365.934 22.7491 365.733 22.9839C365.532 23.2186 365.267 23.336 364.952 23.336C364.814 23.336 364.676 23.3204 364.542 23.293C364.447 23.2695 364.21 23.1873 363.835 23.0426C363.457 22.9017 363.185 22.8313 363.011 22.8313C362.881 22.8313 362.778 22.8704 362.703 22.9487C362.629 23.0269 362.589 23.1639 362.585 23.3595M364.908 27.5931C364.687 27.6674 364.336 27.7535 363.859 27.8553C363.382 27.957 363.066 28.0548 362.92 28.1526C362.696 28.3091 362.581 28.5126 362.581 28.7552C362.581 28.9978 362.672 29.2012 362.849 29.3773C363.031 29.5534 363.26 29.6395 363.536 29.6395C363.847 29.6395 364.143 29.5377 364.423 29.3343C364.632 29.1817 364.77 28.9899 364.833 28.7669C364.877 28.6221 364.9 28.3443 364.9 27.9335V27.5931H364.908Z" fill="#EAEAEA"/>
<path d="M367.906 27.3736C367.906 26.8063 368.048 26.2546 368.328 25.7224C368.612 25.1903 369.011 24.7834 369.527 24.5056C370.044 24.2239 370.624 24.083 371.263 24.083C372.249 24.083 373.058 24.3999 373.689 25.0377C374.32 25.6716 374.635 26.4776 374.635 27.4441C374.635 28.4105 374.316 29.2322 373.681 29.8778C373.046 30.5195 372.245 30.8442 371.279 30.8442C370.683 30.8442 370.111 30.7112 369.571 30.4412C369.03 30.1752 368.616 29.78 368.332 29.2635C368.048 28.747 367.91 28.117 367.91 27.3736M369.673 27.4636C369.673 28.1053 369.827 28.5944 370.135 28.9387C370.442 29.2791 370.821 29.4513 371.271 29.4513C371.72 29.4513 372.099 29.2791 372.403 28.9387C372.71 28.5983 372.86 28.1014 372.86 27.4519C372.86 26.8024 372.71 26.3328 372.403 25.9924C372.099 25.652 371.72 25.4799 371.271 25.4799C370.821 25.4799 370.442 25.6481 370.135 25.9924C369.827 26.3328 369.673 26.8258 369.673 27.4675" fill="#EAEAEA"/>
<path d="M379.487 30.6955V21.7705H386.161V23.2808H381.305V25.2607H385.821V26.7632H381.305V29.193H386.33V30.6955H379.487Z" fill="#EAEAEA"/>
<path d="M392.148 30.6958V29.7294C391.912 30.0737 391.6 30.3476 391.213 30.5471C390.827 30.7467 390.417 30.8445 389.991 30.8445C389.565 30.8445 389.158 30.7506 388.811 30.5589C388.464 30.3671 388.212 30.1011 388.058 29.7528C387.9 29.4085 387.825 28.9311 387.825 28.3208V24.228H389.549V27.1978C389.549 28.1056 389.58 28.6651 389.644 28.8685C389.707 29.072 389.821 29.2363 389.991 29.3537C390.16 29.475 390.373 29.5337 390.63 29.5337C390.925 29.5337 391.19 29.4555 391.422 29.295C391.655 29.1346 391.813 28.9351 391.9 28.7003C391.986 28.4616 392.03 27.8825 392.03 26.9552V24.228H393.754V30.6958H392.152H392.148Z" fill="#EAEAEA"/>
<path d="M397.189 30.6955H395.465V24.2278H397.067V25.1473C397.343 24.713 397.587 24.4273 397.804 24.2904C398.025 24.1534 398.274 24.083 398.55 24.083C398.94 24.083 399.319 24.1887 399.686 24.4078L399.153 25.8985C398.861 25.7107 398.593 25.6168 398.345 25.6168C398.096 25.6168 397.899 25.6833 397.729 25.8124C397.56 25.9455 397.43 26.1842 397.335 26.5285C397.236 26.8728 397.189 27.5967 397.189 28.6961V30.6916V30.6955Z" fill="#EAEAEA"/>
<path d="M400.029 27.3736C400.029 26.8063 400.171 26.2546 400.451 25.7224C400.735 25.1903 401.133 24.7834 401.65 24.5056C402.167 24.2239 402.746 24.083 403.385 24.083C404.372 24.083 405.18 24.3999 405.811 25.0377C406.442 25.6716 406.758 26.4776 406.758 27.4441C406.758 28.4105 406.438 29.2322 405.803 29.8778C405.168 30.5195 404.368 30.8442 403.401 30.8442C402.806 30.8442 402.234 30.7112 401.693 30.4412C401.153 30.1752 400.739 29.78 400.455 29.2635C400.171 28.747 400.033 28.117 400.033 27.3736M401.8 27.4636C401.8 28.1053 401.954 28.5944 402.261 28.9387C402.569 29.2791 402.948 29.4513 403.397 29.4513C403.847 29.4513 404.226 29.2791 404.529 28.9387C404.837 28.5983 404.987 28.1014 404.987 27.4519C404.987 26.8024 404.837 26.3328 404.529 25.9924C404.226 25.652 403.847 25.4799 403.397 25.4799C402.948 25.4799 402.569 25.6481 402.261 25.9924C401.954 26.3328 401.8 26.8258 401.8 27.4675" fill="#EAEAEA"/>
<path d="M408.06 24.2317H409.669V25.1825C409.878 24.8577 410.158 24.5956 410.517 24.3921C410.872 24.1886 411.266 24.0869 411.7 24.0869C412.458 24.0869 413.1 24.3804 413.629 24.9712C414.158 25.5581 414.422 26.3798 414.422 27.4323C414.422 28.4848 414.154 29.3496 413.625 29.9521C413.093 30.5508 412.45 30.8481 411.692 30.8481C411.333 30.8481 411.006 30.7777 410.714 30.6369C410.422 30.496 410.115 30.2495 409.791 29.9052V33.1645H408.067V24.2395L408.06 24.2317ZM409.764 27.3541C409.764 28.0818 409.909 28.6179 410.197 28.9661C410.489 29.3143 410.84 29.4865 411.258 29.4865C411.677 29.4865 411.992 29.3261 412.26 29.0091C412.525 28.6922 412.659 28.1679 412.659 27.4401C412.659 26.7632 412.521 26.2585 412.248 25.9298C411.976 25.6011 411.637 25.4368 411.231 25.4368C410.825 25.4368 410.458 25.5972 410.182 25.922C409.906 26.2428 409.764 26.7241 409.764 27.3541Z" fill="#EAEAEA"/>
<path d="M419.561 28.6375L421.281 28.9231C421.06 29.5491 420.713 30.0226 420.236 30.3512C419.759 30.676 419.163 30.8403 418.445 30.8403C417.313 30.8403 416.473 30.4725 415.929 29.7369C415.499 29.15 415.282 28.4066 415.282 27.5067C415.282 26.4346 415.566 25.5972 416.13 24.9908C416.694 24.3843 417.408 24.0791 418.272 24.0791C419.242 24.0791 420.007 24.396 420.567 25.0299C421.127 25.6638 421.396 26.638 421.372 27.9488H417.053C417.065 28.4575 417.203 28.8527 417.471 29.1344C417.735 29.4161 418.066 29.5569 418.465 29.5569C418.737 29.5569 418.962 29.4826 419.147 29.3378C419.333 29.1931 419.471 28.9583 419.565 28.6335M419.66 26.908C419.648 26.415 419.518 26.0355 419.273 25.7772C419.029 25.519 418.729 25.3899 418.378 25.3899C418.003 25.3899 417.692 25.5268 417.447 25.7968C417.203 26.0707 417.08 26.4385 417.084 26.9041H419.664L419.66 26.908Z" fill="#EAEAEA"/>
<path d="M422.776 21.7705H424.5V23.3552H422.776V21.7705ZM422.776 24.2316H424.5V30.6994H422.776V24.2316Z" fill="#EAEAEA"/>
<path d="M427.56 26.2037L425.994 25.922C426.172 25.296 426.472 24.8343 426.902 24.533C427.332 24.2317 427.971 24.083 428.815 24.083C429.584 24.083 430.156 24.173 430.534 24.353C430.909 24.533 431.173 24.7638 431.331 25.0416C431.485 25.3194 431.56 25.832 431.56 26.5715L431.54 28.567C431.54 29.1344 431.568 29.553 431.623 29.823C431.678 30.093 431.781 30.3825 431.935 30.6916H430.227C430.183 30.5782 430.128 30.4099 430.061 30.1869C430.033 30.0852 430.01 30.0186 429.998 29.9873C429.702 30.2691 429.387 30.4843 429.051 30.6251C428.716 30.766 428.357 30.8364 427.978 30.8364C427.308 30.8364 426.779 30.6564 426.393 30.2925C426.006 29.9326 425.813 29.4748 425.813 28.9231C425.813 28.5592 425.9 28.2305 426.077 27.9449C426.255 27.6593 426.499 27.4401 426.815 27.2875C427.13 27.1349 427.588 27.0019 428.187 26.8884C428.992 26.7398 429.552 26.5989 429.864 26.4698V26.3015C429.864 25.9729 429.781 25.7381 429.619 25.5972C429.458 25.4564 429.146 25.386 428.692 25.386C428.385 25.386 428.144 25.4446 427.974 25.5659C427.805 25.6872 427.663 25.8946 427.556 26.1959M429.868 27.5927C429.647 27.6671 429.296 27.7532 428.819 27.8549C428.341 27.9566 428.026 28.0544 427.88 28.1523C427.655 28.3088 427.541 28.5122 427.541 28.7548C427.541 28.9974 427.631 29.2009 427.809 29.377C427.99 29.553 428.219 29.6391 428.495 29.6391C428.807 29.6391 429.103 29.5374 429.383 29.3339C429.592 29.1813 429.73 28.9896 429.793 28.7666C429.836 28.6218 429.86 28.344 429.86 27.9331V27.5927H429.868Z" fill="#EAEAEA"/>
</g>
<defs>
<clipPath id="clip0_806_14499">
<rect width="448" height="40" fill="white"/>
</clipPath>
</defs>
</svg>
