<svg width="112" height="112" viewBox="0 0 112 112" fill="none" xmlns="http://www.w3.org/2000/svg">
<g clip-path="url(#clip0_1_2)">
<path d="M112 0H0V112H112V0Z" fill="#E51B15"/>
<path fill-rule="evenodd" clip-rule="evenodd" d="M79.0613 41.3452L70.05 50.4875L61.844 42.1622C58.7623 39.0357 53.765 39.0357 50.6838 42.1623L50.6398 42.2096L42.4802 50.4875L33.4709 41.3473C30.3899 38.2206 25.3927 38.2206 22.3118 41.3472C19.2294 44.4749 19.2294 49.545 22.3118 52.6702L42.4802 73.1333L56.2653 59.1485L70.05 73.1333L90.2212 52.6685C93.304 49.5421 93.304 44.4726 90.2216 41.3453C87.14 38.2182 82.1425 38.2182 79.0613 41.3452Z" fill="white"/>
</g>
<defs>
<clipPath id="clip0_1_2">
<rect width="112" height="112" fill="white"/>
</clipPath>
</defs>
</svg>
