<svg width="407" height="40" viewBox="0 0 407 40" fill="none" xmlns="http://www.w3.org/2000/svg">
<path d="M273.128 0.937997V34.4413H323.122V0.937997H273.128ZM285.472 17.1904L286.792 17.1941L287.196 15.9225L287.6 17.1904H288.92L287.85 17.9637L288.25 19.2151L287.196 18.4418L286.14 19.2151L286.542 17.9637L285.47 17.1904H285.472ZM289.717 24.7131L288.661 23.938L287.606 24.7131L288.008 23.4618L286.937 22.6885H288.257L288.661 21.4206L289.065 22.6885H290.385L289.315 23.4618L289.717 24.7131ZM289.315 12.4841L289.717 13.7354L288.661 12.9621L287.606 13.7354L288.008 12.4841L286.937 11.7108H288.257L288.661 10.4429L289.065 11.7108H290.385L289.315 12.4841ZM292.253 7.68739L292.656 6.41761L293.06 7.68554H294.38L293.31 8.45885L293.71 9.71018L292.656 8.93687L291.601 9.71018L292.001 8.45885L290.931 7.68554H292.251L292.253 7.68739ZM293.72 28.7366L292.666 27.9632L291.61 28.7366L292.01 27.4852L290.94 26.7119H292.26L292.664 25.4458L293.068 26.7119H294.388L293.317 27.4852L293.718 28.7366H293.72ZM297.711 6.21275L298.115 4.94481L298.519 6.2109H299.839L298.767 6.98421L299.169 8.23554L298.113 7.46222L297.057 8.23554L297.46 6.98421L296.389 6.2109H297.709L297.711 6.21275ZM299.171 30.1946L298.117 29.4213L297.061 30.1946L297.461 28.9433L296.391 28.17H297.711L298.115 26.902L298.519 28.17H299.839L298.767 28.9433L299.169 30.1946H299.171ZM304.624 28.7366L303.568 27.9632L302.512 28.7366L302.913 27.4852L301.842 26.7119H303.162L303.568 25.4458L303.972 26.7119H305.292L304.22 27.4852L304.622 28.7366H304.624ZM304.238 8.4607L304.638 9.71202L303.585 8.93687L302.529 9.71202L302.929 8.4607L301.859 7.68554L303.179 7.68924L303.583 6.41946L303.987 7.68554H305.309L304.236 8.4607H304.238ZM307.167 11.6961L307.571 10.4263L307.976 11.6942H309.296L308.224 12.4675L308.626 13.7188L307.571 12.9455L306.515 13.7188L306.917 12.4675L305.845 11.6942H307.165L307.167 11.6961ZM308.626 24.7131L307.571 23.938L306.515 24.7131L306.917 23.4618L305.845 22.6885H307.165L307.571 21.4206L307.976 22.6885H309.296L308.224 23.4618L308.626 24.7131ZM310.075 19.2021L309.019 18.427L307.965 19.2021L308.366 17.9508L307.293 17.1775H308.613L309.017 15.9096L309.423 17.1775H310.743L309.671 17.9508L310.071 19.2021H310.075Z" fill="#EAEAEA"/>
<path d="M329.311 8.42047V0.936523H334.415V2.20261H330.815V3.9744H333.923V5.24048H330.815V8.42047H329.311Z" fill="#EAEAEA"/>
<path d="M335.643 2.26352V0.936523H337.07V2.26352H335.643ZM335.643 8.42047V2.99991H337.07V8.42047H335.643Z" fill="#EAEAEA"/>
<path d="M343.439 8.42021H342.013V5.65365C342.013 5.06859 341.981 4.69024 341.921 4.5186C341.86 4.34695 341.761 4.21407 341.623 4.1181C341.486 4.02213 341.32 3.97599 341.128 3.97599C340.88 3.97599 340.659 4.04428 340.463 4.18085C340.267 4.31743 340.133 4.49645 340.059 4.72161C339.986 4.94678 339.951 5.36204 339.951 5.9674V8.42206H338.524V3.00151H339.85V3.79696C340.32 3.18422 340.913 2.87785 341.627 2.87785C341.941 2.87785 342.229 2.93506 342.49 3.04949C342.751 3.16392 342.947 3.30972 343.081 3.4869C343.215 3.66408 343.307 3.86525 343.36 4.08857C343.414 4.31373 343.439 4.63487 343.439 5.05382V8.4239V8.42021Z" fill="#EAEAEA"/>
<path d="M345.953 4.65149L344.658 4.41709C344.803 3.89294 345.055 3.50536 345.409 3.25252C345.765 3.00151 346.292 2.87417 346.994 2.87417C347.631 2.87417 348.105 2.94983 348.415 3.10117C348.727 3.25251 348.945 3.44446 349.072 3.67885C349.199 3.9114 349.263 4.33958 349.263 4.96339L349.248 6.63736C349.248 7.11353 349.27 7.46604 349.316 7.6912C349.362 7.91821 349.447 8.15999 349.573 8.41837H348.162C348.125 8.3224 348.079 8.18214 348.024 7.99388C348 7.90899 347.983 7.85177 347.972 7.82593C347.728 8.06402 347.467 8.24304 347.19 8.36116C346.913 8.48112 346.616 8.54018 346.302 8.54018C345.747 8.54018 345.308 8.38884 344.989 8.08616C344.669 7.78348 344.51 7.3996 344.51 6.9382C344.51 6.63182 344.583 6.35867 344.728 6.11875C344.873 5.87882 345.077 5.69426 345.34 5.56691C345.602 5.43956 345.98 5.32883 346.474 5.23285C347.141 5.10735 347.603 4.98923 347.86 4.88034V4.73823C347.86 4.46323 347.792 4.26575 347.657 4.14948C347.521 4.03136 347.266 3.97415 346.889 3.97415C346.636 3.97415 346.437 4.02398 346.294 4.12549C346.153 4.22515 346.037 4.40233 345.949 4.65333L345.953 4.65149ZM347.862 5.81607C347.679 5.87697 347.39 5.9508 346.994 6.03569C346.597 6.12059 346.338 6.20364 346.217 6.2867C346.032 6.41958 345.938 6.58753 345.938 6.79239C345.938 6.99726 346.013 7.16705 346.162 7.31285C346.311 7.45866 346.5 7.53248 346.731 7.53248C346.988 7.53248 347.234 7.44758 347.467 7.27779C347.64 7.1486 347.754 6.98987 347.807 6.80347C347.844 6.68166 347.862 6.44726 347.862 6.10398V5.81607Z" fill="#EAEAEA"/>
<path d="M355.577 8.42021H354.151V5.65365C354.151 5.06859 354.119 4.69024 354.059 4.5186C353.998 4.34695 353.899 4.21407 353.761 4.1181C353.624 4.02213 353.458 3.97599 353.266 3.97599C353.018 3.97599 352.797 4.04428 352.601 4.18085C352.405 4.31743 352.271 4.49645 352.197 4.72161C352.124 4.94678 352.089 5.36204 352.089 5.9674V8.42206H350.662V3.00151H351.988V3.79696C352.458 3.18422 353.051 2.87785 353.765 2.87785C354.079 2.87785 354.367 2.93506 354.628 3.04949C354.889 3.16392 355.085 3.30972 355.219 3.4869C355.353 3.66408 355.445 3.86525 355.498 4.08857C355.552 4.31373 355.577 4.63487 355.577 5.05382V8.4239V8.42021Z" fill="#EAEAEA"/>
<path d="M361.728 4.60202L360.322 4.85671C360.274 4.57434 360.167 4.36209 359.998 4.21813C359.831 4.07602 359.613 4.00404 359.347 4.00404C358.99 4.00404 358.708 4.1277 358.497 4.37501C358.285 4.62232 358.179 5.03389 358.179 5.61341C358.179 6.25753 358.287 6.71155 358.502 6.97732C358.717 7.24309 359.005 7.37597 359.369 7.37597C359.639 7.37597 359.861 7.29846 360.033 7.14342C360.206 6.98839 360.329 6.72262 360.399 6.34428L361.8 6.5842C361.655 7.23017 361.375 7.71925 360.962 8.04962C360.549 8.37998 359.997 8.54424 359.301 8.54424C358.511 8.54424 357.883 8.29324 357.413 7.79308C356.945 7.29292 356.71 6.60081 356.71 5.71492C356.71 4.82903 356.945 4.12216 357.415 3.62385C357.885 3.12553 358.522 2.87638 359.325 2.87638C359.982 2.87638 360.503 3.01849 360.891 3.30271C361.278 3.58694 361.557 4.02065 361.726 4.60202H361.728Z" fill="#EAEAEA"/>
<path d="M362.809 2.26352V0.936523H364.236V2.26352H362.809ZM362.809 8.42047V2.99991H364.236V8.42047H362.809Z" fill="#EAEAEA"/>
<path d="M366.764 4.65149L365.47 4.41709C365.615 3.89294 365.866 3.50536 366.221 3.25252C366.577 3.00151 367.104 2.87417 367.805 2.87417C368.442 2.87417 368.916 2.94983 369.226 3.10117C369.538 3.25251 369.757 3.44446 369.884 3.67885C370.01 3.9114 370.075 4.33958 370.075 4.96339L370.06 6.63736C370.06 7.11353 370.082 7.46604 370.128 7.6912C370.174 7.91821 370.258 8.15999 370.385 8.41837H368.973C368.936 8.3224 368.89 8.18214 368.835 7.99388C368.811 7.90899 368.795 7.85177 368.784 7.82593C368.54 8.06402 368.279 8.24304 368.002 8.36116C367.724 8.48112 367.427 8.54018 367.113 8.54018C366.559 8.54018 366.12 8.38884 365.8 8.08616C365.481 7.78348 365.321 7.3996 365.321 6.9382C365.321 6.63182 365.394 6.35867 365.54 6.11875C365.685 5.87882 365.888 5.69426 366.151 5.56691C366.413 5.43956 366.792 5.32883 367.286 5.23285C367.952 5.10735 368.415 4.98923 368.672 4.88034V4.73823C368.672 4.46323 368.604 4.26575 368.468 4.14948C368.332 4.03136 368.077 3.97415 367.701 3.97415C367.447 3.97415 367.249 4.02398 367.106 4.12549C366.964 4.22515 366.849 4.40233 366.76 4.65333L366.764 4.65149ZM368.674 5.81607C368.49 5.87697 368.202 5.9508 367.805 6.03569C367.409 6.12059 367.15 6.20364 367.029 6.2867C366.843 6.41958 366.749 6.58753 366.749 6.79239C366.749 6.99726 366.825 7.16705 366.973 7.31285C367.122 7.45866 367.311 7.53248 367.543 7.53248C367.8 7.53248 368.046 7.44758 368.279 7.27779C368.451 7.1486 368.565 6.98987 368.619 6.80347C368.655 6.68166 368.674 6.44726 368.674 6.10398V5.81607Z" fill="#EAEAEA"/>
<path d="M376.429 8.42047H375.103V7.62501C374.883 7.93507 374.624 8.16577 374.323 8.31711C374.024 8.46845 373.721 8.54412 373.416 8.54412C372.797 8.54412 372.265 8.29312 371.824 7.79111C371.382 7.28911 371.162 6.58962 371.162 5.69081C371.162 4.792 371.376 4.07406 371.806 3.59605C372.236 3.11803 372.779 2.8781 373.436 2.8781C374.039 2.8781 374.56 3.12911 375.001 3.63296V0.936523H376.427V8.42047H376.429ZM372.619 5.59115C372.619 6.16882 372.698 6.58778 372.858 6.84616C373.088 7.22082 373.411 7.40723 373.824 7.40723C374.152 7.40723 374.431 7.26696 374.661 6.98643C374.89 6.7059 375.006 6.28694 375.006 5.72772C375.006 5.10575 374.894 4.65727 374.67 4.38228C374.446 4.10913 374.16 3.9707 373.813 3.9707C373.466 3.9707 373.19 4.10543 372.963 4.37674C372.733 4.64804 372.619 5.05223 372.619 5.5893V5.59115Z" fill="#EAEAEA"/>
<path d="M377.505 5.6315C377.505 5.15534 377.622 4.69394 377.856 4.2473C378.089 3.80066 378.421 3.46107 378.849 3.22668C379.277 2.99228 379.756 2.87417 380.283 2.87417C381.098 2.87417 381.768 3.13993 382.29 3.67331C382.811 4.20669 383.072 4.8785 383.072 5.69241C383.072 6.50632 382.809 7.19289 382.282 7.73181C381.755 8.27073 381.093 8.54018 380.294 8.54018C379.8 8.54018 379.328 8.4276 378.88 8.20244C378.432 7.97727 378.091 7.64876 377.858 7.21504C377.624 6.78132 377.507 6.25347 377.507 5.62966L377.505 5.6315ZM378.968 5.70902C378.968 6.24609 379.095 6.65766 379.348 6.94373C379.602 7.2298 379.916 7.37191 380.288 7.37191C380.661 7.37191 380.973 7.2298 381.225 6.94373C381.476 6.65766 381.603 6.2424 381.603 5.69795C381.603 5.15349 381.476 4.75853 381.225 4.47246C380.973 4.18639 380.659 4.04428 380.288 4.04428C379.918 4.04428 379.604 4.18639 379.348 4.47246C379.095 4.75853 378.968 5.1701 378.968 5.70717V5.70902Z" fill="#EAEAEA"/>
<path d="M387.038 2.99782H388.369V3.79328C388.541 3.52197 388.775 3.3005 389.07 3.12886C389.366 2.95906 389.691 2.87417 390.051 2.87417C390.677 2.87417 391.209 3.12148 391.646 3.61425C392.083 4.10703 392.302 4.79544 392.302 5.6758C392.302 6.55615 392.081 7.28517 391.642 7.78718C391.202 8.28918 390.669 8.54018 390.043 8.54018C389.746 8.54018 389.476 8.48112 389.234 8.36116C388.991 8.24119 388.736 8.03818 388.47 7.74842V10.4799H387.043V2.99782H387.038ZM388.45 5.61674C388.45 6.22579 388.569 6.67612 388.809 6.96773C389.05 7.25933 389.342 7.40513 389.689 7.40513C390.036 7.40513 390.297 7.27225 390.517 7.00464C390.737 6.73702 390.847 6.29962 390.847 5.69056C390.847 5.12212 390.734 4.69947 390.508 4.42448C390.28 4.14948 389.999 4.01106 389.665 4.01106C389.331 4.01106 389.026 4.14579 388.797 4.41709C388.567 4.6884 388.451 5.0889 388.451 5.61859L388.45 5.61674Z" fill="#EAEAEA"/>
<path d="M396.554 6.69457L397.975 6.9345C397.791 7.45865 397.503 7.8573 397.108 8.1323C396.714 8.40545 396.22 8.54387 395.628 8.54387C394.69 8.54387 393.996 8.23565 393.546 7.61922C393.19 7.12644 393.014 6.50263 393.014 5.75146C393.014 4.85265 393.247 4.14947 393.715 3.64009C394.182 3.1307 394.773 2.87785 395.487 2.87785C396.289 2.87785 396.923 3.14362 397.386 3.677C397.85 4.21038 398.07 5.02614 398.05 6.12428H394.475C394.485 6.55061 394.6 6.88098 394.821 7.11721C395.041 7.35345 395.314 7.47157 395.643 7.47157C395.867 7.47157 396.054 7.41067 396.207 7.28701C396.359 7.1652 396.475 6.96772 396.552 6.69457H396.554ZM396.636 5.24392C396.625 4.82866 396.519 4.51306 396.317 4.29712C396.115 4.08119 395.867 3.9723 395.575 3.9723C395.263 3.9723 395.006 4.08672 394.804 4.31373C394.6 4.54259 394.501 4.85081 394.505 5.24208H396.638L396.636 5.24392Z" fill="#EAEAEA"/>
<path d="M399.216 8.42047V0.936523H400.643V8.42047H399.216Z" fill="#EAEAEA"/>
<path d="M403.171 4.65149L401.876 4.41709C402.022 3.89294 402.273 3.50536 402.627 3.25252C402.984 3.00151 403.511 2.87417 404.212 2.87417C404.849 2.87417 405.323 2.94983 405.633 3.10117C405.945 3.25251 406.164 3.44446 406.29 3.67885C406.417 3.9114 406.481 4.33958 406.481 4.96339L406.467 6.63736C406.467 7.11353 406.489 7.46604 406.534 7.6912C406.58 7.91821 406.665 8.15999 406.792 8.41837H405.38C405.343 8.3224 405.297 8.18214 405.242 7.99388C405.218 7.90899 405.201 7.85177 405.19 7.82593C404.946 8.06402 404.686 8.24304 404.408 8.36116C404.131 8.48112 403.834 8.54018 403.52 8.54018C402.965 8.54018 402.526 8.38884 402.207 8.08616C401.887 7.78348 401.728 7.3996 401.728 6.9382C401.728 6.63182 401.801 6.35867 401.946 6.11875C402.091 5.87882 402.295 5.69426 402.558 5.56691C402.82 5.43956 403.198 5.32883 403.692 5.23285C404.359 5.10735 404.821 4.98923 405.078 4.88034V4.73823C405.078 4.46323 405.011 4.26575 404.875 4.14948C404.739 4.03136 404.484 3.97415 404.107 3.97415C403.854 3.97415 403.656 4.02398 403.512 4.12549C403.371 4.22515 403.255 4.40233 403.167 4.65333L403.171 4.65149ZM405.08 5.81607C404.897 5.87697 404.608 5.9508 404.212 6.03569C403.815 6.12059 403.556 6.20364 403.435 6.2867C403.25 6.41958 403.156 6.58753 403.156 6.79239C403.156 6.99726 403.231 7.16705 403.38 7.31285C403.529 7.45866 403.718 7.53248 403.949 7.53248C404.206 7.53248 404.452 7.44758 404.686 7.27779C404.858 7.1486 404.972 6.98987 405.025 6.80347C405.062 6.68166 405.08 6.44726 405.08 6.10398V5.81607Z" fill="#EAEAEA"/>
<path d="M329.291 13.4814H330.795V17.5344C330.795 18.1785 330.813 18.5938 330.85 18.7857C330.914 19.0921 331.066 19.3376 331.309 19.524C331.551 19.7104 331.881 19.8027 332.302 19.8027C332.722 19.8027 333.049 19.7159 333.268 19.5406C333.484 19.3652 333.615 19.1493 333.659 18.8946C333.703 18.6399 333.725 18.2154 333.725 17.623V13.4833H335.228V17.4144C335.228 18.3132 335.188 18.9481 335.107 19.3191C335.027 19.6901 334.876 20.0038 334.657 20.2585C334.439 20.5132 334.147 20.7181 333.782 20.8694C333.416 21.0208 332.939 21.0964 332.35 21.0964C331.639 21.0964 331.099 21.0134 330.732 20.8491C330.365 20.6849 330.075 20.4689 329.862 20.205C329.649 19.9411 329.507 19.6642 329.44 19.3763C329.34 18.9481 329.293 18.3151 329.293 17.4772V13.4851L329.291 13.4814Z" fill="#EAEAEA"/>
<path d="M341.708 20.9651H340.281V18.1986C340.281 17.6135 340.25 17.2352 340.189 17.0635C340.129 16.8919 340.03 16.759 339.892 16.663C339.754 16.567 339.589 16.5209 339.396 16.5209C339.148 16.5209 338.928 16.5892 338.732 16.7258C338.535 16.8623 338.401 17.0414 338.328 17.2665C338.254 17.4917 338.219 17.907 338.219 18.5123V20.967H336.793V15.5464H338.118V16.3419C338.588 15.7291 339.181 15.4228 339.896 15.4228C340.21 15.4228 340.498 15.48 340.759 15.5944C341.019 15.7088 341.216 15.8546 341.35 16.0318C341.484 16.209 341.576 16.4102 341.629 16.6335C341.682 16.8587 341.708 17.1798 341.708 17.5987V20.9688V20.9651Z" fill="#EAEAEA"/>
<path d="M343.155 14.8084V13.4814H344.581V14.8084H343.155ZM343.155 20.9654V15.5448H344.581V20.9654H343.155Z" fill="#EAEAEA"/>
<path d="M347.111 17.1981L345.817 16.9637C345.962 16.4395 346.213 16.052 346.568 15.7991C346.924 15.5481 347.451 15.4208 348.152 15.4208C348.789 15.4208 349.263 15.4964 349.573 15.6478C349.886 15.7991 350.104 15.9911 350.231 16.2254C350.357 16.458 350.422 16.8862 350.422 17.51L350.407 19.184C350.407 19.6601 350.429 20.0126 350.475 20.2378C350.521 20.4648 350.605 20.7066 350.732 20.965H349.32C349.283 20.869 349.237 20.7287 349.182 20.5405C349.158 20.4556 349.142 20.3984 349.131 20.3725C348.887 20.6106 348.626 20.7896 348.349 20.9078C348.072 21.0277 347.774 21.0868 347.46 21.0868C346.906 21.0868 346.467 20.9354 346.147 20.6328C345.828 20.3301 345.668 19.948 345.668 19.4848C345.668 19.1784 345.742 18.9053 345.887 18.6653C346.032 18.4254 346.236 18.2408 346.498 18.1135C346.761 17.9862 347.139 17.8754 347.633 17.7794C348.299 17.6539 348.762 17.5358 349.019 17.4269V17.2848C349.019 17.0098 348.951 16.8123 348.815 16.6961C348.679 16.578 348.424 16.5207 348.048 16.5207C347.794 16.5207 347.596 16.5706 347.453 16.6721C347.311 16.7717 347.196 16.9489 347.108 17.1999L347.111 17.1981ZM347.1 14.8136H346.45C346.447 14.736 346.445 14.6733 346.445 14.629C346.445 14.2709 346.531 13.9959 346.704 13.804C346.876 13.6121 347.098 13.5161 347.368 13.5161C347.488 13.5161 347.598 13.529 347.699 13.5548C347.8 13.5807 347.985 13.6527 348.255 13.7745C348.525 13.8944 348.734 13.9553 348.887 13.9553C348.995 13.9553 349.085 13.9221 349.158 13.8538C349.232 13.7855 349.278 13.6711 349.298 13.5124H349.959C349.955 13.972 349.871 14.3005 349.702 14.498C349.535 14.6954 349.318 14.7933 349.054 14.7933C348.938 14.7933 348.824 14.7822 348.714 14.7582C348.637 14.7379 348.441 14.6678 348.13 14.5496C347.818 14.4297 347.592 14.3706 347.449 14.3706C347.341 14.3706 347.256 14.4038 347.196 14.4703C347.135 14.5367 347.102 14.6511 347.098 14.8154L347.1 14.8136ZM349.021 18.3627C348.837 18.4236 348.549 18.4974 348.152 18.5823C347.756 18.6672 347.497 18.7502 347.376 18.8333C347.19 18.9662 347.097 19.1341 347.097 19.339C347.097 19.5438 347.172 19.7136 347.321 19.8594C347.469 20.0053 347.658 20.0791 347.89 20.0791C348.147 20.0791 348.393 19.9942 348.626 19.8244C348.799 19.6952 348.912 19.5365 348.966 19.3501C349.002 19.2282 349.021 18.9939 349.021 18.6506V18.3627Z" fill="#EAEAEA"/>
<path d="M351.499 18.1779C351.499 17.7017 351.617 17.2403 351.85 16.7937C352.083 16.3471 352.416 16.0075 352.843 15.7731C353.271 15.5387 353.75 15.4206 354.277 15.4206C355.093 15.4206 355.763 15.6863 356.284 16.2197C356.806 16.7531 357.066 17.4249 357.066 18.2388C357.066 19.0527 356.804 19.7393 356.277 20.2782C355.75 20.8171 355.087 21.0866 354.288 21.0866C353.794 21.0866 353.323 20.974 352.875 20.7488C352.427 20.5237 352.085 20.1952 351.852 19.7614C351.619 19.3277 351.501 18.7999 351.501 18.1761L351.499 18.1779ZM352.961 18.2554C352.961 18.7925 353.088 19.2041 353.341 19.4901C353.594 19.7762 353.908 19.9183 354.281 19.9183C354.654 19.9183 354.966 19.7762 355.217 19.4901C355.469 19.2041 355.596 18.7888 355.596 18.2443C355.596 17.6999 355.469 17.3049 355.217 17.0189C354.966 16.7328 354.652 16.5907 354.281 16.5907C353.91 16.5907 353.596 16.7328 353.341 17.0189C353.088 17.3049 352.961 17.7165 352.961 18.2536V18.2554Z" fill="#EAEAEA"/>
<path d="M361.082 20.9654V13.4814H366.603V14.7475H362.585V16.4067H366.324V17.6673H362.585V19.7048H366.744V20.9654H361.082Z" fill="#EAEAEA"/>
<path d="M371.558 20.1529C371.362 20.4426 371.103 20.6696 370.783 20.8376C370.464 21.0037 370.126 21.0886 369.77 21.0886C369.414 21.0886 369.083 21.0092 368.795 20.8487C368.507 20.6881 368.299 20.4648 368.171 20.175C368.042 19.8853 367.978 19.4866 367.978 18.9754V15.5444H369.404V18.036C369.404 18.7982 369.43 19.2651 369.483 19.4368C369.537 19.6084 369.632 19.745 369.77 19.8446C369.909 19.9443 370.084 19.996 370.299 19.996C370.543 19.996 370.761 19.9295 370.954 19.7948C371.147 19.6601 371.279 19.494 371.351 19.2947C371.422 19.0953 371.457 18.6081 371.457 17.8329V15.5462H372.884V20.9668H371.558V20.1529Z" fill="#EAEAEA"/>
<path d="M375.728 20.9651H374.301V15.5446H375.627V16.316C375.853 15.9525 376.058 15.7125 376.238 15.5963C376.42 15.48 376.626 15.4228 376.855 15.4228C377.18 15.4228 377.494 15.5132 377.795 15.6941L377.353 16.9454C377.112 16.7885 376.888 16.711 376.683 16.711C376.477 16.711 376.313 16.7664 376.174 16.8771C376.034 16.9878 375.926 17.1872 375.847 17.4769C375.768 17.7667 375.728 18.3721 375.728 19.2949V20.9688V20.9651Z" fill="#EAEAEA"/>
<path d="M378.08 18.1779C378.08 17.7017 378.197 17.2403 378.43 16.7937C378.663 16.3471 378.996 16.0075 379.424 15.7731C379.851 15.5387 380.331 15.4206 380.858 15.4206C381.673 15.4206 382.343 15.6863 382.864 16.2197C383.386 16.7531 383.646 17.4249 383.646 18.2388C383.646 19.0527 383.384 19.7393 382.857 20.2782C382.33 20.8171 381.667 21.0866 380.869 21.0866C380.375 21.0866 379.903 20.974 379.455 20.7488C379.007 20.5237 378.665 20.1952 378.432 19.7614C378.199 19.3277 378.081 18.7999 378.081 18.1761L378.08 18.1779ZM379.541 18.2554C379.541 18.7925 379.668 19.2041 379.921 19.4901C380.175 19.7762 380.489 19.9183 380.861 19.9183C381.234 19.9183 381.546 19.7762 381.798 19.4901C382.049 19.2041 382.176 18.7888 382.176 18.2443C382.176 17.6999 382.049 17.3049 381.798 17.0189C381.546 16.7328 381.232 16.5907 380.861 16.5907C380.49 16.5907 380.176 16.7328 379.921 17.0189C379.668 17.3049 379.541 17.7165 379.541 18.2536V18.2554Z" fill="#EAEAEA"/>
<path d="M384.722 15.5442H386.054V16.3397C386.226 16.0684 386.459 15.8469 386.755 15.6753C387.051 15.5055 387.376 15.4206 387.735 15.4206C388.361 15.4206 388.894 15.6679 389.331 16.1606C389.768 16.6534 389.986 17.3418 389.986 18.2222C389.986 19.1026 389.766 19.8316 389.327 20.3336C388.887 20.8356 388.354 21.0866 387.728 21.0866C387.431 21.0866 387.161 21.0275 386.918 20.9076C386.676 20.7876 386.421 20.5846 386.155 20.2948V23.0263H384.728V15.5424L384.722 15.5442ZM386.134 18.1631C386.134 18.7722 386.254 19.2225 386.494 19.5141C386.735 19.8057 387.027 19.9497 387.374 19.9497C387.721 19.9497 387.981 19.8168 388.202 19.5492C388.422 19.2816 388.532 18.8442 388.532 18.2351C388.532 17.6667 388.418 17.244 388.193 16.969C387.965 16.694 387.684 16.5556 387.35 16.5556C387.016 16.5556 386.711 16.6903 386.481 16.9616C386.252 17.2329 386.136 17.6334 386.136 18.1631H386.134Z" fill="#EAEAEA"/>
<path d="M394.239 19.2395L395.66 19.4794C395.476 20.0036 395.188 20.4022 394.793 20.6772C394.398 20.9504 393.904 21.0888 393.313 21.0888C392.375 21.0888 391.681 20.7806 391.231 20.1641C390.875 19.6714 390.699 19.0475 390.699 18.2964C390.699 17.3976 390.932 16.6944 391.4 16.185C391.866 15.6756 392.458 15.4228 393.172 15.4228C393.974 15.4228 394.608 15.6885 395.07 16.2219C395.535 16.7553 395.755 17.5711 395.735 18.6692H392.16C392.169 19.0937 392.285 19.4259 392.505 19.6621C392.726 19.8984 392.999 20.0165 393.328 20.0165C393.552 20.0165 393.739 19.9556 393.892 19.8319C394.044 19.7101 394.16 19.5126 394.237 19.2395H394.239ZM394.319 17.7907C394.308 17.3754 394.202 17.0598 394 16.8439C393.796 16.628 393.55 16.5191 393.258 16.5191C392.946 16.5191 392.689 16.6335 392.487 16.8605C392.283 17.0894 392.184 17.3976 392.188 17.7888H394.321L394.319 17.7907Z" fill="#EAEAEA"/>
<path d="M396.899 14.8084V13.4814H398.326V14.8084H396.899ZM396.899 20.9654V15.5448H398.326V20.9654H396.899Z" fill="#EAEAEA"/>
<path d="M400.856 17.1979L399.561 16.9635C399.706 16.4393 399.958 16.0518 400.312 15.7989C400.668 15.5479 401.195 15.4206 401.897 15.4206C402.534 15.4206 403.007 15.4962 403.318 15.6476C403.63 15.7989 403.848 15.9909 403.975 16.2252C404.102 16.4578 404.166 16.886 404.166 17.5098L404.151 19.1838C404.151 19.6599 404.173 20.0124 404.219 20.2376C404.265 20.4646 404.35 20.7064 404.476 20.9648H403.064C403.028 20.8688 402.982 20.7285 402.927 20.5403C402.903 20.4554 402.886 20.3982 402.875 20.3723C402.631 20.6104 402.37 20.7894 402.093 20.9076C401.816 21.0275 401.518 21.0866 401.204 21.0866C400.65 21.0866 400.211 20.9352 399.892 20.6326C399.572 20.3299 399.412 19.9478 399.412 19.4846C399.412 19.1782 399.486 18.9051 399.631 18.6651C399.776 18.4252 399.98 18.2406 400.242 18.1133C400.505 17.986 400.883 17.8752 401.377 17.7792C402.044 17.6537 402.506 17.5356 402.763 17.4267V17.2846C402.763 17.0096 402.695 16.8121 402.559 16.6959C402.424 16.5778 402.168 16.5205 401.792 16.5205C401.539 16.5205 401.34 16.5704 401.197 16.6719C401.056 16.7715 400.94 16.9487 400.852 17.1997L400.856 17.1979ZM402.765 18.3625C402.581 18.4234 402.293 18.4972 401.897 18.5821C401.5 18.667 401.241 18.75 401.12 18.8331C400.935 18.966 400.841 19.1339 400.841 19.3388C400.841 19.5436 400.916 19.7134 401.065 19.8592C401.214 20.0051 401.403 20.0789 401.634 20.0789C401.891 20.0789 402.137 19.994 402.37 19.8242C402.543 19.695 402.657 19.5363 402.71 19.3499C402.747 19.2281 402.765 18.9937 402.765 18.6504V18.3625Z" fill="#EAEAEA"/>
<path d="M329.304 34.4284V27.9596H330.178L333.558 33.0387V27.9596H334.375V34.4284H333.501L330.121 29.3456V34.4284H329.304Z" fill="#EAEAEA"/>
<path d="M338.895 32.9204L339.712 33.0219C339.584 33.5018 339.345 33.8727 338.996 34.1385C338.647 34.4024 338.203 34.5353 337.661 34.5353C336.98 34.5353 336.439 34.3249 336.04 33.9023C335.64 33.4796 335.442 32.8872 335.442 32.1268C335.442 31.3664 335.644 30.726 336.047 30.2904C336.451 29.8548 336.975 29.6371 337.619 29.6371C338.264 29.6371 338.752 29.8511 339.147 30.2775C339.541 30.7038 339.74 31.3036 339.74 32.077C339.74 32.1249 339.74 32.1951 339.736 32.2892H336.259C336.288 32.8041 336.433 33.1991 336.694 33.4722C336.954 33.7454 337.279 33.882 337.669 33.882C337.959 33.882 338.205 33.8063 338.41 33.6531C338.616 33.4999 338.778 33.2563 338.897 32.9204H338.895ZM336.301 31.6359H338.904C338.869 31.2409 338.77 30.9456 338.605 30.7481C338.353 30.4417 338.027 30.2886 337.626 30.2886C337.263 30.2886 336.958 30.4104 336.71 30.654C336.462 30.8976 336.327 31.2243 336.301 31.634V31.6359Z" fill="#EAEAEA"/>
<path d="M340.177 34.4285L341.88 31.9922L340.305 29.7425H341.293L342.009 30.8406C342.143 31.0491 342.251 31.2245 342.334 31.3666C342.463 31.1728 342.582 31.0012 342.69 30.8498L343.476 29.7425H344.42L342.81 31.948L344.543 34.4285H343.573L342.617 32.9723L342.362 32.5792L341.137 34.4285H340.177Z" fill="#EAEAEA"/>
<path d="M346.924 33.7199L347.038 34.4212C346.816 34.4673 346.617 34.4913 346.441 34.4913C346.155 34.4913 345.933 34.4452 345.775 34.3547C345.617 34.2643 345.505 34.1444 345.441 33.9949C345.376 33.8472 345.343 33.5335 345.343 33.0573V30.3609H344.763V29.7426H345.343V28.5817L346.129 28.1055V29.7426H346.924V30.3609H346.129V33.1016C346.129 33.3286 346.144 33.4744 346.171 33.539C346.199 33.6036 346.245 33.6553 346.307 33.694C346.37 33.7328 346.46 33.7512 346.577 33.7512C346.665 33.7512 346.781 33.7402 346.924 33.7199Z" fill="#EAEAEA"/>
<path d="M350.809 31.1338L353.536 31.1302V33.5313C353.117 33.8672 352.686 34.1182 352.241 34.288C351.797 34.4578 351.34 34.5408 350.872 34.5408C350.24 34.5408 349.665 34.4043 349.149 34.133C348.633 33.8617 348.242 33.4667 347.98 32.9518C347.717 32.4368 347.585 31.861 347.585 31.2261C347.585 30.5912 347.715 30.0099 347.978 29.4636C348.241 28.9173 348.617 28.5131 349.109 28.2473C349.601 27.9834 350.167 27.8505 350.807 27.8505C351.272 27.8505 351.694 27.9262 352.069 28.0775C352.445 28.2289 352.739 28.4393 352.954 28.7106C353.167 28.9819 353.33 29.3344 353.44 29.7699L352.673 29.9822C352.575 29.6537 352.456 29.3934 352.313 29.2052C352.17 29.0169 351.964 28.8656 351.698 28.753C351.432 28.6404 351.136 28.5832 350.811 28.5832C350.422 28.5832 350.086 28.6423 349.801 28.7622C349.517 28.8822 349.289 29.0372 349.114 29.2329C348.94 29.4267 348.804 29.6407 348.709 29.8733C348.545 30.2738 348.463 30.7075 348.463 31.1745C348.463 31.7503 348.562 32.2338 348.758 32.6214C348.957 33.009 349.243 33.2987 349.621 33.487C349.999 33.6752 350.4 33.7694 350.824 33.7694C351.193 33.7694 351.553 33.6974 351.903 33.5553C352.254 33.4132 352.52 33.26 352.702 33.0994V31.8942H350.809V31.1338Z" fill="#EAEAEA"/>
<path d="M357.881 32.9204L358.699 33.0219C358.57 33.5018 358.331 33.8727 357.982 34.1385C357.634 34.4024 357.189 34.5353 356.648 34.5353C355.967 34.5353 355.425 34.3249 355.026 33.9023C354.626 33.4796 354.428 32.8872 354.428 32.1268C354.428 31.3664 354.63 30.726 355.034 30.2904C355.438 29.8548 355.961 29.6371 356.605 29.6371C357.25 29.6371 357.738 29.8511 358.133 30.2775C358.528 30.7038 358.726 31.3036 358.726 32.077C358.726 32.1249 358.726 32.1951 358.722 32.2892H355.245C355.274 32.8041 355.419 33.1991 355.68 33.4722C355.941 33.7454 356.266 33.882 356.655 33.882C356.945 33.882 357.191 33.8063 357.397 33.6531C357.602 33.4999 357.764 33.2563 357.883 32.9204H357.881ZM355.287 31.6359H357.891C357.856 31.2409 357.757 30.9456 357.591 30.7481C357.34 30.4417 357.013 30.2886 356.613 30.2886C356.249 30.2886 355.944 30.4104 355.697 30.654C355.449 30.8976 355.313 31.2243 355.287 31.634V31.6359Z" fill="#EAEAEA"/>
<path d="M359.69 34.4283V29.7423H360.401V30.4085C360.744 29.8936 361.238 29.6371 361.884 29.6371C362.165 29.6371 362.424 29.6887 362.659 29.7902C362.894 29.8918 363.07 30.0246 363.188 30.1889C363.305 30.3532 363.386 30.5488 363.434 30.7758C363.463 30.9234 363.478 31.18 363.478 31.5473V34.4283H362.688V31.5768C362.688 31.2538 362.657 31.012 362.596 30.8515C362.536 30.6909 362.426 30.5636 362.27 30.4676C362.114 30.3716 361.93 30.3236 361.719 30.3236C361.383 30.3236 361.093 30.4307 360.847 30.6466C360.602 30.8607 360.479 31.2686 360.479 31.8684V34.4283H359.69Z" fill="#EAEAEA"/>
<path d="M367.881 32.9204L368.698 33.0219C368.569 33.5018 368.33 33.8727 367.981 34.1385C367.633 34.4024 367.188 34.5353 366.647 34.5353C365.966 34.5353 365.424 34.3249 365.025 33.9023C364.625 33.4796 364.427 32.8872 364.427 32.1268C364.427 31.3664 364.629 30.726 365.033 30.2904C365.437 29.8548 365.96 29.6371 366.604 29.6371C367.249 29.6371 367.737 29.8511 368.132 30.2775C368.527 30.7038 368.725 31.3036 368.725 32.077C368.725 32.1249 368.725 32.1951 368.721 32.2892H365.244C365.273 32.8041 365.418 33.1991 365.679 33.4722C365.94 33.7454 366.265 33.882 366.654 33.882C366.944 33.882 367.19 33.8063 367.396 33.6531C367.601 33.4999 367.763 33.2563 367.882 32.9204H367.881ZM365.286 31.6359H367.89C367.855 31.2409 367.756 30.9456 367.59 30.7481C367.339 30.4417 367.012 30.2886 366.612 30.2886C366.248 30.2886 365.944 30.4104 365.696 30.654C365.448 30.8976 365.312 31.2243 365.286 31.634V31.6359Z" fill="#EAEAEA"/>
<path d="M369.682 34.4283V29.7423H370.392V30.4528C370.574 30.1206 370.741 29.901 370.895 29.7958C371.049 29.6906 371.218 29.6371 371.402 29.6371C371.668 29.6371 371.938 29.722 372.214 29.8936L371.942 30.63C371.749 30.5156 371.556 30.4584 371.362 30.4584C371.189 30.4584 371.035 30.51 370.897 30.6152C370.759 30.7204 370.662 30.8644 370.603 31.0489C370.515 31.3313 370.471 31.6395 370.471 31.9754V34.4283H369.682Z" fill="#EAEAEA"/>
<path d="M375.726 33.8509C375.434 34.102 375.151 34.2773 374.881 34.3806C374.611 34.484 374.32 34.5357 374.009 34.5357C373.497 34.5357 373.104 34.4102 372.829 34.1592C372.553 33.9082 372.416 33.587 372.416 33.1958C372.416 32.9669 372.467 32.7565 372.572 32.5664C372.676 32.3763 372.812 32.225 372.979 32.1105C373.148 31.9961 373.337 31.9094 373.548 31.8503C373.703 31.8097 373.938 31.7691 374.252 31.7303C374.889 31.6547 375.359 31.5624 375.66 31.4572C375.664 31.3483 375.664 31.28 375.664 31.2505C375.664 30.9275 375.588 30.6986 375.439 30.5658C375.238 30.3867 374.938 30.2963 374.54 30.2963C374.167 30.2963 373.894 30.3609 373.717 30.4919C373.541 30.623 373.409 30.8537 373.324 31.1877L372.551 31.0825C372.621 30.7503 372.737 30.4809 372.898 30.2778C373.06 30.073 373.291 29.9161 373.596 29.8054C373.901 29.6946 374.253 29.6393 374.654 29.6393C375.054 29.6393 375.375 29.6873 375.623 29.7814C375.871 29.8755 376.055 29.9936 376.172 30.1376C376.29 30.2797 376.37 30.4606 376.418 30.6783C376.444 30.8131 376.457 31.0585 376.457 31.4111V32.4704C376.457 33.2087 376.473 33.6756 376.506 33.8713C376.539 34.0669 376.607 34.2551 376.706 34.4342H375.88C375.798 34.2699 375.746 34.0761 375.722 33.8565L375.726 33.8509ZM375.66 32.0773C375.373 32.1954 374.942 32.2951 374.369 32.3782C374.044 32.4261 373.815 32.4778 373.681 32.5369C373.547 32.5959 373.442 32.6808 373.368 32.7953C373.295 32.9078 373.258 33.0352 373.258 33.1718C373.258 33.384 373.337 33.5593 373.497 33.7015C373.657 33.8436 373.89 33.9137 374.197 33.9137C374.503 33.9137 374.771 33.8473 375.008 33.7125C375.245 33.5778 375.419 33.3951 375.529 33.1625C375.614 32.9835 375.656 32.7177 375.656 32.3689V32.0773H375.66Z" fill="#EAEAEA"/>
<path d="M379.409 33.7199L379.523 34.4212C379.301 34.4673 379.102 34.4913 378.926 34.4913C378.64 34.4913 378.418 34.4452 378.26 34.3547C378.102 34.2643 377.99 34.1444 377.925 33.9949C377.861 33.8472 377.828 33.5335 377.828 33.0573V30.3609H377.248V29.7426H377.828V28.5817L378.614 28.1055V29.7426H379.409V30.3609H378.614V33.1016C378.614 33.3286 378.629 33.4744 378.656 33.539C378.684 33.6036 378.73 33.6553 378.792 33.694C378.855 33.7328 378.944 33.7512 379.062 33.7512C379.15 33.7512 379.266 33.7402 379.409 33.7199Z" fill="#EAEAEA"/>
<path d="M380.186 28.8732V27.9596H380.975V28.8732H380.186ZM380.186 34.4284V29.7424H380.975V34.4284H380.186Z" fill="#EAEAEA"/>
<path d="M381.884 32.0862C381.884 31.2187 382.124 30.5765 382.604 30.1575C383.004 29.8105 383.492 29.6371 384.071 29.6371C384.711 29.6371 385.235 29.8475 385.642 30.2701C386.05 30.6927 386.252 31.276 386.252 32.0197C386.252 32.6233 386.162 33.0976 385.982 33.4427C385.802 33.7878 385.539 34.0573 385.196 34.2474C384.853 34.4393 384.476 34.5335 384.071 34.5335C383.419 34.5335 382.89 34.3231 382.488 33.9023C382.086 33.4815 381.884 32.8761 381.884 32.0843V32.0862ZM382.697 32.0862C382.697 32.686 382.828 33.1363 383.088 33.4353C383.349 33.7343 383.676 33.8838 384.073 33.8838C384.469 33.8838 384.79 33.7343 385.051 33.4335C385.312 33.1326 385.442 32.6768 385.442 32.0603C385.442 31.4808 385.312 31.0416 385.049 30.7426C384.787 30.4436 384.462 30.2941 384.073 30.2941C383.683 30.2941 383.349 30.4417 383.088 30.7389C382.828 31.036 382.697 31.4845 382.697 32.0843V32.0862Z" fill="#EAEAEA"/>
<path d="M387.179 34.4283V29.7423H387.89V30.4085C388.233 29.8936 388.727 29.6371 389.373 29.6371C389.654 29.6371 389.913 29.6887 390.148 29.7902C390.383 29.8918 390.559 30.0246 390.677 30.1889C390.794 30.3532 390.875 30.5488 390.923 30.7758C390.952 30.9234 390.967 31.18 390.967 31.5473V34.4283H390.177V31.5768C390.177 31.2538 390.146 31.012 390.086 30.8515C390.025 30.6909 389.915 30.5636 389.759 30.4676C389.603 30.3716 389.419 30.3236 389.208 30.3236C388.872 30.3236 388.582 30.4307 388.336 30.6466C388.092 30.8607 387.969 31.2686 387.969 31.8684V34.4283H387.179Z" fill="#EAEAEA"/>
<path d="M392.298 34.4284V27.9596H396.95V28.7237H393.148V30.7058H396.708V31.4644H393.148V33.6662H397.099V34.4303H392.296L392.298 34.4284Z" fill="#EAEAEA"/>
<path d="M402.499 27.9592H403.351V31.6966C403.351 32.3462 403.277 32.863 403.131 33.245C402.984 33.6271 402.721 33.939 402.337 34.1789C401.956 34.4189 401.454 34.5388 400.834 34.5388C400.213 34.5388 399.738 34.4336 399.354 34.2251C398.97 34.0165 398.697 33.7138 398.533 33.3189C398.37 32.9239 398.287 32.3831 398.287 31.6966V27.9592H399.139V31.6929C399.139 32.254 399.19 32.6692 399.295 32.935C399.4 33.2007 399.578 33.4056 399.831 33.5496C400.085 33.6935 400.393 33.7655 400.76 33.7655C401.386 33.7655 401.832 33.6234 402.099 33.3373C402.365 33.0513 402.499 32.5031 402.499 31.691V27.9574V27.9592Z" fill="#EAEAEA"/>
<path d="M59.7134 11.1438C59.7005 15.8704 55.8228 18.7016 51.7156 18.6905L48.2933 18.6813L48.2767 24.7847L43.2166 24.77L43.2772 3.52699L51.7597 3.55098C55.8669 3.56206 59.7281 6.41537 59.7152 11.1438M54.6533 11.1291C54.6588 9.39418 53.4103 8.34218 51.745 8.33849L48.3226 8.32927L48.3061 13.8938L51.7285 13.903C53.3956 13.9085 54.6478 12.8639 54.6533 11.1291Z" fill="#EAEAEA"/>
<path d="M69.0386 18.7403L66.5379 18.7329L66.5214 24.8363L61.4613 24.8215L61.5219 3.57858L70.0044 3.60258C74.1116 3.61365 77.9727 6.46696 77.9599 11.1954C77.9507 14.2167 76.368 16.4868 74.1318 17.7067L78.2188 24.8695L72.5344 24.8529L69.0404 18.7403H69.0386ZM66.5508 13.9454L69.9731 13.9546C71.6403 13.9601 72.8924 12.9155 72.8979 11.1806C72.9035 9.44577 71.655 8.39378 69.9897 8.39008L66.5673 8.38086L66.5508 13.9454Z" fill="#EAEAEA"/>
<path d="M88.1755 18.7941L85.6749 18.7867L85.6583 24.8901L80.5982 24.8753L80.6588 3.63239L89.1413 3.65638C93.2485 3.66745 97.1097 6.52076 97.0968 11.2492C97.0876 14.2705 95.505 16.5406 93.2687 17.7605L97.3557 24.9233L91.6713 24.9067L88.1755 18.7941ZM85.6895 14.001L89.1119 14.0102C90.779 14.0158 92.0312 12.9712 92.0367 11.2363C92.0422 9.50142 90.7937 8.44942 89.1284 8.44573L85.7061 8.4365L85.6895 14.001Z" fill="#EAEAEA"/>
<path d="M46.5637 28.9171C46.5619 29.755 45.9101 30.222 45.1683 30.2201H44.4486L44.4449 31.4382H43.784L43.795 27.6012L45.1757 27.6049C45.9174 27.6067 46.5655 28.0792 46.5637 28.9153M45.9027 28.9153C45.9027 28.4668 45.5925 28.2343 45.1738 28.2324H44.4541L44.4504 29.5908H45.1702C45.5888 29.5945 45.9009 29.3619 45.9027 28.9134" fill="#EAEAEA"/>
<path d="M47.3763 27.3967L47.365 31.4478L48.026 31.4496L48.0373 27.3985L47.3763 27.3967Z" fill="#EAEAEA"/>
<path d="M50.379 28.6699C50.8472 28.6699 51.2107 28.9209 51.3503 29.2347L51.3888 28.7271H52.0167L52.0094 31.4623H51.3815L51.3448 30.9529C51.2034 31.2648 50.838 31.514 50.3698 31.5121C49.5913 31.5103 49.0222 30.8699 49.0258 30.0873C49.0277 29.3048 49.5987 28.6681 50.379 28.6699ZM50.4855 30.8846C50.9482 30.8846 51.2768 30.5247 51.2768 30.0929C51.2768 29.661 50.9518 29.2974 50.4892 29.2974C50.0265 29.2974 49.6868 29.6573 49.6868 30.0892C49.6868 30.5211 50.0173 30.8846 50.4855 30.8846Z" fill="#EAEAEA"/>
<path d="M55.7861 29.8566L55.7825 31.4715H55.1215L55.1252 30.163C55.1252 29.5263 54.8956 29.3085 54.5303 29.3085C54.0676 29.3085 53.7922 29.6573 53.7757 30.1002L53.772 31.466H53.111L53.1184 28.7308H53.7408L53.772 29.1368C54.0364 28.8729 54.3797 28.6791 54.7892 28.681C55.4446 28.6828 55.788 29.111 55.7861 29.8566Z" fill="#EAEAEA"/>
<path d="M56.7261 30.1076C56.728 29.3251 57.3375 28.6883 58.1913 28.692C59.0395 28.6939 59.6399 29.3343 59.6381 30.1168C59.6363 30.8994 59.0322 31.5361 58.184 31.5324C57.3302 31.5306 56.7243 30.8901 56.7261 30.1076ZM58.9771 30.115C58.9771 29.6831 58.6521 29.3195 58.1895 29.3195C57.7213 29.3195 57.3871 29.6794 57.3871 30.1113C57.3871 30.5432 57.7176 30.9068 58.1858 30.9068C58.6485 30.9068 58.9771 30.5469 58.9771 30.115Z" fill="#EAEAEA"/>
<path d="M64.2098 28.7085C64.678 28.7085 65.0415 28.9595 65.1811 29.2732L65.1866 27.4479H65.8531L65.842 31.5009H65.2141L65.1774 30.9915C65.036 31.3034 64.6707 31.5525 64.2025 31.5507C63.424 31.5489 62.8548 30.9084 62.8585 30.1259C62.8622 29.3434 63.4313 28.7066 64.2117 28.7085M64.3163 30.9232C64.779 30.9232 65.1076 30.5633 65.1076 30.1314C65.1076 29.6996 64.7827 29.336 64.32 29.336C63.8573 29.336 63.5176 29.6959 63.5176 30.1277C63.5176 30.5596 63.8481 30.9232 64.3163 30.9232Z" fill="#EAEAEA"/>
<path d="M69.6114 30.349L67.5532 30.3434C67.5679 30.6793 67.8195 30.9709 68.2987 30.9728C68.642 30.9728 68.8642 30.7901 68.9707 30.6018L69.5508 30.6682C69.4701 31.0411 69.0441 31.5634 68.2913 31.5615C67.4523 31.5597 66.8904 30.9193 66.8923 30.1201C66.8941 29.3579 67.4339 28.7174 68.2564 28.7193C69.0955 28.7211 69.6133 29.3929 69.6114 30.1755V30.349ZM67.5551 29.8839L68.9523 29.8876C68.9321 29.5849 68.6695 29.308 68.2546 29.308C67.8525 29.308 67.5716 29.5701 67.5551 29.8839Z" fill="#EAEAEA"/>
<path d="M74.0712 30.32H73.3992L73.3955 31.5215H72.7345L72.7455 27.6845L74.1795 27.6882C74.8717 27.69 75.5161 28.1883 75.5143 29.0096C75.5143 29.5929 75.1838 30.0137 74.7432 30.2019L75.5455 31.5271H74.7982L74.0712 30.3182V30.32ZM73.401 29.6907H74.174C74.5449 29.6944 74.8515 29.436 74.8533 29.0096C74.8533 28.5778 74.5485 28.3175 74.1777 28.3157H73.4047L73.401 29.6907Z" fill="#EAEAEA"/>
<path d="M79.0248 30.377L76.9666 30.3714C76.9813 30.7073 77.2328 30.9989 77.712 31.0008C78.0554 31.0008 78.2775 30.8181 78.384 30.6298L78.9642 30.6963C78.8834 31.0691 78.4574 31.5914 77.7047 31.5895C76.8656 31.5877 76.3038 30.9473 76.3056 30.1481C76.3074 29.3859 76.8472 28.7454 77.6698 28.7473C78.5088 28.7491 79.0266 29.4209 79.0248 30.2035V30.377ZM76.9684 29.9119L78.3656 29.9156C78.3454 29.6129 78.0829 29.336 77.6679 29.336C77.253 29.336 76.9849 29.5981 76.9684 29.9119Z" fill="#EAEAEA"/>
<path d="M81.4355 29.384C81.0334 29.384 80.6295 29.6996 80.6276 30.1758C80.6276 30.6501 81.0279 30.9712 81.4318 30.9712C81.6833 30.9712 81.911 30.8863 82.1258 30.6815V31.3182C81.9404 31.4788 81.6723 31.5969 81.3216 31.5969C80.5156 31.5951 79.9263 30.9454 79.9281 30.1721C79.9299 29.4043 80.523 28.7528 81.329 28.7547C81.6778 28.7547 81.9459 28.8746 82.1295 29.0389V29.6701C81.9129 29.4634 81.687 29.3822 81.4355 29.3822" fill="#EAEAEA"/>
<path d="M85.8163 28.8251L85.8089 31.5584H85.1847L85.1535 31.1505C84.8891 31.4144 84.5512 31.6082 84.1363 31.6064C83.4808 31.6045 83.1375 31.1764 83.1393 30.4307L83.143 28.8158H83.804L83.8003 30.1244C83.8003 30.7611 84.0298 30.9789 84.3952 30.9789C84.867 30.9789 85.1479 30.6079 85.1498 30.1502L85.1535 28.8214H85.8144L85.8163 28.8251Z" fill="#EAEAEA"/>
<path d="M86.916 28.8281H87.5403L87.577 29.3375C87.722 29.0237 88.0837 28.7764 88.5519 28.7783C89.3304 28.7801 89.9051 29.4187 89.9014 30.2031C89.8996 30.9856 89.3231 31.6223 88.5428 31.6205C88.0746 31.6205 87.7165 31.3695 87.5715 31.0557L87.566 32.8054H86.905L86.916 28.8281ZM88.4363 30.9911C88.8989 30.9911 89.2331 30.6312 89.2331 30.1994C89.2331 29.7675 88.9026 29.4039 88.4399 29.4039C87.9717 29.4039 87.6486 29.7638 87.6486 30.1957C87.6486 30.6276 87.9681 30.9911 88.4363 30.9911Z" fill="#EAEAEA"/>
<path d="M93.467 30.4175L91.4088 30.412C91.4235 30.7479 91.675 31.0395 92.1542 31.0413C92.4976 31.0413 92.7197 30.8586 92.8262 30.6703L93.4064 30.7368C93.3256 31.1096 92.8997 31.6319 92.1469 31.6301C91.3078 31.6282 90.746 30.9878 90.7478 30.1886C90.7497 29.3895 91.2894 28.786 92.112 28.7878C92.9511 28.7897 93.4688 29.4615 93.467 30.244V30.4175ZM91.4106 29.9524L92.8079 29.9561C92.7877 29.6534 92.5251 29.3766 92.1102 29.3766C91.7081 29.3766 91.4272 29.6387 91.4106 29.9524Z" fill="#EAEAEA"/>
<path d="M96.0246 28.9189L95.9255 29.4965C95.8722 29.4633 95.7639 29.4264 95.6574 29.4264C95.303 29.4264 95.1084 29.7918 95.1066 30.3695L95.1029 31.5839H94.4419L94.4493 28.8487H95.0735L95.0992 29.1477C95.2718 28.9373 95.472 28.7971 95.6959 28.7989C95.852 28.7989 95.964 28.8598 96.0228 28.9189" fill="#EAEAEA"/>
<path d="M98.0295 28.8048C98.4977 28.8048 98.8613 29.0558 99.0008 29.3695L99.0394 28.862H99.6673L99.6599 31.5972H99.032L98.9953 31.0878C98.8539 31.3997 98.4885 31.6489 98.0204 31.647C97.2419 31.6452 96.6727 31.0047 96.6764 30.2222C96.6801 29.4397 97.2492 28.8029 98.0295 28.8048ZM98.136 31.0214C98.5987 31.0214 98.9274 30.6615 98.9274 30.2296C98.9274 29.7977 98.6024 29.4341 98.1397 29.4341C97.6715 29.4341 97.3374 29.794 97.3374 30.2259C97.3374 30.6578 97.6678 31.0214 98.136 31.0214Z" fill="#EAEAEA"/>
<path d="M101.281 30.2351C101.281 30.7094 101.681 31.0306 102.085 31.0306C102.337 31.0306 102.565 30.9457 102.779 30.7408V31.3775C102.621 31.5178 102.407 31.6193 102.126 31.6507L101.995 31.8722C102.328 31.8722 102.543 31.9921 102.543 32.2579C102.543 32.7821 101.654 32.747 101.386 32.747L101.505 32.4443C101.871 32.4443 102.177 32.4351 102.177 32.2671C102.177 32.1379 102.032 32.1103 101.856 32.1103L101.485 32.125L101.685 31.6286C101.035 31.492 100.58 30.9069 100.582 30.2314C100.583 29.4637 101.177 28.8122 101.983 28.8158C102.331 28.8158 102.599 28.9358 102.783 29.0982V29.7294C102.566 29.5227 102.341 29.4415 102.089 29.4415C101.685 29.4415 101.283 29.7571 101.281 30.2333" fill="#EAEAEA"/>
<path d="M105.036 28.8247C105.504 28.8247 105.868 29.0757 106.007 29.3895L106.046 28.8819H106.674L106.666 31.6171H106.038L106.002 31.1077C105.86 31.4197 105.495 31.6688 105.027 31.667C104.248 31.6651 103.679 31.0247 103.683 30.2422C103.686 29.4596 104.256 28.8229 105.036 28.8247ZM104.647 27.4571C105.054 27.4571 105.221 27.8263 105.543 27.8263C105.724 27.8263 105.833 27.7358 105.833 27.5402L106.38 27.6491C106.341 28.0274 106.152 28.3559 105.689 28.3541C105.282 28.3541 105.115 27.9905 104.793 27.9887C104.615 27.9887 104.509 28.1013 104.507 28.2747L103.954 28.1603C103.993 27.7875 104.182 27.4534 104.645 27.4553M105.142 31.0395C105.605 31.0395 105.934 30.6796 105.934 30.2477C105.934 29.8158 105.609 29.4522 105.146 29.4522C104.678 29.4522 104.344 29.8121 104.344 30.244C104.344 30.6759 104.674 31.0395 105.142 31.0395Z" fill="#EAEAEA"/>
<path d="M107.59 30.2535C107.592 29.471 108.201 28.8343 109.055 28.838C109.903 28.8398 110.504 29.4802 110.502 30.2628C110.5 31.0453 109.896 31.682 109.048 31.6783C108.194 31.6765 107.588 31.0361 107.59 30.2535ZM109.841 30.2591C109.841 29.8272 109.516 29.4636 109.053 29.4636C108.59 29.4636 108.251 29.8235 108.251 30.2554C108.251 30.6873 108.581 31.0508 109.049 31.0508C109.512 31.0508 109.841 30.6909 109.841 30.2591Z" fill="#EAEAEA"/>
<path d="M46.5784 36.6078L44.5202 36.6022C44.5349 36.9381 44.7864 37.2298 45.2656 37.2316C45.609 37.2316 45.8311 37.0489 45.9376 36.8606L46.5178 36.9271C46.437 37.2999 46.0111 37.8222 45.2583 37.8203C44.4192 37.8185 43.8574 37.1781 43.8592 36.3789C43.8611 35.5798 44.4009 34.9763 45.2234 34.9781C46.0625 34.98 46.5802 35.6518 46.5784 36.4343V36.6078ZM44.522 36.1445L45.9193 36.1482C45.8991 35.8455 45.6365 35.5687 45.2216 35.5687C44.8195 35.5687 44.5386 35.8308 44.522 36.1445Z" fill="#EAEAEA"/>
<path d="M51.04 36.5781H50.368L50.3643 37.7796H49.7033L49.7144 33.9426L51.1483 33.9463C51.8405 33.9481 52.4849 34.4464 52.4831 35.2677C52.4831 35.8509 52.1526 36.2717 51.712 36.46L52.5143 37.7851H51.767L51.04 36.5763V36.5781ZM50.3698 35.9488H51.1428C51.5137 35.9525 51.8203 35.6941 51.8221 35.2677C51.824 34.8414 51.5173 34.5756 51.1465 34.5738H50.3735L50.3698 35.9488Z" fill="#EAEAEA"/>
<path d="M55.9936 36.6351L53.9354 36.6295C53.9501 36.9654 54.2016 37.257 54.6808 37.2589C55.0242 37.2589 55.2463 37.0762 55.3528 36.8879L55.933 36.9543C55.8522 37.3272 55.4262 37.8495 54.6735 37.8476C53.8344 37.8458 53.2726 37.2053 53.2744 36.4062C53.2763 35.644 53.816 35.0035 54.6386 35.0054C55.4611 35.0072 55.9954 35.679 55.9936 36.4616V36.6351ZM53.9372 36.17L55.3344 36.1737C55.3143 35.871 55.0517 35.5941 54.6368 35.5941C54.2347 35.5941 53.9538 35.8562 53.9372 36.17Z" fill="#EAEAEA"/>
<path d="M57.4863 36.9746C57.523 37.1684 57.7323 37.2995 58.0555 37.3013C58.2813 37.3013 58.4851 37.2219 58.4851 37.054C58.4851 36.8381 58.2703 36.7938 57.7231 36.6147C57.2605 36.4726 56.9134 36.2456 56.9134 35.8027C56.9134 35.3117 57.4055 35.0146 57.9196 35.0164C58.5916 35.0183 58.9937 35.3985 59.0084 35.8562H58.3474C58.3327 35.655 58.1179 35.5664 57.9398 35.5664C57.7727 35.5664 57.5744 35.6458 57.5744 35.8027C57.5744 35.9762 57.7672 36.0131 58.3419 36.2161C58.9423 36.4228 59.1516 36.7199 59.1516 37.0724C59.1516 37.58 58.6558 37.8587 58.0371 37.8587C57.3486 37.8568 56.862 37.5634 56.8253 36.9746H57.4863Z" fill="#EAEAEA"/>
<path d="M60.099 34.3522C60.099 34.1639 60.2495 34.0126 60.4386 34.0126C60.6259 34.0126 60.7764 34.1639 60.7764 34.354C60.7764 34.5441 60.6259 34.6936 60.4368 34.6936C60.2495 34.6936 60.099 34.5423 60.099 34.3522ZM60.7618 37.8109H60.1008L60.1081 35.0757H60.7691L60.7618 37.8109Z" fill="#EAEAEA"/>
<path d="M61.9031 33.7594L61.8919 37.8105L62.5528 37.8124L62.5641 33.7613L61.9031 33.7594Z" fill="#EAEAEA"/>
<path d="M63.6296 34.3618C63.6296 34.1735 63.7802 34.0222 63.9693 34.0222C64.1584 34.0222 64.3071 34.1735 64.3071 34.3636C64.3071 34.5537 64.1566 34.7032 63.9675 34.7032C63.7784 34.7032 63.6296 34.5519 63.6296 34.3618ZM64.2906 37.8204H63.6296L63.637 35.0853H64.2979L64.2906 37.8204Z" fill="#EAEAEA"/>
<path d="M68.0343 36.6701L65.9761 36.6645C65.9908 37.0004 66.2423 37.2921 66.7215 37.2939C67.0649 37.2939 67.287 37.1112 67.3935 36.9229L67.9737 36.9894C67.8929 37.3622 67.467 37.8845 66.7142 37.8826C65.8751 37.8808 65.3133 37.2404 65.3151 36.4412C65.317 35.679 65.8568 35.0386 66.6793 35.0404C67.5184 35.0423 68.0361 35.7141 68.0343 36.4966V36.6701ZM66.3855 34.5366H65.7943L66.4406 33.6839H66.94L67.5771 34.5402H66.9914L66.6921 34.0512L66.3837 34.5366H66.3855ZM65.9779 36.205L67.3752 36.2087C67.355 35.906 67.0924 35.6292 66.6775 35.6292C66.2625 35.6292 65.9945 35.8912 65.9779 36.205Z" fill="#EAEAEA"/>
<path d="M71.6843 36.226L71.6806 37.8409H71.0196L71.0233 36.5324C71.0233 35.8956 70.7938 35.6779 70.4284 35.6779C69.9658 35.6779 69.6904 36.0267 69.6738 36.4696L69.6702 37.8354H69.0092L69.0165 35.1002H69.639L69.6702 35.5062C69.9346 35.2423 70.2779 35.0485 70.6873 35.0503C71.3428 35.0522 71.6861 35.4804 71.6843 36.226Z" fill="#EAEAEA"/>
<path d="M74.1299 35.6885C73.7278 35.6885 73.3239 36.0041 73.322 36.4803C73.322 36.9546 73.7223 37.2758 74.1262 37.2758C74.3778 37.2758 74.6054 37.1909 74.8202 36.986V37.6227C74.6348 37.7833 74.3667 37.9014 74.0161 37.9014C73.21 37.8996 72.6207 37.2499 72.6225 36.4766C72.6243 35.7088 73.2174 35.0573 74.0234 35.0592C74.3722 35.0592 74.6403 35.1791 74.8239 35.3434V35.9746C74.6073 35.7679 74.3814 35.6867 74.1299 35.6867" fill="#EAEAEA"/>
<path d="M75.8007 34.3964C75.8007 34.2082 75.9513 34.0568 76.1404 34.0568C76.3276 34.0568 76.4782 34.2082 76.4782 34.3983C76.4782 34.5884 76.3276 34.7379 76.1385 34.7379C75.9494 34.7379 75.8007 34.5865 75.8007 34.3964ZM76.4617 37.8551H75.8007L75.808 35.1199H76.469L76.4617 37.8551Z" fill="#EAEAEA"/>
<path d="M78.8393 35.0739C79.3075 35.0739 79.671 35.3249 79.8106 35.6387L79.8491 35.1311H80.4771L80.4697 37.8663H79.8418L79.8051 37.3569C79.6637 37.6689 79.2983 37.918 78.8301 37.9162C78.0517 37.9143 77.4825 37.2739 77.4862 36.4914C77.4898 35.7088 78.059 35.0721 78.8393 35.0739ZM78.9458 37.2905C79.4085 37.2905 79.7371 36.9306 79.7371 36.4987C79.7371 36.0669 79.4122 35.7033 78.9495 35.7033C78.4813 35.7033 78.1471 36.0632 78.1471 36.495C78.1471 36.9269 78.4776 37.2905 78.9458 37.2905Z" fill="#EAEAEA"/>
<path d="M6.66122 12.0779C7.51864 10.4759 10.7519 5.56841 18.2906 5.02765C17.3781 4.15283 16.2582 3.64898 14.7269 3.64344C14.1375 3.64344 13.4802 3.65636 12.7715 3.76156C12.0463 3.86861 11.3431 4.09192 10.6803 4.40383C10.3002 4.58286 9.9165 4.77849 9.53277 4.99443C9.53277 4.99443 9.53461 4.99258 9.53644 4.99074C9.42445 5.06456 9.31245 5.14023 9.20045 5.21405C6.5327 7.34204 6.1765 9.66935 6.66489 12.076L6.66122 12.0779Z" fill="#EAEAEA"/>
<path d="M6.97886 10.6347C6.90358 8.62113 7.71327 7.03206 9.50524 5.60356L9.74025 5.44853C10.1442 5.21783 10.5187 5.02773 10.8878 4.85239C11.5304 4.54971 12.1877 4.34854 12.8413 4.25073C13.5353 4.14922 14.1816 4.1363 14.7251 4.13814C15.5898 4.13999 16.3261 4.31163 16.9816 4.66783C11.4312 5.46514 8.37975 8.64143 6.97886 10.6347Z" fill="#EAEAEA"/>
<path d="M36.4269 24.1781C36.247 22.8179 35.7898 21.5334 35.0664 20.426C34.8828 20.1436 34.668 19.8668 34.433 19.6084C33.1056 18.1338 31.1025 17.2276 29.3344 16.4266C28.9066 16.2346 28.4879 16.0427 28.0895 15.8508C26.0295 14.8578 23.9768 13.6047 22.8991 11.1943C22.6787 10.7015 22.4676 10.218 22.262 9.73995C21.5771 8.1638 20.9363 6.68731 20.156 5.4526C19.5501 4.49104 18.6505 3.31723 17.211 2.64543C17.6737 2.61405 18.0813 2.60482 18.421 2.60667C19.2582 2.60852 19.8219 2.67311 19.9853 2.6971C20.011 2.70449 20.0385 2.71002 20.0642 2.71187C29.5657 3.60145 36.7097 11.5154 36.6822 21.1181C36.6785 22.1535 36.5922 23.1741 36.4233 24.1763L36.4269 24.1781Z" fill="#EAEAEA"/>
<path d="M9.32711 37.1414C3.60787 33.9208 -0.0182909 27.8358 6.93963e-05 21.0144C0.0110856 17.0242 1.26877 13.2315 3.63909 10.0441C4.16786 9.33359 4.74805 8.65994 5.37414 8.03243C5.12443 8.85926 5.01794 9.72301 5.07486 10.5646C5.20706 12.4933 5.98186 14.4441 6.6667 16.166L6.99168 16.9929C7.42498 18.1095 7.90419 19.4088 8.12451 20.7155C8.30628 21.8025 8.26038 22.9394 8.20162 23.8105C8.13736 24.7241 8.02904 25.6525 7.92438 26.5531L7.82707 27.3966C7.51495 30.1779 7.2983 33.0976 8.34484 35.5431C8.49539 35.8956 8.7965 36.4843 9.32528 37.1432L9.32711 37.1414Z" fill="#EAEAEA"/>
<path d="M28.8332 35.7923C27.4543 35.7886 26.1727 34.9249 24.9187 33.1513C24.1476 32.0624 23.4848 30.8572 22.8404 29.6907C22.6751 29.3899 22.5099 29.0909 22.3428 28.7938C21.254 26.8522 19.6071 23.9158 17.3892 23.0816C16.809 22.8638 16.1076 22.7513 15.3034 22.7494C13.5555 22.7439 11.6699 23.2274 9.88714 23.7202C9.70538 23.77 9.52545 23.8217 9.34368 23.8734C9.28125 24.7907 9.16926 25.7541 9.06093 26.6879C8.64415 30.2795 8.21268 33.9929 10.2801 36.5601C11.7636 38.4002 14.637 39.6312 18.5275 40.0003C23.3416 39.9542 27.726 38.0901 31.0327 35.0578C30.291 35.5469 29.5547 35.7942 28.8313 35.7923H28.8332Z" fill="#EAEAEA"/>
<path d="M18.5514 39.5037C14.8738 39.1494 12.0738 37.994 10.6656 36.2481C8.7286 33.8433 9.14721 30.2351 9.55297 26.7469C9.64845 25.9201 9.74759 25.0748 9.81369 24.259L9.96425 24.2147C11.7746 23.7146 13.6271 23.2402 15.3071 23.2439C16.0489 23.2458 16.6933 23.3473 17.2221 23.5448C19.2729 24.3199 20.8648 27.1585 21.9168 29.0355L22.4125 29.9287C23.0662 31.1155 23.7363 32.3299 24.5203 33.4372C25.8349 35.2958 27.2046 36.2296 28.7028 36.285C25.7266 38.3355 22.2032 39.4631 18.5532 39.5037H18.5514Z" fill="#EAEAEA"/>
<path d="M28.9359 34.7456C27.4579 34.7419 26.2223 33.2359 24.8618 30.9326C29.0443 28.7566 31.8681 24.652 32.4207 19.9752C32.9642 20.3978 33.381 20.8389 33.7041 21.3317C35.8394 24.6003 35.3327 28.8544 32.3473 32.7099L32.0792 33.0458C30.9097 34.1421 29.8081 34.7493 28.9359 34.7475V34.7456Z" fill="#EAEAEA"/>
<path d="M134.089 37.1004V27.8595C134.089 27.8595 125.805 28.5313 125.098 33.28C124.661 37.2739 134.089 37.1004 134.089 37.1004Z" fill="#EAEAEA"/>
<path d="M129.16 12.7266C129.16 12.7264 129.16 12.7268 129.16 12.7266Z" fill="#EAEAEA"/>
<path fill-rule="evenodd" clip-rule="evenodd" d="M132.773 13.6261C132.832 13.6261 132.877 13.6686 132.877 13.7276H132.879C132.879 13.7812 132.833 13.8236 132.775 13.8236H131.598C131.545 13.8236 131.497 13.7812 131.497 13.7276C131.497 13.6704 131.545 13.6261 131.598 13.6261H131.616L131.658 13.2127C131.605 13.2072 131.563 13.1647 131.563 13.1131C131.563 13.0558 131.611 13.0097 131.666 13.0097H131.675L131.684 12.8251H131.642C131.629 12.8251 131.618 12.8104 131.618 12.8011V12.6738H131.679V12.7402H131.767V12.6738H131.829V12.7402H131.914V12.6738H131.976V12.8048C131.976 12.8178 131.956 12.8251 131.956 12.8251H131.91L131.921 13.0097H132.037L132.06 12.6129H132.029C132.018 12.6129 132.009 12.5907 132.009 12.5907V12.4634H132.066V12.528H132.154V12.4634H132.217V12.528H132.299V12.4634H132.362V12.5963C132.362 12.6074 132.352 12.6129 132.341 12.6129H132.308L132.332 13.0097H132.446L132.455 12.8251H132.411C132.4 12.8251 132.391 12.8104 132.391 12.8011V12.6738H132.452V12.7402H132.536V12.6738H132.6V12.7402H132.685V12.6738H132.745V12.8048C132.745 12.8178 132.727 12.8251 132.727 12.8251H132.681L132.692 13.0097H132.703C132.762 13.0097 132.808 13.0558 132.808 13.1131C132.808 13.1666 132.769 13.209 132.71 13.2127L132.754 13.6261H132.773ZM132.185 13.2016C132.183 13.2016 131.919 13.2828 131.908 13.6261H132.463C132.45 13.2828 132.187 13.2016 132.185 13.2016Z" fill="#EAEAEA"/>
<path fill-rule="evenodd" clip-rule="evenodd" d="M133.805 16.8799L133.816 16.867V16.8689C133.858 16.8283 133.922 16.8283 133.963 16.8707C134.003 16.9095 134.003 16.9722 133.963 17.0147L133.133 17.8489C133.094 17.8913 133.03 17.8913 132.988 17.8489C132.947 17.8083 132.947 17.7437 132.988 17.7068L133 17.6939L132.742 17.3746C132.698 17.4041 132.637 17.4041 132.6 17.3653C132.558 17.3266 132.558 17.2601 132.6 17.2158L132.604 17.2103L132.486 17.0756L132.477 17.0811L132.453 17.1069C132.446 17.1162 132.426 17.1069 132.426 17.1069L132.332 17.0165L132.374 16.9741L132.422 17.0184L132.483 16.9575L132.437 16.9132L132.483 16.867L132.527 16.915L132.589 16.8523L132.538 16.8061L132.582 16.7637L132.674 16.8541C132.683 16.8652 132.674 16.8836 132.674 16.8836L132.648 16.9076L132.644 16.9169L132.78 17.0331L132.859 16.9519L132.598 16.6566L132.576 16.6806C132.567 16.6898 132.551 16.6898 132.547 16.6806L132.457 16.592L132.499 16.5477L132.545 16.5939L132.606 16.5293L132.56 16.485L132.604 16.4407L132.65 16.4868L132.71 16.4259L132.666 16.3779L132.71 16.3355L132.8 16.4296C132.81 16.4388 132.8 16.4591 132.8 16.4591L132.775 16.4794L133.07 16.7415L133.149 16.6622L133.03 16.5256L133.021 16.5367L133 16.557C132.993 16.5643 132.969 16.557 132.969 16.557L132.881 16.4665L132.925 16.4241L132.969 16.4684L133.03 16.4075L132.984 16.3613L133.03 16.317L133.074 16.3632L133.136 16.3023L133.09 16.2543L133.135 16.2155L133.224 16.306C133.234 16.3133 133.224 16.3336 133.224 16.3336L133.199 16.3595L133.191 16.365L133.325 16.4887L133.336 16.4776C133.373 16.4407 133.439 16.4407 133.482 16.4776C133.518 16.52 133.518 16.5773 133.489 16.6216L133.805 16.8799ZM133.103 16.9855C133.098 16.9959 132.973 17.2361 133.202 17.4853L133.601 17.0848C133.365 16.8702 133.146 16.9668 133.109 16.983C133.106 16.9843 133.104 16.9855 133.103 16.9855Z" fill="#EAEAEA"/>
<path fill-rule="evenodd" clip-rule="evenodd" d="M132.773 10.1084H131.598C131.545 10.1084 131.497 10.0623 131.497 10.0087C131.497 9.95152 131.545 9.90354 131.598 9.90354H131.616L131.658 9.49197C131.605 9.48828 131.563 9.44398 131.563 9.3923C131.563 9.33324 131.611 9.2908 131.666 9.2908H131.675L131.684 9.10439H131.642C131.629 9.10439 131.618 9.08409 131.618 9.08409V8.95305H131.679V9.01949H131.767V8.95305H131.829V9.01949H131.914V8.95305H131.976V9.08593C131.976 9.09701 131.956 9.10439 131.956 9.10439H131.91L131.921 9.2908H132.037L132.06 8.89399H132.029C132.018 8.8903 132.009 8.87184 132.009 8.87184V8.7445H132.066V8.8054H132.154V8.7445H132.217V8.8054H132.299V8.7445H132.362V8.87184C132.362 8.88661 132.352 8.89399 132.341 8.89399H132.308L132.332 9.2908H132.446L132.455 9.10439H132.411C132.4 9.10439 132.391 9.08409 132.391 9.08409V8.95305H132.452V9.01949H132.536V8.95305H132.6V9.01949H132.685V8.95305H132.745V9.08593C132.745 9.09701 132.727 9.10439 132.727 9.10439H132.681L132.692 9.2908H132.703C132.762 9.2908 132.808 9.3314 132.808 9.3923C132.808 9.44213 132.769 9.48828 132.71 9.49381L132.754 9.90354H132.773C132.832 9.90354 132.877 9.95337 132.877 10.0087C132.877 10.0623 132.832 10.1084 132.773 10.1084ZM132.463 9.90354C132.45 9.55841 132.185 9.48089 132.185 9.48089C132.183 9.48089 131.919 9.55656 131.908 9.90354H132.463Z" fill="#EAEAEA"/>
<path fill-rule="evenodd" clip-rule="evenodd" d="M139.917 10.1084H138.74C138.685 10.1084 138.641 10.0623 138.641 10.0087C138.641 9.95152 138.685 9.90354 138.74 9.90354H138.76L138.799 9.49197C138.744 9.48828 138.707 9.44398 138.707 9.3923C138.707 9.33324 138.749 9.2908 138.808 9.2908H138.817L138.828 9.10439H138.782C138.775 9.10439 138.764 9.08409 138.764 9.08409V8.95305H138.824V9.01949H138.911V8.95305H138.971V9.01949H139.059V8.95305H139.122V9.08593C139.122 9.09701 139.107 9.10439 139.098 9.10439H139.056L139.063 9.2908H139.181L139.204 8.89399H139.171C139.16 8.8903 139.151 8.87184 139.151 8.87184V8.7445H139.21V8.8054H139.294V8.7445H139.359V8.8054H139.445V8.7445H139.506V8.87184C139.506 8.88661 139.495 8.89399 139.484 8.89399H139.452L139.478 9.2908H139.588L139.599 9.10439H139.555C139.542 9.10439 139.535 9.08409 139.535 9.08409V8.95305H139.594V9.01949H139.68V8.95305H139.744V9.01949H139.829V8.95305H139.887V9.08593C139.887 9.09701 139.869 9.10439 139.869 9.10439H139.825L139.836 9.2908H139.847C139.902 9.2908 139.95 9.3314 139.95 9.3923C139.95 9.44213 139.908 9.48828 139.854 9.49381L139.898 9.90354H139.917C139.972 9.90354 140.016 9.95337 140.016 10.0087C140.016 10.0623 139.972 10.1084 139.917 10.1084ZM139.327 9.48089H139.324C139.322 9.48089 139.058 9.55656 139.047 9.90354H139.607C139.59 9.55841 139.327 9.48089 139.327 9.48089Z" fill="#EAEAEA"/>
<path fill-rule="evenodd" clip-rule="evenodd" d="M136.338 9.90538H136.364C136.419 9.90538 136.465 9.95521 136.465 10.0106C136.465 10.0641 136.419 10.1102 136.364 10.1102H135.189C135.132 10.1102 135.088 10.0641 135.088 10.0106C135.088 9.95337 135.13 9.90538 135.189 9.90538H135.202L135.244 9.49381C135.195 9.49012 135.152 9.44583 135.152 9.39415C135.152 9.33509 135.198 9.29264 135.257 9.29264H135.266L135.277 9.10623H135.231C135.222 9.10623 135.213 9.08593 135.213 9.08593V8.95489H135.27V9.02134H135.36V8.95489H135.417V9.02134H135.503V8.95489H135.567V9.08778C135.567 9.09885 135.543 9.10623 135.543 9.10623H135.499L135.512 9.29264H135.626L135.65 8.89584H135.617C135.606 8.89214 135.597 8.87369 135.597 8.87369V8.74634H135.652V8.80725H135.742V8.74634H135.802V8.80725H135.89V8.74634H135.951V8.87369C135.951 8.88845 135.929 8.89584 135.929 8.89584H135.898L135.918 9.29264H136.032L136.043 9.10623H135.999C135.99 9.10623 135.979 9.08593 135.979 9.08593V8.95489H136.039V9.02134H136.125V8.95489H136.186V9.02134H136.276V8.95489H136.333V9.08778C136.333 9.09885 136.324 9.10623 136.315 9.10623H136.269L136.28 9.29264H136.294C136.351 9.29264 136.395 9.33324 136.395 9.39415C136.395 9.44398 136.355 9.49012 136.302 9.49566L136.338 9.90538ZM135.771 9.48274C135.769 9.48274 135.505 9.55841 135.494 9.90538H136.05C136.037 9.56025 135.773 9.48274 135.771 9.48274Z" fill="#EAEAEA"/>
<path fill-rule="evenodd" clip-rule="evenodd" d="M139.147 17.0156L139.087 16.9575L139.133 16.9132L139.089 16.867L139.043 16.915L138.982 16.8523L139.026 16.8061L138.986 16.7637L138.894 16.8541C138.883 16.8652 138.885 16.8781 138.894 16.8836L138.918 16.9076L138.925 16.9169L138.789 17.0331L138.709 16.9519L138.969 16.6566L138.993 16.6806C139.002 16.6898 139.019 16.6898 139.023 16.6806L139.113 16.592L139.074 16.5477L139.028 16.5939L138.966 16.5293L139.01 16.485L138.966 16.4407L138.922 16.4868L138.859 16.4259L138.905 16.3779L138.865 16.3355L138.769 16.4296C138.769 16.4296 138.764 16.4536 138.775 16.4591L138.795 16.4794L138.499 16.7415L138.422 16.6622L138.54 16.5256L138.547 16.5367L138.571 16.557C138.58 16.5643 138.597 16.5643 138.599 16.557L138.69 16.4665L138.646 16.4241L138.602 16.4684L138.542 16.4075L138.588 16.3613L138.542 16.317L138.498 16.3632L138.433 16.3023L138.485 16.2543L138.441 16.2155L138.347 16.306C138.336 16.3133 138.34 16.3299 138.349 16.3336L138.369 16.3595L138.378 16.365L138.244 16.4887L138.233 16.4776C138.195 16.4407 138.129 16.4407 138.088 16.4776C138.048 16.52 138.048 16.5773 138.081 16.6216L137.765 16.8799L137.754 16.867C137.712 16.8264 137.651 16.8264 137.605 16.8689C137.569 16.9076 137.569 16.9704 137.605 17.0128L138.441 17.847C138.477 17.8895 138.542 17.8895 138.584 17.847C138.622 17.8083 138.622 17.7437 138.584 17.7049L138.569 17.692L138.83 17.3727C138.872 17.4022 138.931 17.4022 138.966 17.3635C139.008 17.3266 139.008 17.2583 138.966 17.214L138.96 17.2085L139.081 17.0737L139.091 17.0793L139.114 17.1051C139.124 17.1143 139.135 17.1125 139.144 17.1051L139.232 17.0147L139.19 16.9722L139.147 17.0156ZM137.971 17.0848L138.365 17.4853C138.595 17.2306 138.466 16.9851 138.466 16.9851H138.465C138.464 16.9851 138.464 16.9848 138.463 16.9843C138.44 16.9733 138.215 16.8633 137.971 17.0848Z" fill="#EAEAEA"/>
<path fill-rule="evenodd" clip-rule="evenodd" d="M139.898 13.6261H139.919C139.974 13.6261 140.018 13.6686 140.018 13.7276C140.018 13.7812 139.974 13.8236 139.919 13.8236H138.74C138.685 13.8236 138.641 13.7812 138.641 13.7276C138.641 13.6704 138.685 13.6261 138.74 13.6261H138.76L138.799 13.2127C138.744 13.2072 138.707 13.1647 138.707 13.1131C138.707 13.0558 138.749 13.0097 138.808 13.0097H138.817L138.828 12.8251H138.782C138.775 12.8251 138.764 12.8104 138.764 12.8011V12.6738H138.824V12.7402H138.911V12.6738H138.971V12.7402H139.059V12.6738H139.122V12.8048C139.122 12.8178 139.107 12.8251 139.098 12.8251H139.056L139.063 13.0097H139.181L139.204 12.6129H139.171C139.16 12.6129 139.151 12.5907 139.151 12.5907V12.4634H139.21V12.528H139.294V12.4634H139.359V12.528H139.445V12.4634H139.506V12.5963C139.506 12.6074 139.495 12.6129 139.484 12.6129H139.452L139.478 13.0097H139.588L139.599 12.8251H139.555C139.542 12.8251 139.535 12.8104 139.535 12.8011V12.6738H139.594V12.7402H139.68V12.6738H139.744V12.7402H139.829V12.6738H139.887V12.8048C139.887 12.8178 139.869 12.8251 139.869 12.8251H139.825L139.836 13.0097H139.847C139.902 13.0097 139.95 13.0558 139.95 13.1131C139.95 13.1666 139.908 13.209 139.854 13.2127L139.898 13.6261ZM139.326 13.2016C139.324 13.2016 139.059 13.2828 139.048 13.6261H139.607C139.59 13.2828 139.327 13.2016 139.327 13.2016H139.326Z" fill="#EAEAEA"/>
<path d="M135.775 13.5505C135.701 13.5505 135.641 13.6095 135.641 13.687C135.641 13.7609 135.701 13.8218 135.775 13.8218C135.848 13.8218 135.909 13.7627 135.909 13.687C135.909 13.6114 135.848 13.5505 135.775 13.5505Z" fill="#EAEAEA"/>
<path d="M135.47 13.2441C135.397 13.2441 135.336 13.3068 135.336 13.3807C135.336 13.4545 135.395 13.5154 135.47 13.5154C135.545 13.5154 135.606 13.4545 135.606 13.3807C135.606 13.3068 135.543 13.2441 135.47 13.2441Z" fill="#EAEAEA"/>
<path d="M136.078 13.2441C136.004 13.2441 135.944 13.3068 135.944 13.3807C135.944 13.4545 136.002 13.5154 136.078 13.5154C136.153 13.5154 136.214 13.4545 136.214 13.3807C136.214 13.3068 136.151 13.2441 136.078 13.2441Z" fill="#EAEAEA"/>
<path d="M135.336 13.9934C135.336 14.0672 135.397 14.13 135.47 14.13C135.545 14.13 135.606 14.0672 135.606 13.9934C135.606 13.9196 135.543 13.8587 135.47 13.8587C135.397 13.8587 135.336 13.9196 135.336 13.9934Z" fill="#EAEAEA"/>
<path d="M136.078 13.8568C136.004 13.8568 135.944 13.9177 135.944 13.9916C135.944 14.0654 136.002 14.1281 136.078 14.1281C136.153 14.1281 136.214 14.0654 136.214 13.9916C136.214 13.9177 136.151 13.8568 136.078 13.8568Z" fill="#EAEAEA"/>
<path d="M133.827 13.8568C133.751 13.8568 133.691 13.9177 133.691 13.9916C133.691 14.0654 133.753 14.1281 133.827 14.1281C133.9 14.1281 133.961 14.0654 133.961 13.9916C133.961 13.9177 133.902 13.8568 133.827 13.8568Z" fill="#EAEAEA"/>
<path d="M134.131 13.5505C134.058 13.5505 133.997 13.6095 133.997 13.687C133.997 13.7609 134.058 13.8218 134.131 13.8218C134.205 13.8218 134.267 13.7627 134.267 13.687C134.267 13.6114 134.205 13.5505 134.131 13.5505Z" fill="#EAEAEA"/>
<path d="M133.827 13.2441C133.751 13.2441 133.691 13.3068 133.691 13.3807C133.691 13.4545 133.753 13.5154 133.827 13.5154C133.9 13.5154 133.961 13.4545 133.961 13.3807C133.961 13.3068 133.902 13.2441 133.827 13.2441Z" fill="#EAEAEA"/>
<path d="M134.436 13.8568C134.361 13.8568 134.3 13.9177 134.3 13.9916C134.3 14.0654 134.363 14.1281 134.436 14.1281C134.51 14.1281 134.57 14.0654 134.57 13.9916C134.57 13.9177 134.512 13.8568 134.436 13.8568Z" fill="#EAEAEA"/>
<path d="M134.436 13.2441C134.361 13.2441 134.3 13.3068 134.3 13.3807C134.3 13.4545 134.363 13.5154 134.436 13.5154C134.51 13.5154 134.57 13.4545 134.57 13.3807C134.57 13.3068 134.512 13.2441 134.436 13.2441Z" fill="#EAEAEA"/>
<path d="M136.078 15.3075C136.004 15.3075 135.944 15.3665 135.944 15.4441C135.944 15.5179 136.002 15.5788 136.078 15.5788C136.153 15.5788 136.214 15.5197 136.214 15.4441C136.214 15.3684 136.151 15.3075 136.078 15.3075Z" fill="#EAEAEA"/>
<path d="M135.47 15.9221C135.397 15.9221 135.336 15.983 135.336 16.0568C135.336 16.1306 135.395 16.1934 135.47 16.1934C135.545 16.1934 135.606 16.1306 135.606 16.0568C135.606 15.983 135.543 15.9221 135.47 15.9221Z" fill="#EAEAEA"/>
<path d="M135.775 15.6157C135.701 15.6157 135.641 15.6748 135.641 15.7523C135.641 15.8261 135.701 15.887 135.775 15.887C135.848 15.887 135.909 15.8279 135.909 15.7523C135.909 15.6766 135.848 15.6157 135.775 15.6157Z" fill="#EAEAEA"/>
<path d="M135.47 15.3075C135.397 15.3075 135.336 15.3665 135.336 15.4441C135.336 15.5179 135.395 15.5788 135.47 15.5788C135.545 15.5788 135.606 15.5197 135.606 15.4441C135.606 15.3684 135.543 15.3075 135.47 15.3075Z" fill="#EAEAEA"/>
<path d="M136.078 15.9221C136.004 15.9221 135.944 15.983 135.944 16.0568C135.944 16.1306 136.002 16.1934 136.078 16.1934C136.153 16.1934 136.214 16.1306 136.214 16.0568C136.214 15.983 136.151 15.9221 136.078 15.9221Z" fill="#EAEAEA"/>
<path d="M135.47 11.7934C135.397 11.7934 135.336 11.8543 135.336 11.9282C135.336 12.002 135.395 12.0647 135.47 12.0647C135.545 12.0647 135.606 12.002 135.606 11.9282C135.606 11.8543 135.543 11.7934 135.47 11.7934Z" fill="#EAEAEA"/>
<path d="M136.078 11.7934C136.004 11.7934 135.944 11.8543 135.944 11.9282C135.944 12.002 136.002 12.0647 136.078 12.0647C136.153 12.0647 136.214 12.002 136.214 11.9282C136.214 11.8543 136.151 11.7934 136.078 11.7934Z" fill="#EAEAEA"/>
<path d="M135.47 11.1807C135.397 11.1807 135.336 11.2434 135.336 11.3173C135.336 11.3911 135.395 11.452 135.47 11.452C135.545 11.452 135.606 11.3911 135.606 11.3173C135.606 11.2434 135.543 11.1807 135.47 11.1807Z" fill="#EAEAEA"/>
<path d="M135.775 11.4871C135.701 11.4871 135.641 11.548 135.641 11.6218C135.641 11.6975 135.701 11.7584 135.775 11.7584C135.848 11.7584 135.909 11.6956 135.909 11.6218C135.909 11.548 135.848 11.4871 135.775 11.4871Z" fill="#EAEAEA"/>
<path d="M136.078 11.1807C136.004 11.1807 135.944 11.2434 135.944 11.3173C135.944 11.3911 136.002 11.452 136.078 11.452C136.153 11.452 136.214 11.3911 136.214 11.3173C136.214 11.2434 136.151 11.1807 136.078 11.1807Z" fill="#EAEAEA"/>
<path d="M137.721 13.8568C137.647 13.8568 137.587 13.9177 137.587 13.9916C137.587 14.0654 137.647 14.1281 137.721 14.1281C137.794 14.1281 137.857 14.0654 137.857 13.9916C137.857 13.9177 137.794 13.8568 137.721 13.8568Z" fill="#EAEAEA"/>
<path d="M137.721 13.2441C137.647 13.2441 137.587 13.3068 137.587 13.3807C137.587 13.4545 137.647 13.5154 137.721 13.5154C137.794 13.5154 137.857 13.4545 137.857 13.3807C137.857 13.3068 137.794 13.2441 137.721 13.2441Z" fill="#EAEAEA"/>
<path d="M137.113 13.8568C137.038 13.8568 136.977 13.9177 136.977 13.9916C136.977 14.0654 137.04 14.1281 137.113 14.1281C137.187 14.1281 137.247 14.0654 137.247 13.9916C137.247 13.9177 137.188 13.8568 137.113 13.8568Z" fill="#EAEAEA"/>
<path d="M137.113 13.2441C137.038 13.2441 136.977 13.3068 136.977 13.3807C136.977 13.4545 137.04 13.5154 137.113 13.5154C137.187 13.5154 137.247 13.4545 137.247 13.3807C137.247 13.3068 137.188 13.2441 137.113 13.2441Z" fill="#EAEAEA"/>
<path d="M137.416 13.5505C137.343 13.5505 137.282 13.6095 137.282 13.687C137.282 13.7609 137.341 13.8218 137.416 13.8218C137.491 13.8218 137.552 13.7627 137.552 13.687C137.552 13.6114 137.49 13.5505 137.416 13.5505Z" fill="#EAEAEA"/>
<path fill-rule="evenodd" clip-rule="evenodd" d="M133.068 14.5932L133.074 10.3225H138.448V14.5988C138.448 15.3112 138.171 15.9811 137.664 16.485C137.154 16.9962 136.48 17.2767 135.766 17.2767C135.051 17.2767 134.376 16.9962 133.867 16.485C133.351 15.9682 133.068 15.2964 133.068 14.5932ZM136.37 13.0411H135.178V13.8974C135.178 14.3201 135.518 14.536 135.775 14.536C136.032 14.536 136.37 14.3201 136.37 13.8974V13.0411ZM134.13 14.536C134.387 14.536 134.726 14.3201 134.726 13.8974V13.0411H133.535V13.8974C133.535 14.3201 133.873 14.536 134.13 14.536ZM135.775 16.6013C136.032 16.6013 136.37 16.3835 136.37 15.9608V15.1063H135.178V15.9608C135.178 16.3853 135.518 16.6013 135.775 16.6013ZM135.775 12.4726C136.032 12.4726 136.37 12.2567 136.37 11.834V10.9777H135.178V11.834C135.178 12.2567 135.518 12.4726 135.775 12.4726ZM137.416 14.536C137.673 14.536 138.013 14.3201 138.013 13.8974V13.0411H136.821V13.8974C136.821 14.3201 137.159 14.536 137.416 14.536Z" fill="#EAEAEA"/>
<path fill-rule="evenodd" clip-rule="evenodd" d="M136.197 6.1588V2.8367C136.197 2.8367 141.907 0.658882 150.037 0.195635C150.037 0.195635 150.013 7.02439 149.793 12.5704C149.385 23.0237 143.678 24.0374 137.518 25.1315C133.351 25.8715 128.977 26.6483 125.897 30.4083C127.43 26.3756 132.641 23.5057 136.197 22.797V21.1913C138.408 21.0658 140.357 19.9806 141.648 18.3417C141.624 18.3158 140.996 17.9652 140.925 17.9485C139.785 19.3346 138.097 20.2537 136.197 20.3718V19.4306C136.052 19.4435 135.909 19.4527 135.764 19.4527C135.63 19.4527 135.497 19.4419 135.363 19.431L135.358 19.4306V21.3112C125.298 24.0926 124.042 33.734 124.042 33.734V18.7348C124.042 8.74265 127.85 2.43067 135.358 0V8.14283H136.197V6.97456C137.438 7.05207 138.586 7.47656 139.551 8.14283H140.611V9.74666C141.52 9.9423 142.208 10.1564 142.546 10.3539C142.619 10.4 142.59 10.4332 142.563 10.4425C142.612 10.4258 142.634 10.3816 142.616 10.3446C142.596 10.3059 142.164 9.52888 142.149 9.50304C142.149 9.50304 142.147 9.50196 142.145 9.50067C142.144 9.49958 142.142 9.49835 142.142 9.4975C142.081 9.45321 142.008 9.40891 141.913 9.36277C140.633 7.52824 138.562 6.29168 136.197 6.1588ZM129.426 9.38677L128.774 10.6639L128.772 10.6676C128.765 10.6768 128.748 10.7341 128.765 10.7931C128.79 10.6344 128.89 10.6307 128.987 10.6307C129.328 10.6307 130.011 10.8577 130.906 11.2508L130.911 8.14283H131.996C132.914 7.50978 133.994 7.09637 135.165 6.98932L135.277 6.16433C132.964 6.31567 130.933 7.52455 129.666 9.31479C129.563 9.31848 129.484 9.34247 129.431 9.37938C129.428 9.38123 129.426 9.38677 129.426 9.38677ZM128.236 14.2278C128.196 14.1853 128.24 14.1263 128.256 14.1078L128.258 14.106C128.284 14.0728 128.315 14.0377 128.357 14.0045C128.394 13.9731 128.436 13.9417 128.482 13.9122C128.609 13.8328 128.77 13.7516 128.958 13.676C128.97 13.6709 128.983 13.666 128.995 13.661C129.028 13.6481 129.06 13.6353 129.093 13.6206C129.604 13.4268 130.257 13.2496 130.869 13.1297C130.875 13.1287 130.882 13.1274 130.888 13.126C130.895 13.1246 130.901 13.1232 130.907 13.1223V12.2659C130.9 12.2671 130.892 12.2681 130.885 12.269C130.869 12.2711 130.854 12.2732 130.838 12.277C130.201 12.4023 129.616 12.5589 129.16 12.7266C129.237 12.1787 129.38 11.6511 129.578 11.1567C129.534 11.0958 128.924 10.7101 128.89 10.7008C128.563 11.4631 128.359 12.2899 128.302 13.1573C128.24 13.209 128.201 13.2607 128.185 13.3068C128.183 13.3105 128.183 13.3124 128.183 13.3124V14.1614C128.183 14.1913 128.211 14.2105 128.228 14.2223C128.231 14.2243 128.234 14.2262 128.236 14.2278ZM129.027 17.1715C129.027 17.1715 129.415 17.8415 129.435 17.8729H129.433C129.451 17.9043 129.49 17.9246 129.521 17.9338C129.459 17.8913 129.49 17.8452 129.503 17.8267C129.663 17.6053 130.335 17.3284 130.805 17.2011C131.047 17.1309 131.302 17.07 131.561 17.011C131.414 16.7544 131.289 16.4905 131.192 16.2155C130.981 16.2654 130.775 16.3152 130.575 16.3742C130.305 16.4536 130.026 16.544 129.782 16.6437C129.387 15.8409 129.148 14.9513 129.103 14.0082C129.057 14.0026 128.365 14.13 128.3 14.1632C128.368 15.1949 128.64 16.1694 129.077 17.0479C129.048 17.0885 129.027 17.1254 129.024 17.1623C129.024 17.1623 129.024 17.1633 129.024 17.1651C129.025 17.1667 129.026 17.1689 129.027 17.1715ZM130.437 17.7142C130.384 17.7105 129.615 17.8415 129.554 17.871C130.812 19.7517 132.892 21.0326 135.279 21.1876L135.161 20.3608C133.232 20.1873 131.541 19.187 130.437 17.7142ZM131.264 14.5932C131.264 15.8261 131.772 16.9482 132.591 17.7658V17.764C133.404 18.5853 134.528 19.091 135.766 19.091C137.003 19.091 138.125 18.5853 138.938 17.7677C139.752 16.9593 140.253 15.8298 140.253 14.5932V8.50087H131.269L131.264 14.5932ZM141.845 18.266C141.867 18.2402 142.522 17.2509 142.522 17.2509L142.524 17.2491C142.557 17.1845 142.546 17.0996 142.498 16.9944C142.921 16.1306 143.185 15.1709 143.249 14.1595C143.183 14.1263 142.504 13.9823 142.449 13.9823C142.412 14.8036 142.228 15.5843 141.925 16.3023C141.586 15.9756 141.118 15.5954 140.572 15.1838C140.504 15.7357 140.345 16.2654 140.1 16.7526C141.002 17.4465 141.549 17.9633 141.672 18.2235C141.774 18.4346 141.677 18.4657 141.639 18.4777C141.634 18.4793 141.63 18.4806 141.628 18.4819C141.698 18.4801 141.74 18.4358 141.758 18.4007C141.782 18.3675 141.845 18.266 141.845 18.266ZM143.317 14.2245C143.335 14.2129 143.365 14.1932 143.365 14.1614V13.3087C143.348 13.2607 143.308 13.2109 143.247 13.1592C143.179 12.1773 142.924 11.2453 142.52 10.4019C142.434 10.3779 141.595 10.2967 141.549 10.2967C141.977 11.0294 142.267 11.8525 142.39 12.7292C141.933 12.5649 141.349 12.4043 140.708 12.2788C140.675 12.2733 140.642 12.2678 140.611 12.2604V13.1149L140.681 13.1297C141.775 13.3474 143.018 13.7387 143.293 14.1078C143.312 14.1263 143.352 14.1835 143.312 14.2278C143.313 14.2268 143.315 14.2257 143.317 14.2245Z" fill="#EAEAEA"/>
<path d="M196.112 10.1305V4.75978L196.114 4.75609C196.472 4.71549 196.819 4.65089 197.157 4.56599V3.50108H193.206V4.56599C193.384 4.61952 193.579 4.66012 193.79 4.68596C194.001 4.71364 194.206 4.73764 194.407 4.75794V10.2228C194.407 10.7211 194.355 11.1456 194.256 11.4944C194.155 11.8451 194.003 12.1275 193.797 12.3452C193.591 12.563 193.331 12.718 193.015 12.814C192.699 12.9081 192.324 12.9561 191.893 12.9561C191.397 12.9561 190.99 12.8934 190.668 12.766C190.347 12.6387 190.096 12.4634 189.917 12.2419C189.739 12.0204 189.615 11.7565 189.547 11.4483C189.479 11.1419 189.444 10.8078 189.444 10.4479V4.75978C189.644 4.73764 189.846 4.71364 190.051 4.6878C190.257 4.66012 190.455 4.62136 190.645 4.56784V3.50292H186.693V4.56784C186.851 4.61029 187.018 4.6472 187.198 4.67858C187.378 4.70995 187.556 4.73764 187.736 4.75794V10.5735C187.736 11.0718 187.791 11.5479 187.901 12.0038C188.012 12.4597 188.214 12.8657 188.509 13.2201C188.805 13.5763 189.216 13.8586 189.743 14.0709C190.27 14.2831 190.955 14.3883 191.798 14.3883C193.209 14.3883 194.282 14.0395 195.014 13.34C195.747 12.6405 196.112 11.5719 196.112 10.1305Z" fill="#EAEAEA"/>
<path d="M191.025 1.77359L191.656 2.74253H191.658L194.265 1.18484L193.507 0.0257959L191.025 1.77359Z" fill="#EAEAEA"/>
<path fill-rule="evenodd" clip-rule="evenodd" d="M163.458 9.58779L166.335 14.2276V14.2258H168.849V13.1461L168.818 13.1401C168.618 13.1017 168.428 13.0652 168.249 13.0354C168.058 13.004 167.88 12.9782 167.711 12.956L165.867 10.1765C165.774 10.0289 165.676 9.87755 165.572 9.72436C165.469 9.57118 165.359 9.42538 165.245 9.28695C165.656 9.2242 166.033 9.10978 166.376 8.94552C166.717 8.78126 167.015 8.57455 167.268 8.32539C167.52 8.07808 167.714 7.78647 167.852 7.45242C167.99 7.12021 168.058 6.75109 168.058 6.34875C168.058 5.81906 167.968 5.36873 167.79 4.99776C167.61 4.62864 167.354 4.3278 167.022 4.10079C166.69 3.87378 166.295 3.70583 165.836 3.60063C165.377 3.49543 164.874 3.44191 164.327 3.44191C164 3.44191 163.681 3.44376 163.37 3.44929C163.06 3.45483 162.77 3.46221 162.502 3.47329C162.234 3.48436 161.999 3.49174 161.799 3.49728C161.597 3.50282 161.444 3.50466 161.34 3.50466H160.108V4.55297C160.319 4.60649 160.541 4.64894 160.772 4.68032C161.004 4.71169 161.24 4.73938 161.483 4.75968V12.9708C161.24 12.9911 161.004 13.0188 160.772 13.0502C160.539 13.0815 160.319 13.124 160.108 13.1775V14.2258H164.281V13.1609C163.943 13.0668 163.58 13.0022 163.19 12.9708V9.58779H163.458ZM164.086 4.85565C164.81 4.85565 165.35 4.98853 165.706 5.25245V5.25061C166.062 5.51453 166.24 5.94456 166.24 6.537C166.24 7.07776 166.044 7.50963 165.651 7.83262C165.258 8.15744 164.716 8.31801 164.024 8.31801C163.835 8.31801 163.67 8.31616 163.528 8.31063C163.387 8.30509 163.275 8.29771 163.19 8.28664V4.88702C163.317 4.87595 163.455 4.86857 163.607 4.86303C163.76 4.85934 163.919 4.85565 164.086 4.85565Z" fill="#EAEAEA"/>
<path d="M169.576 13.1778V14.2279L169.578 14.2242H176.674V11.5555H175.426C175.372 11.7899 175.33 12.0113 175.299 12.2236C175.268 12.4358 175.24 12.637 175.22 12.8271H172.659V9.34813H174.697C174.717 9.50685 174.744 9.67296 174.776 9.84829C174.807 10.0236 174.849 10.186 174.902 10.3337H175.976V7.09279H174.902C174.849 7.24229 174.807 7.39732 174.776 7.56158C174.744 7.72584 174.717 7.89933 174.697 8.07835H172.659V4.85223H175.203C175.224 5.02202 175.251 5.21027 175.282 5.41698C175.314 5.62369 175.35 5.83778 175.393 6.0611H176.641V3.50309H169.576V4.53847C169.787 4.59015 170.009 4.6326 170.241 4.66397C170.472 4.69719 170.709 4.72303 170.951 4.74333V12.9711C170.709 12.9914 170.472 13.019 170.241 13.0504C170.008 13.0818 169.787 13.1242 169.576 13.1778Z" fill="#EAEAEA"/>
<path fill-rule="evenodd" clip-rule="evenodd" d="M185.72 8.1113C185.526 8.55609 185.247 8.93998 184.883 9.26296C184.52 9.58594 184.083 9.84064 183.572 10.0252C183.062 10.2098 182.494 10.3039 181.874 10.3039H181.494C181.356 10.3039 181.22 10.2928 181.083 10.2725V12.9726C181.325 12.9948 181.562 13.0206 181.793 13.052C182.024 13.0834 182.247 13.1258 182.458 13.1793V14.2276H178V13.1793C178.211 13.1258 178.431 13.0834 178.664 13.052C178.896 13.0206 179.133 12.9929 179.375 12.9726V4.75968C179.133 4.73938 178.896 4.71169 178.664 4.68032C178.433 4.64894 178.211 4.60649 178 4.55297V3.50466H179.201C179.327 3.50466 179.498 3.50282 179.715 3.49728C179.931 3.49174 180.17 3.48436 180.434 3.47329C180.697 3.46221 180.972 3.45483 181.257 3.44929C181.541 3.44376 181.821 3.44191 182.094 3.44191C183.368 3.44191 184.341 3.72983 185.01 4.3075C185.678 4.88518 186.014 5.67141 186.014 6.66619C186.014 7.18481 185.917 7.66651 185.722 8.1113H185.72ZM183.682 5.37057C183.319 5.02729 182.748 4.8538 181.967 4.8538H181.508C181.371 4.8538 181.229 4.86488 181.083 4.88518V8.80894C181.209 8.83109 181.336 8.84585 181.463 8.85693C181.589 8.868 181.716 8.87354 181.843 8.87354C182.57 8.86247 183.15 8.67421 183.581 8.30878C184.013 7.94335 184.229 7.44319 184.229 6.80646C184.229 6.16972 184.048 5.71201 183.684 5.36873L183.682 5.37057Z" fill="#EAEAEA"/>
<path fill-rule="evenodd" clip-rule="evenodd" d="M206.488 12.0923C206.355 12.4798 206.131 12.8342 205.816 13.1572C205.5 13.4802 205.074 13.7478 204.536 13.96C203.998 14.1723 203.319 14.2775 202.498 14.2775C202.171 14.2775 201.756 14.2701 201.249 14.2535C200.745 14.2369 200.196 14.2295 199.606 14.2295H198.231V13.1812C198.442 13.1276 198.662 13.0852 198.896 13.0538C199.127 13.0224 199.364 12.9948 199.606 12.9745V4.75965C199.364 4.73935 199.127 4.71167 198.896 4.68029C198.664 4.64892 198.442 4.60647 198.231 4.55294V3.50464H199.558C199.959 3.50464 200.462 3.49726 201.068 3.48065C201.674 3.46403 202.298 3.45665 202.94 3.45665C204.11 3.45665 204.989 3.68366 205.581 4.13953C206.17 4.59539 206.466 5.23582 206.466 6.06265C206.466 6.61264 206.3 7.11096 205.968 7.55575C205.636 8.00054 205.197 8.31799 204.648 8.50993V8.5413C204.995 8.60406 205.298 8.71664 205.557 8.87536C205.814 9.03408 206.025 9.22418 206.188 9.4475C206.352 9.67082 206.475 9.91444 206.559 10.1784C206.644 10.4441 206.686 10.7136 206.686 10.9886C206.686 11.3374 206.62 11.7065 206.488 12.0923ZM204.567 5.7286C204.505 5.54773 204.393 5.3927 204.235 5.25981C204.077 5.12693 203.869 5.02357 203.611 4.94975C203.352 4.87593 203.034 4.83901 202.654 4.83901C202.412 4.83901 202.18 4.84086 201.958 4.8464C201.736 4.85193 201.521 4.85932 201.31 4.87039V8.04853C201.446 8.0596 201.589 8.06514 201.736 8.06514H202.226C203.027 8.06514 203.633 7.91195 204.044 7.60374C204.455 7.29736 204.661 6.87287 204.661 6.33211C204.661 6.11064 204.63 5.90947 204.565 5.7286H204.567ZM204.67 10.2411C204.538 10.0289 204.36 9.85722 204.132 9.72434C203.906 9.59146 203.634 9.49733 203.319 9.43827C203.003 9.37921 202.656 9.35153 202.276 9.35153H201.817C201.721 9.35153 201.63 9.35337 201.54 9.35891C201.45 9.36445 201.374 9.36629 201.31 9.36629V12.7825C201.606 12.836 202.021 12.8619 202.559 12.8619C203.35 12.8619 203.932 12.6902 204.305 12.3451C204.679 12.0018 204.866 11.5589 204.866 11.0181C204.866 10.7117 204.8 10.4515 204.668 10.2393L204.67 10.2411Z" fill="#EAEAEA"/>
<path d="M207.934 13.1792V14.2294H214.889V11.4167H213.656C213.562 11.9242 213.488 12.3856 213.435 12.799H211.017V4.75957C211.26 4.73927 211.496 4.71159 211.728 4.68021C211.961 4.64884 212.181 4.60639 212.392 4.55287V3.50456H207.934V4.55287C208.144 4.60639 208.366 4.64884 208.597 4.68021C208.829 4.71159 209.065 4.73927 209.308 4.75957V12.9725C209.065 12.9928 208.829 13.0205 208.597 13.0519C208.366 13.0833 208.146 13.1257 207.934 13.1792Z" fill="#EAEAEA"/>
<path d="M215.504 13.1792C215.716 13.1257 215.936 13.0833 216.167 13.0519C216.399 13.0205 216.635 12.9928 216.878 12.9725V4.75957C216.635 4.73927 216.399 4.71159 216.167 4.68021C215.936 4.64884 215.714 4.60639 215.504 4.55287V3.50456H219.962V4.55287C219.751 4.60639 219.531 4.64884 219.298 4.68021C219.066 4.71159 218.829 4.73927 218.587 4.75957V12.9744C218.829 12.9965 219.066 13.0224 219.298 13.0537C219.529 13.0851 219.751 13.1276 219.962 13.1811V14.2294H215.504V13.1792Z" fill="#EAEAEA"/>
<path d="M227.461 5.78407C227.488 6.01108 227.527 6.25839 227.58 6.52231V6.52416H228.86V3.69669C228.448 3.60071 228.032 3.52689 227.611 3.47337C227.189 3.41984 226.778 3.39401 226.377 3.39401C225.461 3.39401 224.668 3.53612 224 3.82219C223.33 4.10826 222.777 4.50691 222.34 5.01445C221.903 5.52384 221.576 6.13289 221.36 6.8416C221.145 7.55032 221.036 8.32916 221.036 9.1763C221.036 10.8078 221.455 12.0813 222.292 12.9967C223.129 13.914 224.385 14.3717 226.062 14.3717C226.578 14.3717 227.079 14.3274 227.563 14.237C228.048 14.1465 228.513 14.0266 228.955 13.8789L228.845 12.2898C228.507 12.4393 228.125 12.5575 227.699 12.6479C227.272 12.7383 226.858 12.7826 226.458 12.7826C225.838 12.7826 225.305 12.6959 224.863 12.5205C224.42 12.3452 224.057 12.0924 223.772 11.7583C223.487 11.4242 223.28 11.0164 223.148 10.5347C223.016 10.053 222.95 9.50482 222.95 8.89023C222.95 8.31809 223.012 7.79024 223.139 7.30854C223.265 6.82684 223.456 6.41527 223.715 6.07014C223.974 5.72685 224.293 5.45555 224.679 5.25992C225.063 5.06428 225.514 4.96646 226.03 4.96646C226.262 4.96646 226.486 4.97754 226.702 4.99784C226.917 5.01999 227.147 5.06244 227.389 5.12519C227.411 5.33743 227.435 5.55706 227.461 5.78407Z" fill="#EAEAEA"/>
<path fill-rule="evenodd" clip-rule="evenodd" d="M236.525 14.2279V13.1796C236.705 13.1372 236.9 13.1003 237.109 13.0689C237.32 13.0375 237.526 13.0098 237.726 12.9895L237.173 11.4798H232.952L232.414 12.9895C232.614 13.0098 232.82 13.0375 233.031 13.0689C233.242 13.1003 233.437 13.1372 233.615 13.1796V14.2279H229.774V13.1796C229.912 13.1372 230.06 13.1021 230.224 13.0763C230.387 13.0504 230.541 13.0264 230.69 13.0043L234.089 3.50309H236.16L239.606 13.0043C239.753 13.0246 239.909 13.0486 240.072 13.0763C240.236 13.1021 240.386 13.1372 240.522 13.1796V14.2279H236.525ZM235.545 6.88793C235.44 6.61294 235.35 6.34163 235.277 6.07771C235.203 5.81379 235.133 5.53141 235.071 5.23611H235.04C234.987 5.51111 234.919 5.79164 234.834 6.07771C234.75 6.36378 234.654 6.64985 234.55 6.93592L233.397 10.1288H236.731L235.545 6.88793Z" fill="#EAEAEA"/>
<path fill-rule="evenodd" clip-rule="evenodd" d="M167.004 24.5411C167.367 24.2182 167.646 23.8343 167.841 23.3895L167.843 23.3876C168.037 22.9429 168.135 22.4611 168.135 21.9425C168.135 20.9477 167.799 20.1615 167.13 19.5838C166.462 19.0062 165.489 18.7183 164.215 18.7183C163.941 18.7183 163.662 18.7201 163.378 18.7256C163.093 18.7312 162.818 18.7386 162.555 18.7496C162.291 18.7607 162.052 18.7681 161.835 18.7736C161.619 18.7792 161.448 18.781 161.321 18.781H160.121V19.8293C160.332 19.8828 160.554 19.9253 160.785 19.9567C161.016 19.988 161.253 20.0157 161.496 20.036V28.2508C161.253 28.2711 161.016 28.2988 160.785 28.3302C160.552 28.3616 160.332 28.404 160.121 28.4575V29.5058H164.578V28.4575C164.367 28.404 164.145 28.3616 163.914 28.3302C163.682 28.2988 163.446 28.273 163.203 28.2508V25.5507C163.341 25.571 163.477 25.5821 163.614 25.5821H163.995C164.615 25.5821 165.182 25.4879 165.693 25.3034C166.203 25.1188 166.64 24.8641 167.004 24.5411ZM164.088 20.132C164.869 20.132 165.44 20.3055 165.803 20.6488L165.805 20.6469C166.168 20.9902 166.35 21.4479 166.35 22.0846C166.35 22.7214 166.134 23.2215 165.702 23.587C165.271 23.9524 164.69 24.1407 163.963 24.1517C163.837 24.1517 163.71 24.1462 163.583 24.1351C163.457 24.124 163.33 24.1093 163.203 24.0871V20.1634C163.35 20.1431 163.491 20.132 163.629 20.132H164.088Z" fill="#EAEAEA"/>
<path fill-rule="evenodd" clip-rule="evenodd" d="M178.527 26.3902C178.259 27.0897 177.891 27.6822 177.429 28.1694C176.964 28.6566 176.423 29.0276 175.8 29.2823C175.178 29.537 174.515 29.6625 173.808 29.6625C172.997 29.6625 172.292 29.5352 171.689 29.2823C171.089 29.0276 170.588 28.6659 170.187 28.1934C169.787 27.7228 169.49 27.1562 169.295 26.4936C169.101 25.831 169.003 25.0872 169.003 24.2604C169.003 23.3708 169.137 22.5772 169.405 21.8777C169.673 21.1782 170.041 20.5876 170.503 20.1059C170.966 19.6242 171.509 19.2551 172.132 19.0023C172.754 18.7476 173.417 18.6202 174.124 18.6202C174.831 18.6202 175.494 18.731 176.083 18.9543C176.672 19.1776 177.179 19.5135 177.599 19.9638C178.02 20.4142 178.347 20.9752 178.58 21.647C178.811 22.3207 178.927 23.1069 178.927 24.0057C178.927 24.9045 178.793 25.6889 178.525 26.3884L178.527 26.3902ZM176.292 21.1746C175.747 20.4788 174.972 20.1318 173.966 20.1318C173.553 20.1318 173.156 20.2148 172.774 20.3791C172.393 20.5434 172.06 20.7907 171.774 21.1192C171.487 21.4477 171.258 21.8574 171.083 22.3447C170.909 22.8338 170.821 23.4004 170.821 24.0482C170.821 24.6535 170.885 25.2091 171.012 25.7129C171.138 26.2168 171.329 26.6468 171.583 27.003C171.836 27.3592 172.159 27.6342 172.552 27.8317C172.943 28.0273 173.404 28.1251 173.935 28.1251C174.326 28.1251 174.713 28.0458 175.095 27.887C175.477 27.7283 175.819 27.4847 176.12 27.1543C176.421 26.8258 176.663 26.4142 176.843 25.9215C177.023 25.4287 177.113 24.8473 177.113 24.1774C177.113 22.8725 176.839 21.8722 176.294 21.1764L176.292 21.1746Z" fill="#EAEAEA"/>
<path fill-rule="evenodd" clip-rule="evenodd" d="M183.291 24.8656L186.168 29.5055L186.166 29.4999H188.68V28.4203L188.648 28.4142C188.449 28.3758 188.259 28.3393 188.08 28.3095C187.889 28.2781 187.711 28.2523 187.542 28.2302L185.698 25.4507C185.605 25.303 185.507 25.1517 185.403 24.9985C185.3 24.8453 185.19 24.6995 185.076 24.5611C185.487 24.4983 185.864 24.3839 186.207 24.2196C186.548 24.0554 186.846 23.8487 187.099 23.5995C187.353 23.3522 187.547 23.0606 187.685 22.7265C187.823 22.3943 187.89 22.0252 187.89 21.6229C187.89 21.0932 187.801 20.6429 187.622 20.2719C187.443 19.9028 187.187 19.6038 186.855 19.3749C186.523 19.1479 186.128 18.98 185.669 18.8748C185.21 18.7696 184.707 18.716 184.16 18.716C183.833 18.716 183.513 18.7179 183.203 18.7234C182.893 18.729 182.603 18.7363 182.335 18.7474C182.067 18.7585 181.832 18.7659 181.631 18.7714C181.43 18.7769 181.277 18.7788 181.172 18.7788H179.94V19.8271C180.152 19.8806 180.374 19.9231 180.605 19.9544C180.836 19.9858 181.073 20.0135 181.316 20.0338V28.2486C181.073 28.2689 180.836 28.2966 180.605 28.328C180.372 28.3593 180.152 28.4018 179.94 28.4553V29.5036H184.114V28.4387C183.776 28.3446 183.412 28.28 183.023 28.2486V24.8656H183.291ZM183.919 20.1316C184.643 20.1316 185.182 20.2645 185.539 20.5284V20.5266C185.895 20.7905 186.073 21.2205 186.073 21.813C186.073 22.3537 185.876 22.7856 185.483 23.1086C185.091 23.4334 184.549 23.594 183.857 23.594C183.668 23.594 183.502 23.5921 183.361 23.5866C183.22 23.5811 183.108 23.5737 183.023 23.5626V20.163C183.15 20.1519 183.288 20.1445 183.44 20.139C183.592 20.1335 183.752 20.1316 183.919 20.1316Z" fill="#EAEAEA"/>
<path d="M196.52 21.625C196.467 21.35 196.423 21.0953 196.386 20.8627C196.349 20.6302 196.32 20.4124 196.299 20.2112H194.372V28.2526C194.614 28.2729 194.851 28.3005 195.082 28.3319C195.314 28.3633 195.536 28.4057 195.745 28.4593V29.5057H191.287V28.4593C191.498 28.4076 191.719 28.3651 191.952 28.3319C192.183 28.3005 192.42 28.2747 192.662 28.2526V20.2112H190.718C190.698 20.4124 190.67 20.6302 190.639 20.8627C190.608 21.0953 190.566 21.35 190.512 21.625H189.28V18.7809H197.752V21.625H196.52Z" fill="#EAEAEA"/>
<path d="M207.885 25.4066V20.0359L207.887 20.0322C208.245 19.9916 208.592 19.927 208.93 19.8421V18.7772H204.978V19.8421C205.157 19.8957 205.351 19.9363 205.562 19.9621C205.773 19.9898 205.979 20.0138 206.179 20.0341V25.4989C206.179 25.9972 206.128 26.4217 206.029 26.7705C205.928 27.1212 205.775 27.4036 205.57 27.6214C205.364 27.8392 205.103 27.9942 204.787 28.0902C204.472 28.1843 204.097 28.2323 203.666 28.2323C203.17 28.2323 202.762 28.1695 202.441 28.0422C202.12 27.9148 201.868 27.7395 201.69 27.518C201.512 27.2965 201.387 27.0326 201.319 26.7244C201.251 26.418 201.216 26.084 201.216 25.7241V20.0359C201.417 20.0138 201.618 19.9898 201.824 19.9639C202.03 19.9363 202.228 19.8975 202.417 19.844V18.7791H198.466V19.844C198.624 19.8864 198.791 19.9233 198.971 19.9547C199.151 19.9861 199.329 20.0138 199.509 20.0341V25.8496C199.509 26.3479 199.564 26.8241 199.674 27.2799C199.784 27.7358 199.986 28.1418 200.282 28.4962C200.577 28.8524 200.989 29.1348 201.516 29.347C202.043 29.5593 202.727 29.6645 203.57 29.6645C204.982 29.6645 206.054 29.3156 206.787 28.6162C207.519 27.9167 207.885 26.8481 207.885 25.4066Z" fill="#EAEAEA"/>
<path d="M219.367 25.1448C219.204 25.1706 219.039 25.1946 218.87 25.2168V29.0132C218.332 29.2254 217.752 29.386 217.131 29.4986C216.509 29.6093 215.894 29.6647 215.282 29.6647C214.46 29.6647 213.72 29.5429 213.062 29.2993C212.403 29.0556 211.845 28.7087 211.388 28.2583C210.929 27.808 210.577 27.2543 210.329 26.5973C210.081 25.9403 209.958 25.1983 209.958 24.3733C209.958 23.5483 210.092 22.7658 210.362 22.0608C210.632 21.3558 211.017 20.7504 211.518 20.241C212.02 19.7335 212.629 19.3385 213.349 19.058C214.067 18.7774 214.88 18.6372 215.789 18.6372C216.285 18.6372 216.773 18.6722 217.254 18.7424C217.733 18.8125 218.222 18.9048 218.717 19.0229V21.7193H217.438C217.384 21.4757 217.342 21.2413 217.311 21.0125C217.28 20.7855 217.252 20.5658 217.232 20.3536C216.968 20.2908 216.703 20.2392 216.439 20.2023C216.175 20.1653 215.916 20.1469 215.662 20.1469C215.124 20.1469 214.621 20.2318 214.157 20.3997C213.692 20.5695 213.285 20.8261 212.936 21.1694C212.587 21.5126 212.312 21.939 212.111 22.4465C211.911 22.9541 211.81 23.541 211.81 24.2072C211.81 25.4549 212.141 26.4201 212.802 27.1011C213.463 27.7822 214.368 28.1236 215.521 28.1236C215.828 28.1236 216.118 28.1033 216.393 28.0609C216.668 28.0184 216.927 27.9557 217.17 27.8708V25.2334C216.927 25.2131 216.69 25.1854 216.459 25.154C216.228 25.1226 216.017 25.0802 215.828 25.0267V23.9784H219.843V25.0433C219.694 25.0857 219.54 25.1208 219.377 25.1466L219.367 25.1448Z" fill="#EAEAEA"/>
<path d="M230.075 25.4066V20.0359L230.077 20.0322C230.435 19.9916 230.782 19.927 231.12 19.8421V18.7772H227.169V19.8421C227.349 19.8957 227.543 19.9363 227.754 19.9621C227.966 19.9898 228.171 20.0138 228.371 20.0341V25.4989C228.371 25.9972 228.32 26.4217 228.221 26.7705C228.12 27.1212 227.967 27.4036 227.762 27.6214C227.556 27.8392 227.295 27.9942 226.98 28.0902C226.664 28.1843 226.289 28.2323 225.858 28.2323C225.362 28.2323 224.954 28.1695 224.633 28.0422C224.312 27.9148 224.06 27.7395 223.882 27.518C223.704 27.2965 223.579 27.0326 223.511 26.7244C223.443 26.418 223.409 26.084 223.409 25.7241V20.0359C223.609 20.0138 223.811 19.9898 224.016 19.9639C224.222 19.9363 224.42 19.8975 224.609 19.844V18.7791H220.658V19.844C220.816 19.8864 220.983 19.9233 221.163 19.9547C221.343 19.9861 221.521 20.0138 221.701 20.0341V25.8496C221.701 26.3479 221.756 26.8241 221.866 27.2799C221.976 27.7358 222.178 28.1418 222.474 28.4962C222.768 28.8524 223.179 29.1348 223.706 29.347C224.233 29.5593 224.918 29.6645 225.76 29.6645C227.172 29.6645 228.245 29.3156 228.977 28.6162C229.71 27.9167 230.075 26.8481 230.075 25.4066Z" fill="#EAEAEA"/>
<path d="M232.192 29.5057V28.4556C232.403 28.4021 232.624 28.3596 232.855 28.3282C233.086 28.2969 233.323 28.2692 233.565 28.2489V20.0211C233.323 20.0008 233.086 19.975 232.855 19.9418C232.624 19.9104 232.401 19.868 232.192 19.8163V18.7809H239.257V21.3389H238.009C237.966 21.1156 237.93 20.9015 237.899 20.6948C237.867 20.4881 237.84 20.2998 237.82 20.13H235.275V23.3543H237.313C237.333 23.1753 237.361 23.0018 237.392 22.8375C237.423 22.6733 237.465 22.5183 237.518 22.3688H238.593V25.6097H237.518C237.465 25.462 237.423 25.2996 237.392 25.1243C237.361 24.9489 237.333 24.7828 237.313 24.6241H235.275V28.1031H237.836C237.856 27.913 237.884 27.7118 237.915 27.4996C237.946 27.2873 237.988 27.0658 238.042 26.8314H239.29V29.5002H232.194L232.192 29.5057Z" fill="#EAEAEA"/>
<path d="M246.418 28.7028C246.765 28.4001 247.035 28.0439 247.224 27.6305L247.22 27.6323C247.409 27.2208 247.505 26.7649 247.505 26.2666C247.505 25.7055 247.387 25.2496 247.15 24.9008C246.915 24.552 246.621 24.2641 246.269 24.0352C245.916 23.8082 245.536 23.6163 245.127 23.4631C244.718 23.3099 244.337 23.153 243.985 22.9943C243.634 22.8356 243.34 22.6473 243.104 22.4296C242.867 22.2136 242.749 21.9239 242.749 21.564C242.749 21.1192 242.915 20.7556 243.245 20.4751C243.575 20.1945 244.077 20.0543 244.747 20.0543C244.872 20.0543 245.006 20.0616 245.147 20.0783C245.289 20.093 245.401 20.1133 245.485 20.1336C245.505 20.3256 245.529 20.5323 245.555 20.7537C245.58 20.9752 245.619 21.2041 245.672 21.4366H246.937V18.8472C246.579 18.7716 246.229 18.7162 245.887 18.6793C245.544 18.6424 245.184 18.6239 244.804 18.6239C244.192 18.6239 243.647 18.7014 243.168 18.8546C242.689 19.0078 242.283 19.2219 241.951 19.4969C241.618 19.7719 241.367 20.1022 241.192 20.488C241.018 20.8737 240.932 21.2945 240.932 21.7485C240.932 22.3299 241.051 22.7968 241.288 23.1512C241.525 23.5055 241.818 23.799 242.165 24.0315C242.512 24.2641 242.894 24.4523 243.311 24.5945C243.726 24.7366 244.11 24.8879 244.457 25.0466C244.806 25.2054 245.098 25.3955 245.334 25.6169C245.571 25.8384 245.691 26.1355 245.691 26.5047C245.691 26.7907 245.636 27.038 245.525 27.2503C245.413 27.4607 245.261 27.6323 245.066 27.7652C244.87 27.8981 244.64 27.9959 244.378 28.0587C244.113 28.1233 243.829 28.1546 243.524 28.1546C243.377 28.1546 243.219 28.1454 243.05 28.1233C242.881 28.103 242.724 28.0753 242.577 28.0439C242.556 27.8427 242.529 27.6268 242.498 27.3998C242.467 27.1728 242.43 26.9365 242.388 26.6929H241.123V29.3912C241.818 29.5739 242.597 29.6643 243.462 29.6643C244.084 29.6643 244.644 29.5794 245.145 29.4097C245.647 29.2399 246.071 29.0055 246.418 28.7028Z" fill="#EAEAEA"/>
<path fill-rule="evenodd" clip-rule="evenodd" d="M254.81 29.5057V28.4574C254.988 28.415 255.185 28.3781 255.394 28.3467C255.605 28.3153 255.811 28.2876 256.011 28.2673L255.458 26.7576H251.239L250.701 28.2673C250.901 28.2876 251.107 28.3153 251.318 28.3467C251.529 28.3781 251.724 28.415 251.902 28.4574V29.5057H248.061V28.4574C248.199 28.415 248.347 28.3799 248.511 28.3541C248.674 28.3282 248.83 28.3042 248.977 28.2821L252.376 18.7809H254.447L257.893 28.2821C258.04 28.3024 258.196 28.3264 258.359 28.3541C258.523 28.3799 258.673 28.415 258.809 28.4574V29.5057H254.81ZM253.83 22.1657C253.725 21.8907 253.635 21.6213 253.562 21.3555C253.488 21.0916 253.42 20.8092 253.356 20.5139H253.325C253.272 20.7889 253.204 21.0695 253.119 21.3555C253.035 21.6416 252.939 21.9277 252.835 22.2137L251.682 25.4066H255.016L253.83 22.1657Z" fill="#EAEAEA"/>
</svg>
